<?xml version="1.0" encoding="UTF-8" standalone="no"?>
<!-- Created with Inkscape (http://www.inkscape.org/) -->

<svg
   xmlns:dc="http://purl.org/dc/elements/1.1/"
   xmlns:cc="http://creativecommons.org/ns#"
   xmlns:rdf="http://www.w3.org/1999/02/22-rdf-syntax-ns#"
   xmlns:svg="http://www.w3.org/2000/svg"
   xmlns="http://www.w3.org/2000/svg"
   xmlns:sodipodi="http://sodipodi.sourceforge.net/DTD/sodipodi-0.dtd"
   xmlns:inkscape="http://www.inkscape.org/namespaces/inkscape"
   width="384mm"
   height="384mm"
   viewBox="0 0 1360.6299 1360.6299"
   id="svg7958"
   version="1.1"
   inkscape:version="0.91 r13725"
   sodipodi:docname="p2-base-twice-minimized.svg">
  <defs
     id="defs7960" />
  <sodipodi:namedview
     id="base"
     pagecolor="#ffffff"
     bordercolor="#666666"
     borderopacity="1.0"
     inkscape:pageopacity="0.0"
     inkscape:pageshadow="2"
     inkscape:zoom="0.96123832"
     inkscape:cx="928.3191"
     inkscape:cy="689.41467"
     inkscape:document-units="mm"
     inkscape:current-layer="layer1"
     showgrid="false"
     inkscape:window-width="2495"
     inkscape:window-height="1576"
     inkscape:window-x="65"
     inkscape:window-y="24"
     inkscape:window-maximized="1" />
  <metadata
     id="metadata7963">
    <rdf:RDF>
      <cc:Work
         rdf:about="">
        <dc:format>image/svg+xml</dc:format>
        <dc:type
           rdf:resource="http://purl.org/dc/dcmitype/StillImage" />
        <dc:title />
      </cc:Work>
    </rdf:RDF>
  </metadata>
  <g
     inkscape:label="Layer 1"
     inkscape:groupmode="layer"
     id="layer1"
     transform="translate(0,308.26772)">
    <path
       style="opacity:1;fill:none;fill-opacity:1;stroke:#0000ff;stroke-width:0.03543307;stroke-linecap:round;stroke-miterlimit:4;stroke-dasharray:none;stroke-dashoffset:0;stroke-opacity:1"
       d="m 556.49543,264.37406 -7.36282,17.77566 c -0.73222,1.76775 -0.58478,3.63166 -0.006,5.37594 l 11.69257,28.1783 c 0.34648,0.83333 1.26462,1.27349 2.13145,1.02175 l -0.004,0.009 c 6.9294,-1.99781 14.25961,1.52564 17.02662,8.18419 2.75374,6.65791 0.068,14.31586 -6.2406,17.79423 l 0.0102,0.0172 c -0.79446,0.43217 -1.13458,1.39337 -0.78883,2.22921 l 12.90674,31.10438 c 1.1244,2.709 4.23298,3.99661 6.9436,2.87613 L 658.24951,351.88 c 2.71041,-1.121 3.99642,-4.2257 2.87254,-6.93491 l -5.80219,-13.98278 c -1.12777,-2.71786 -4.22429,-4.00059 -6.9436,-2.87613 l -5.53045,2.28665 c -1.35972,0.56214 -2.90741,-0.0802 -3.47146,-1.43901 l -20.24059,-48.7772 c -0.56124,-1.35277 0.0707,-2.89026 1.41759,-3.45895 l 20.30332,-8.39497 c 1.86937,-0.83535 2.99607,-2.19036 3.82493,-3.87756 l 44.22881,-106.77753 c 1.15407,-2.78618 -0.2114,-5.79144 -2.8772,-6.94338 l 10e-6,-2e-5 c -22.1958,-9.19339 -45.48301,-18.83954 -65.46844,-27.11757 -2.71162,-1.12285 -5.81892,0.16196 -6.94102,2.86989 l -12.90953,31.1669 m 47.13241,8.86275 -19.63703,47.40773 c -0.37425,0.90299 0.0555,1.93875 0.95976,2.31314 0.90416,0.37435 1.33393,1.41005 0.9598,2.31303 -0.37418,0.90178 -1.409,1.32966 -2.31243,0.95614 -0.90427,-0.37434 -1.33404,-1.41004 -0.95989,-2.31305 0.37424,-0.90299 -0.0555,-1.93876 -0.95976,-2.31315 l -8.18385,-3.38978 c -0.90405,-0.37461 -1.94028,0.0538 -2.31423,0.95685 -0.37386,0.90311 -1.41011,1.33158 -2.31426,0.95693 -0.90428,-0.37435 -1.33405,-1.41004 -0.9599,-2.31306 0.37389,-0.90316 1.41025,-1.33163 2.31437,-0.95693 0.90408,0.37457 1.9402,-0.0539 2.31413,-0.95685 l 19.63592,-47.40531 0,0 c 0.56325,-1.35718 2.11181,-1.99579 3.47049,-1.4349 l 6.54551,2.7112 c 1.57928,0.65416 1.96806,2.19646 1.44137,3.46801 z m -45.5582,117.52243 c 0.37462,0.9031 -0.0541,1.93803 -0.95764,2.3117 -0.90348,0.37369 -1.33216,1.40862 -0.95742,2.31167 l 19.67907,47.4254 c 0.56392,1.35884 -0.0777,2.90651 -1.43679,3.4687 l -6.54408,2.70575 c -1.35971,0.56237 -2.90918,-0.0791 -3.47305,-1.43858 l -19.6792,-47.42534 c -0.37483,-0.90309 -1.4111,-1.33221 -2.31463,-0.95865 -0.9035,0.37348 -1.93976,-0.0557 -2.3146,-0.95873 -0.37461,-0.90311 0.0541,-1.93804 0.95765,-2.3117 0.90349,-0.37347 1.93972,0.0557 2.3145,0.9587 0.37478,0.90296 1.41087,1.33223 2.31446,0.95879 l 8.18198,-3.38311 c 0.90348,-0.3737 1.33222,-1.4085 0.95761,-2.3116 -0.37462,-0.90311 0.0541,-1.93804 0.95755,-2.31173 0.90349,-0.37348 1.93976,0.0556 2.31459,0.95873 z m -25.90732,13.76424 c 0.74923,1.8062 -0.1081,3.87597 -1.91512,4.62324 -1.80749,0.74815 -3.88105,-0.11021 -4.63077,-1.91705 -0.75002,-1.80664 0.10769,-3.87733 1.91552,-4.62448 1.80716,-0.7471 3.87961,0.11134 4.62923,1.91738 z m 20.28129,48.87651 c 0.74935,1.80616 -0.10792,3.87605 -1.91497,4.62341 -1.8075,0.74816 -3.88106,-0.1102 -4.63039,-1.91797 -0.74993,-1.8066 0.10774,-3.8772 1.91548,-4.62438 1.80703,-0.74705 3.87943,0.11126 4.62908,1.91721 z"
       id="rect16534-09-36-4-1-19-7-6-2-71-9-6"
       inkscape:connector-curvature="0"
       sodipodi:nodetypes="cccccccccccccccccccccccccccccscccccccccccccccccccccccsccccccccccccccccccccc" />
    <path
       style="opacity:1;fill:none;fill-opacity:1;stroke:#0000ff;stroke-width:0.03543307;stroke-linecap:round;stroke-miterlimit:4;stroke-dasharray:none;stroke-dashoffset:0;stroke-opacity:1"
       d="m 644.67811,264.42899 -7.3578,17.7633 c -0.73223,1.76777 -0.58479,3.63167 -0.006,5.37593 l 11.69256,28.17835 c 0.34647,0.83333 1.26465,1.2734 2.13144,1.02175 l -0.004,0.009 c 6.9294,-1.9978 14.25961,1.52565 17.02662,8.18419 2.75374,6.65792 0.068,14.31587 -6.24059,17.79424 l 0.0102,0.0172 c -0.79446,0.43217 -1.13459,1.39337 -0.7888,2.22912 l 12.9067,31.10447 c 1.1244,2.709 4.23298,3.99661 6.94361,2.87613 l 65.44514,-27.06005 c 2.71045,-1.12109 3.99642,-4.2257 2.87254,-6.93492 l -5.80218,-13.98278 c -1.12777,-2.71786 -4.22431,-4.00058 -6.94358,-2.87619 l -5.53047,2.2867 c -1.35973,0.56217 -2.90741,-0.0802 -3.47146,-1.43901 L 707.32146,280.1992 c -0.56124,-1.35277 0.0707,-2.89026 1.41759,-3.45895 l 20.30331,-8.39497 c 1.86937,-0.83535 2.99607,-2.19035 3.82493,-3.87755 L 777.0961,157.6902 c 1.15407,-2.78619 -0.2114,-5.79145 -2.87719,-6.94339 l 0,-2e-5 c -22.19579,-9.19339 -45.483,-18.83954 -65.46844,-27.11757 -2.71162,-1.12284 -5.81892,0.16196 -6.94102,2.8699 l -12.90135,31.14663 m 47.12424,8.88301 -19.63704,47.40773 c -0.37424,0.90299 0.0555,1.93876 0.95976,2.31315 0.90416,0.37435 1.33394,1.41004 0.9598,2.31302 -0.37418,0.90178 -1.409,1.32967 -2.31243,0.95615 -0.90427,-0.37434 -1.33404,-1.41005 -0.95989,-2.31306 0.37424,-0.90299 -0.0555,-1.93875 -0.95976,-2.31314 l -8.18385,-3.38978 c -0.90405,-0.37461 -1.94028,0.0538 -2.31422,0.95684 -0.37387,0.90311 -1.41012,1.33159 -2.31427,0.95694 -0.90428,-0.37435 -1.33405,-1.41005 -0.9599,-2.31307 0.37389,-0.90316 1.41024,-1.33162 2.31437,-0.95692 0.90408,0.37457 1.94021,-0.0539 2.31413,-0.95686 l 19.63592,-47.40531 0,0 c 0.56232,-1.35756 2.11181,-1.99578 3.47048,-1.43489 l 6.54552,2.7112 c 1.57928,0.65416 1.96807,2.19645 1.44138,3.468 z m -45.55821,117.52245 c 0.37461,0.90311 -0.0541,1.93805 -0.95764,2.31168 -0.90348,0.3737 -1.33216,1.40862 -0.95744,2.31172 l 19.67912,47.42528 c 0.56388,1.35893 -0.0777,2.90661 -1.43683,3.4688 l -6.54408,2.70575 c -1.35967,0.56228 -2.90913,-0.0792 -3.47305,-1.43858 L 677.10502,293.4105 c -0.37485,-0.90306 -1.41108,-1.33226 -2.31461,-0.9587 -0.90354,0.37357 -1.93977,-0.0556 -2.31461,-0.9587 -0.37461,-0.90311 0.0541,-1.93805 0.95764,-2.31168 0.9035,-0.37348 1.93972,0.0557 2.3145,0.9587 0.37477,0.90299 1.41088,1.3322 2.31447,0.95878 l 8.18198,-3.38312 c 0.90346,-0.37365 1.33222,-1.4085 0.9576,-2.3116 -0.37462,-0.90308 0.0541,-1.938 0.95753,-2.31168 0.90353,-0.37355 1.93976,0.0557 2.31461,0.95871 z m -25.90731,13.7642 c 0.74923,1.80619 -0.1081,3.87598 -1.91513,4.62328 -1.80749,0.74815 -3.88103,-0.11026 -4.63078,-1.91705 -0.75002,-1.80663 0.1077,-3.87734 1.91554,-4.62451 1.80715,-0.74707 3.87961,0.11133 4.62922,1.9174 z m 20.28127,48.87656 c 0.74936,1.80615 -0.10791,3.87605 -1.91497,4.62341 -1.80749,0.74815 -3.88102,-0.11029 -4.63039,-1.91797 -0.74993,-1.8066 0.10774,-3.8772 1.91552,-4.62448 1.80699,-0.74695 3.87939,0.11136 4.62908,1.91721 z"
       id="rect16534-09-36-4-1-19-7-6-2-71-9-2-2"
       inkscape:connector-curvature="0"
       sodipodi:nodetypes="ccccccccccccccccccccccccccccccccccccccccccccccccccccscccccccccccccccccccccc" />
    <path
       style="opacity:1;fill:none;fill-opacity:1;stroke:#0000ff;stroke-width:0.03543307;stroke-linecap:round;stroke-miterlimit:4;stroke-dasharray:none;stroke-dashoffset:0;stroke-opacity:1"
       d="m 468.29839,264.33862 -7.35812,17.76407 c -0.73223,1.76776 -0.58479,3.63166 -0.006,5.37594 l 11.69254,28.1784 c 0.34651,0.83323 1.26466,1.27339 2.13144,1.02174 l -0.004,0.009 c 6.92939,-1.99781 14.25964,1.52556 17.02665,8.1841 2.75375,6.65791 0.068,14.31595 -6.24059,17.79423 l 0.0102,0.0172 c -0.79446,0.43217 -1.13459,1.39338 -0.78883,2.22922 l 12.90674,31.10437 c 1.1244,2.709 4.23297,3.99661 6.9436,2.87613 l 65.44515,-27.06005 c 2.7104,-1.121 3.99637,-4.2256 2.87249,-6.93482 l -5.80218,-13.98278 c -1.12773,-2.71795 -4.2243,-4.00059 -6.94357,-2.87622 l -5.53044,2.28665 c -1.35977,0.56224 -2.90745,-0.0801 -3.47146,-1.43901 L 530.9417,280.1094 c -0.56121,-1.35284 0.0708,-2.89033 1.41761,-3.459 l 20.30332,-8.39499 c 1.86936,-0.83531 2.99605,-2.19029 3.82492,-3.87752 l 44.22881,-106.77753 c 1.15407,-2.78618 -0.2114,-5.79144 -2.87719,-6.94338 l 9.3e-4,3.6e-4 c -22.1958,-9.19339 -45.48301,-18.83954 -65.46845,-27.11757 -2.71161,-1.12285 -5.81892,0.16196 -6.94101,2.8699 l -12.89952,31.1422 m 47.1224,8.88744 -19.63703,47.40773 c -0.37425,0.90299 0.0555,1.93875 0.95975,2.31314 0.90417,0.37436 1.33394,1.41005 0.95981,2.31303 -0.37418,0.90178 -1.409,1.32967 -2.31243,0.95615 -0.90428,-0.37435 -1.33405,-1.41005 -0.9599,-2.31306 0.37425,-0.90299 -0.0555,-1.93876 -0.95975,-2.31315 l -8.18385,-3.38978 c -0.90406,-0.37461 -1.94029,0.0538 -2.31423,0.95685 -0.37386,0.90312 -1.41011,1.33159 -2.31426,0.95693 -0.90428,-0.37434 -1.33405,-1.41004 -0.9599,-2.31306 0.37388,-0.90315 1.41024,-1.33163 2.31437,-0.95693 0.90408,0.37457 1.9402,-0.0539 2.31412,-0.95684 l 19.63593,-47.40532 0,0 c 0.56324,-1.35718 2.11181,-1.99579 3.47048,-1.43489 l 6.54552,2.71119 c 1.57928,0.65416 1.96806,2.19646 1.44137,3.46801 z m -45.55819,117.52241 c 0.37458,0.90319 -0.0541,1.93812 -0.95764,2.31169 -0.90348,0.3737 -1.33217,1.40863 -0.95746,2.31177 l 19.67911,47.4253 c 0.56388,1.35893 -0.0777,2.90652 -1.43679,3.46871 l -6.54412,2.70584 c -1.35968,0.56228 -2.90914,-0.0792 -3.47305,-1.43858 l -19.67916,-47.42544 c -0.37487,-0.90299 -1.4111,-1.33221 -2.31463,-0.95864 -0.90354,0.37357 -1.93976,-0.0556 -2.3146,-0.95874 -0.37461,-0.9031 0.0541,-1.93803 0.95764,-2.31169 0.9035,-0.37348 1.93973,0.0557 2.31451,0.9587 0.37474,0.90305 1.41087,1.33222 2.31446,0.95879 l 8.18198,-3.38312 c 0.90344,-0.37361 1.33222,-1.4085 0.95761,-2.3116 -0.37466,-0.90301 0.054,-1.93794 0.95751,-2.31164 0.90353,-0.37357 1.93976,0.0557 2.31463,0.95865 z m -25.90732,13.76423 c 0.74923,1.80621 -0.1081,3.87598 -1.91516,4.62333 -1.80749,0.74816 -3.88101,-0.11029 -4.63039,-1.91797 -0.75002,-1.80664 0.10773,-3.87742 1.91556,-4.62457 1.80713,-0.747 3.87961,0.11134 4.62923,1.91738 z m 20.28125,48.87661 c 0.74936,1.80615 -0.10792,3.87605 -1.91493,4.62332 -1.8075,0.74815 -3.88106,-0.11021 -4.6304,-1.91797 -0.74996,-1.80652 0.10775,-3.87721 1.91549,-4.62439 1.80703,-0.74704 3.87942,0.11126 4.62908,1.91721 z"
       id="rect16534-09-36-4-1-19-7-6-2-71-9-7-6"
       inkscape:connector-curvature="0"
       sodipodi:nodetypes="cccccccccccccccccccccccccccccscccccccccccccccccccccccsccccccccccccccccccccc" />
    <path
       style="opacity:1;fill:none;fill-opacity:1;stroke:#0000ff;stroke-width:0.03543307;stroke-linecap:round;stroke-miterlimit:4;stroke-dasharray:none;stroke-dashoffset:0;stroke-opacity:1"
       d="m 380.10613,264.2966 -7.35672,17.76098 c -0.73223,1.76775 -0.58479,3.63165 -0.006,5.37594 l 11.69257,28.1783 c 0.34648,0.83332 1.26463,1.27349 2.13145,1.02174 l -0.004,0.009 c 6.92936,-1.99772 14.25961,1.52565 17.02662,8.18419 2.75374,6.65791 0.068,14.31587 -6.24059,17.79423 l 0.0102,0.0172 c -0.79446,0.43217 -1.13459,1.39338 -0.78884,2.22922 l 12.90674,31.10437 c 1.1244,2.709 4.23298,3.99662 6.9436,2.87614 l 65.44515,-27.06005 c 2.71041,-1.12101 3.99642,-4.2257 2.87254,-6.93492 l -5.80219,-13.98278 c -1.12776,-2.71786 -4.22429,-4.00059 -6.9436,-2.87613 l -5.53044,2.28665 c -1.35973,0.56215 -2.90742,-0.0802 -3.47147,-1.43901 l -20.24058,-48.77723 c -0.56125,-1.35275 0.0707,-2.89024 1.41757,-3.45891 l 20.30332,-8.39498 c 1.86936,-0.83532 2.99609,-2.19038 3.82492,-3.87753 l 44.22881,-106.77754 c 1.15408,-2.78618 -0.2114,-5.79145 -2.87719,-6.94339 l 10e-6,-2e-5 c -22.1958,-9.19339 -45.48301,-18.83954 -65.46845,-27.11757 -2.71161,-1.12285 -5.81892,0.16197 -6.94101,2.8699 l -12.89767,31.13825 m 47.12055,8.89139 -19.63703,47.40773 c -0.37425,0.90299 0.0555,1.93875 0.95975,2.31314 0.90417,0.37436 1.33394,1.41005 0.95981,2.31303 -0.37417,0.90175 -1.40901,1.3297 -2.31243,0.95615 -0.90428,-0.37435 -1.33404,-1.41005 -0.9599,-2.31306 0.37425,-0.90299 -0.0555,-1.93876 -0.95975,-2.31315 l -8.18385,-3.38977 c -0.90406,-0.37462 -1.94029,0.0538 -2.31423,0.95684 -0.37386,0.90311 -1.4101,1.33157 -2.31427,0.95694 -0.90427,-0.37434 -1.33404,-1.41005 -0.95989,-2.31306 0.37388,-0.90316 1.41024,-1.33164 2.31437,-0.95693 0.90408,0.37456 1.9402,-0.0539 2.31412,-0.95685 l 19.63593,-47.40531 0,0 c 0.56324,-1.35719 2.11181,-1.9958 3.47048,-1.4349 l 6.54552,2.7112 c 1.57928,0.65416 1.96806,2.19646 1.44137,3.468 z m -45.5582,117.52243 c 0.37462,0.9031 -0.0541,1.93812 -0.95764,2.31169 -0.90348,0.3737 -1.33216,1.40863 -0.95746,2.31177 l 19.67911,47.4253 c 0.56392,1.35884 -0.0777,2.90652 -1.43679,3.46871 l -6.54408,2.70575 c -1.35971,0.56237 -2.90917,-0.0791 -3.47309,-1.43849 l -19.67916,-47.42544 c -0.37487,-0.90299 -1.41109,-1.33221 -2.31463,-0.95864 -0.90354,0.37357 -1.93976,-0.0557 -2.3146,-0.95874 -0.37461,-0.9031 0.0541,-1.93803 0.95765,-2.31169 0.90349,-0.37348 1.93972,0.0557 2.3145,0.9587 0.37474,0.90305 1.41087,1.33223 2.31446,0.95879 l 8.18198,-3.38312 c 0.90348,-0.3737 1.33222,-1.4085 0.95761,-2.3116 -0.37462,-0.9031 0.0541,-1.93803 0.95751,-2.31164 0.90354,-0.37357 1.93976,0.0557 2.31463,0.95865 z m -25.90732,13.76423 c 0.74923,1.80621 -0.1081,3.87598 -1.91512,4.62324 -1.80749,0.74815 -3.88105,-0.1102 -4.63039,-1.91797 -0.75002,-1.80664 0.10769,-3.87733 1.91552,-4.62448 1.80717,-0.7471 3.87961,0.11134 4.62923,1.91738 z m 20.28129,48.87652 c 0.74932,1.80624 -0.10792,3.87605 -1.91497,4.62341 -1.80749,0.74815 -3.88106,-0.11021 -4.63078,-1.91705 -0.74992,-1.8066 0.10775,-3.8772 1.91549,-4.62439 1.80703,-0.74704 3.87942,0.11126 4.62908,1.91722 z"
       id="rect16534-09-36-4-1-19-7-6-2-71-9-0-1"
       inkscape:connector-curvature="0"
       sodipodi:nodetypes="cccccccccccccccccccccccccccccscccccccccccccccccccccccsccccccccccccccccccccc" />
    <path
       style="opacity:1;fill:none;fill-opacity:1;stroke:#0000ff;stroke-width:0.03543307;stroke-linecap:round;stroke-miterlimit:4;stroke-dasharray:none;stroke-dashoffset:0;stroke-opacity:1"
       d="m 291.91892,264.23979 -7.36139,17.77225 c -0.73223,1.76775 -0.58479,3.63165 -0.006,5.37594 l 11.69257,28.1783 c 0.34648,0.83332 1.26463,1.27349 2.13145,1.02174 l -0.004,0.009 c 6.9294,-1.99781 14.25961,1.52565 17.02662,8.18419 2.75374,6.65792 0.068,14.31587 -6.24059,17.79423 l 0.0102,0.0172 c -0.79445,0.43218 -1.13458,1.39338 -0.78879,2.22913 l 12.9067,31.10447 c 1.1244,2.709 4.23298,3.99661 6.9436,2.87613 l 65.44515,-27.06005 c 2.71045,-1.1211 3.99642,-4.2257 2.87254,-6.93492 l -5.80219,-13.98277 c -1.12777,-2.71787 -4.22429,-4.0006 -6.9436,-2.87614 l -5.53044,2.28665 c -1.35973,0.56215 -2.90742,-0.0802 -3.47147,-1.43901 l -20.24026,-48.77747 c -0.56125,-1.35276 0.0707,-2.89024 1.41757,-3.45892 l 20.30332,-8.39498 c 1.86936,-0.83531 2.99609,-2.19038 3.82492,-3.87753 l 44.22882,-106.77756 c 1.15408,-2.78618 -0.2114,-5.79145 -2.87719,-6.94339 l 1e-5,-2e-5 c -22.1958,-9.19338 -45.48301,-18.83953 -65.46845,-27.11757 -2.71161,-1.12285 -5.81892,0.16197 -6.94101,2.8699 l -12.90647,31.15949 m 47.12935,8.87015 -19.63706,47.40778 c -0.37422,0.90293 0.0555,1.93872 0.95979,2.31307 0.90415,0.3744 1.33392,1.4101 0.95979,2.31307 -0.37417,0.90175 -1.40898,1.32961 -2.31243,0.95615 -0.90428,-0.37435 -1.33404,-1.41005 -0.95988,-2.3131 0.37422,-0.90293 -0.0555,-1.93872 -0.95975,-2.31316 l -8.18385,-3.38976 c -0.90407,-0.37459 -1.94032,0.0539 -2.31426,0.95691 -0.37385,0.90308 -1.41009,1.33154 -2.31426,0.95692 -0.90427,-0.37435 -1.33404,-1.41005 -0.95988,-2.31311 0.37389,-0.90317 1.41023,-1.33159 2.31435,-0.95687 0.90411,0.37449 1.94022,-0.0539 2.31413,-0.95686 l 19.63593,-47.40534 0,0 c 0.56325,-1.35719 2.11181,-1.9958 3.47049,-1.4349 l 6.54552,2.7112 c 1.57928,0.65416 1.96806,2.19646 1.44137,3.468 z m -45.55821,117.52245 c 0.37462,0.9031 -0.0541,1.93803 -0.95764,2.31169 -0.90348,0.3737 -1.33216,1.40863 -0.95742,2.31168 l 19.67907,47.42539 c 0.56392,1.35884 -0.0777,2.90652 -1.43679,3.46871 l -6.54408,2.70575 c -1.35971,0.56237 -2.90917,-0.0791 -3.47305,-1.43858 l -19.6792,-47.42535 c -0.37483,-0.90308 -1.4111,-1.33221 -2.31459,-0.95873 -0.90354,0.37357 -1.9398,-0.0556 -2.31464,-0.95865 -0.37461,-0.9031 0.0541,-1.93803 0.95765,-2.31169 0.90349,-0.37347 1.93972,0.0557 2.3145,0.9587 0.37478,0.90296 1.41087,1.33223 2.31446,0.95879 l 8.18198,-3.38312 c 0.90348,-0.3737 1.33222,-1.40849 0.95761,-2.3116 -0.37462,-0.9031 0.0541,-1.93803 0.95755,-2.31173 0.9035,-0.37347 1.93976,0.0557 2.31459,0.95874 z m -25.90732,13.76423 c 0.74927,1.80612 -0.1081,3.87598 -1.91512,4.62324 -1.80749,0.74816 -3.88105,-0.1102 -4.63077,-1.91704 -0.75002,-1.80665 0.10769,-3.87734 1.91552,-4.62448 1.80717,-0.7471 3.87961,0.11134 4.62923,1.91738 z m 20.28129,48.87652 c 0.74936,1.80615 -0.10792,3.87605 -1.91497,4.62341 -1.80749,0.74815 -3.88102,-0.1103 -4.63039,-1.91797 -0.74993,-1.80661 0.10774,-3.8772 1.91548,-4.62439 1.80703,-0.74704 3.87943,0.11126 4.62912,1.91712 z"
       id="rect16534-09-36-4-1-19-7-6-2-71-9-9-8"
       inkscape:connector-curvature="0"
       sodipodi:nodetypes="cccccccccccccccccccccccccccccscccccccccccccccccccccccsccccccccccccccccccccc" />
    <path
       style="opacity:1;fill:none;fill-opacity:1;stroke:#0000ff;stroke-width:0.03543307;stroke-linecap:round;stroke-miterlimit:4;stroke-dasharray:none;stroke-dashoffset:0;stroke-opacity:1"
       d="m 203.72189,264.20435 -7.35717,17.76177 c -0.73223,1.76775 -0.58479,3.63165 -0.006,5.37589 l 11.69253,28.17839 c 0.34639,0.83328 1.26466,1.27339 2.13144,1.02174 l -0.004,0.009 c 6.9293,-1.99785 14.25951,1.52561 17.02653,8.18415 2.75374,6.65792 0.068,14.31587 -6.2406,17.79423 l 0.0102,0.0172 c -0.79442,0.43208 -1.13459,1.39338 -0.78879,2.22913 l 12.9067,31.10446 c 1.1244,2.709 4.23298,3.99662 6.9436,2.87614 l 65.44515,-27.06005 c 2.71044,-1.1211 3.99641,-4.2257 2.87253,-6.93492 l -5.80218,-13.98277 c -1.12777,-2.71787 -4.2243,-4.0006 -6.94357,-2.87623 l -5.53048,2.28674 c -1.35973,0.56215 -2.90741,-0.0802 -3.47146,-1.43901 l -20.24027,-48.77748 c -0.56125,-1.35275 0.0707,-2.89023 1.41758,-3.45891 l 20.30332,-8.39498 c 1.86939,-0.83541 2.99608,-2.19038 3.82495,-3.87762 l 44.22879,-106.77749 c 1.15408,-2.78618 -0.2114,-5.79144 -2.87719,-6.94339 l 9.3e-4,3.7e-4 c -22.19579,-9.19339 -45.48291,-18.8395 -65.46844,-27.11757 -2.71161,-1.12285 -5.81892,0.16196 -6.94102,2.86989 l -12.9065,31.15905 m 47.1294,8.87057 -19.63704,47.40773 c -0.37426,0.90302 0.0555,1.93881 0.95975,2.31316 0.90415,0.3744 1.33392,1.41011 0.95979,2.31307 -0.37417,0.90175 -1.40898,1.32962 -2.31243,0.95615 -0.90428,-0.37435 -1.33404,-1.41005 -0.95988,-2.3131 0.37426,-0.90302 -0.0555,-1.93872 -0.95975,-2.31316 l -8.18385,-3.38976 c -0.90407,-0.37458 -1.94028,0.0538 -2.31422,0.95682 -0.37389,0.90317 -1.41013,1.33163 -2.3143,0.95701 -0.90427,-0.37435 -1.33404,-1.41005 -0.95988,-2.31311 0.37389,-0.90316 1.41023,-1.33159 2.31439,-0.95696 0.90407,0.37458 1.94018,-0.0538 2.31409,-0.95677 l 19.63594,-47.40537 0,0 c 0.56232,-1.35754 2.1118,-1.99576 3.4705,-1.43492 l 6.5455,2.71123 c 1.57928,0.65416 1.96807,2.19645 1.44139,3.46798 z m -45.55823,117.52249 c 0.37462,0.9031 -0.0541,1.93803 -0.95764,2.31169 -0.90348,0.3737 -1.33216,1.40863 -0.95742,2.31168 l 19.6791,47.4253 c 0.56389,1.35894 -0.0777,2.90661 -1.43682,3.4688 l -6.54408,2.70575 c -1.35968,0.56228 -2.90914,-0.0792 -3.47305,-1.43858 l -19.6792,-47.42534 c -0.37483,-0.90309 -1.41106,-1.33231 -2.31459,-0.95874 -0.90354,0.37357 -1.93976,-0.0557 -2.31464,-0.95864 -0.37461,-0.90311 0.0541,-1.93813 0.95765,-2.3117 0.90349,-0.37347 1.93972,0.0557 2.3145,0.9587 0.37478,0.90296 1.41087,1.33223 2.31446,0.95879 l 8.18198,-3.38311 c 0.90348,-0.3737 1.33222,-1.4085 0.95761,-2.31161 -0.37462,-0.9031 0.0541,-1.93803 0.95755,-2.31173 0.90353,-0.37356 1.93976,0.0557 2.31459,0.95874 z m -25.90732,13.76424 c 0.74926,1.80611 -0.1081,3.87597 -1.91512,4.62324 -1.80749,0.74815 -3.88092,-0.11026 -4.63068,-1.91701 -0.75002,-1.80664 0.10769,-3.87734 1.91552,-4.62448 1.80717,-0.7471 3.87952,0.1113 4.62914,1.91734 z m 20.28129,48.87651 c 0.74936,1.80615 -0.10792,3.87605 -1.91497,4.62341 -1.80749,0.74815 -3.88102,-0.11029 -4.63039,-1.91797 -0.74993,-1.8066 0.10778,-3.87729 1.91552,-4.62448 1.80699,-0.74695 3.87939,0.11136 4.62908,1.91721 z"
       id="rect16534-09-36-4-1-19-7-6-2-71-9-9-3-7"
       inkscape:connector-curvature="0"
       sodipodi:nodetypes="cccccccccccccccccccccccccccccscccccccccccccccccccccccsccccccccccccccccccccc" />
    <path
       style="opacity:1;fill:none;fill-opacity:1;stroke:#0000ff;stroke-width:0.03543307;stroke-linecap:round;stroke-miterlimit:4;stroke-dasharray:none;stroke-dashoffset:0;stroke-opacity:1"
       d="m 115.53327,264.15118 -7.3603,17.76935 c -0.73226,1.76784 -0.58483,3.63174 -0.006,5.37594 l 11.69254,28.17839 c 0.34648,0.83332 1.26466,1.2734 2.13144,1.02174 l -0.004,0.009 c 6.92939,-1.99781 14.25964,1.52556 17.02666,8.1841 2.75374,6.65791 0.068,14.31596 -6.2406,17.79423 l 0.0102,0.0172 c -0.79446,0.43217 -1.13459,1.39338 -0.78883,2.22922 l 12.9067,31.10447 c 1.1244,2.709 4.23302,3.99652 6.94364,2.87604 l 65.44515,-27.06005 c 2.7104,-1.12101 3.99637,-4.22561 2.8725,-6.93483 l -5.80219,-13.98277 c -1.12777,-2.71787 -4.2243,-4.0006 -6.94357,-2.87623 l -5.53048,2.28674 c -1.35972,0.56215 -2.90741,-0.0802 -3.47146,-1.43901 L 178.1744,279.92724 c -0.56124,-1.35276 0.0707,-2.89024 1.41762,-3.45901 l 20.30328,-8.39489 c 1.86939,-0.83541 2.99608,-2.19038 3.82496,-3.87762 l 44.2288,-106.77752 c 1.15406,-2.78615 -0.2114,-5.79145 -2.87719,-6.94339 l 0,0 c -22.19581,-9.19337 -45.483,-18.83957 -65.46844,-27.11759 -2.71161,-1.12286 -5.81894,0.16202 -6.94103,2.86994 l -12.90332,31.15137 m 47.12621,8.87824 -19.63703,47.40773 c -0.37426,0.90302 0.0555,1.93872 0.95975,2.31316 0.90418,0.37431 1.33395,1.41001 0.95979,2.31306 -0.37417,0.90176 -1.40898,1.32962 -2.31239,0.95607 -0.90428,-0.37435 -1.33409,-1.40996 -0.95992,-2.31301 0.37426,-0.90302 -0.0555,-1.93872 -0.95975,-2.31316 l -8.18386,-3.38976 c -0.90407,-0.37459 -1.94027,0.0538 -2.31421,0.95682 -0.37389,0.90317 -1.41014,1.33163 -2.31426,0.95691 -0.90428,-0.37434 -1.33405,-1.41005 -0.95992,-2.31301 0.37389,-0.90317 1.41026,-1.33168 2.31439,-0.95696 0.90407,0.37458 1.94018,-0.0538 2.31413,-0.95686 l 19.6359,-47.40528 0,0 c 0.56232,-1.35755 2.1118,-1.99577 3.4705,-1.43492 l 6.5455,2.71123 c 1.57928,0.65416 1.96807,2.19644 1.44138,3.46798 z m -45.55853,117.52274 c 0.37461,0.9031 -0.0541,1.93803 -0.95764,2.31169 -0.90348,0.3737 -1.33213,1.40854 -0.95742,2.31168 l 19.6791,47.4253 c 0.56389,1.35893 -0.0777,2.90661 -1.43682,3.4688 l -6.54408,2.70575 c -1.35968,0.56228 -2.90914,-0.0792 -3.47305,-1.43858 l -19.6792,-47.42535 c -0.37484,-0.90308 -1.41106,-1.3323 -2.31459,-0.95873 -0.90354,0.37357 -1.93976,-0.0556 -2.3146,-0.95874 -0.37461,-0.9031 0.0541,-1.93803 0.9576,-2.3116 0.90354,-0.37357 1.93976,0.0557 2.31451,0.9587 0.37478,0.90296 1.41091,1.33213 2.31446,0.95879 l 8.18202,-3.38321 c 0.90344,-0.37361 1.33222,-1.4085 0.9576,-2.3116 -0.37465,-0.90301 0.054,-1.93794 0.95752,-2.31164 0.90353,-0.37357 1.93975,0.0557 2.31459,0.95874 z m -25.90728,13.76414 c 0.74922,1.80621 -0.1081,3.87598 -1.91516,4.62333 -1.80749,0.74816 -3.88101,-0.11029 -4.63077,-1.91704 -0.75002,-1.80665 0.10769,-3.87734 1.91556,-4.62457 1.80712,-0.74701 3.87961,0.11133 4.62919,1.91747 z m 20.28125,48.87661 c 0.74935,1.80615 -0.10792,3.87605 -1.91497,4.62341 -1.8075,0.74815 -3.88102,-0.1103 -4.63078,-1.91705 -0.74993,-1.8066 0.10778,-3.87729 1.91552,-4.62448 1.80704,-0.74704 3.87943,0.11126 4.62909,1.91722 z"
       id="rect16534-09-36-4-1-19-7-6-2-71-9-9-6-9"
       inkscape:connector-curvature="0"
       sodipodi:nodetypes="cccccccccccccccccccccccccccccscccccccccccccccccccccccsccccccccccccccccccccc" />
    <path
       style="opacity:1;fill:none;fill-opacity:1;stroke:#0000ff;stroke-width:0.03543307;stroke-linecap:round;stroke-miterlimit:4;stroke-dasharray:none;stroke-dashoffset:0;stroke-opacity:1"
       d="m 156.88102,150.42889 c -22.1958,-9.19337 -45.48299,-18.83957 -65.468432,-27.11759 -2.71161,-1.12286 -5.81891,0.16192 -6.94104,2.86994 L 19.981089,281.87499 c -0.732226,1.76775 -0.584788,3.63165 -0.0065,5.37594 l 11.692537,28.17839 c 0.346513,0.83323 1.264659,1.2734 2.131442,1.02175 l -0.0038,0.009 c 6.929398,-1.9978 14.259646,1.52556 17.026659,8.1841 2.753742,6.65792 0.068,14.31596 -6.240595,17.79423 l 0.01019,0.0172 c -0.794459,0.43217 -1.134588,1.39338 -0.788831,2.22922 l 12.9067,31.10447 c 1.124401,2.709 4.232978,3.99661 6.94364,2.87604 l 65.445149,-27.06005 c 2.7104,-1.121 3.99637,-4.22561 2.8725,-6.93483 l -5.80219,-13.98277 c -1.12773,-2.71796 -4.2243,-4.0006 -6.94357,-2.87623 l -5.53044,2.28665 c -1.35976,0.56224 -2.90745,-0.0801 -3.47146,-1.43901 L 89.982208,279.88171 c -0.56121,-1.35285 0.0708,-2.89033 1.41762,-3.45901 l 20.303322,-8.39498 c 1.86935,-0.83532 2.99604,-2.19029 3.82492,-3.87753 l 44.2288,-106.77752 c 1.15406,-2.78615 -0.2114,-5.79145 -2.87719,-6.94339 z m -38.18657,15.78196 -19.637032,47.40773 c -0.37426,0.90301 0.0555,1.93872 0.959742,2.31316 0.90419,0.37431 1.33396,1.41001 0.95983,2.31297 -0.37421,0.90185 -1.409012,1.32971 -2.312432,0.95616 -0.90428,-0.37435 -1.33404,-1.41005 -0.95992,-2.31302 0.37426,-0.90301 -0.0555,-1.93881 -0.95975,-2.31315 l -8.18385,-3.38976 c -0.90403,-0.37468 -1.94028,0.0538 -2.31422,0.95682 -0.37385,0.90308 -1.41009,1.33154 -2.314256,0.95691 -0.904278,-0.37434 -1.334045,-1.41005 -0.959918,-2.31301 0.373888,-0.90317 1.410264,-1.33168 2.314384,-0.95697 0.90407,0.37459 1.94019,-0.0538 2.31413,-0.95686 l 19.635912,-47.40527 0,0 c 0.56231,-1.35755 2.11183,-1.99586 3.4705,-1.43493 l 6.5455,2.71124 c 1.57928,0.65416 1.96807,2.19644 1.44138,3.46798 z M 73.136262,283.73324 c 0.374575,0.9032 -0.05411,1.93813 -0.957643,2.3117 -0.903482,0.3737 -1.332164,1.40863 -0.957458,2.31177 l 19.679107,47.4253 c 0.56388,1.35893 -0.0777,2.90652 -1.43679,3.46871 l -6.54412,2.70584 c -1.359673,0.56228 -2.909134,-0.0792 -3.473048,-1.43858 L 59.767151,293.09254 c -0.374874,-0.90299 -1.411098,-1.33221 -2.314633,-0.95864 -0.903536,0.37356 -1.939759,-0.0557 -2.314596,-0.95874 -0.374613,-0.9031 0.05407,-1.93803 0.957643,-2.31169 0.903498,-0.37348 1.939721,0.0557 2.314503,0.9587 0.374744,0.90304 1.410875,1.33222 2.314465,0.95879 l 8.181979,-3.38312 c 0.903443,-0.37361 1.332217,-1.4085 0.957604,-2.3116 -0.374651,-0.90301 0.05403,-1.93794 0.957512,-2.31164 0.903536,-0.37357 1.93976,0.0557 2.314634,0.95864 z m -25.907323,13.76424 c 0.749227,1.80621 -0.108099,3.87597 -1.915155,4.62333 -1.807493,0.74816 -3.881016,-0.11029 -4.630774,-1.91704 -0.75002,-1.80665 0.107727,-3.87743 1.91556,-4.62458 1.807126,-0.747 3.87961,0.11134 4.629229,1.91739 z m 20.28125,48.87661 c 0.749357,1.80615 -0.107914,3.87605 -1.914932,4.62332 -1.807493,0.74815 -3.881054,-0.11021 -4.630774,-1.91705 -0.749966,-1.80651 0.107742,-3.8772 1.915483,-4.62439 1.807034,-0.74704 3.879426,0.11126 4.629083,1.91721 z"
       id="rect16534-09-36-4-1-19-7-6-2-71-9-9-0-2"
       inkscape:connector-curvature="0"
       sodipodi:nodetypes="ccccccccccccccccccccccccccccscccccccccccccccccccccccscccccccccccccccccccc" />
    <path
       style="opacity:1;fill:none;fill-opacity:1;stroke:#0000ff;stroke-width:0.03543307;stroke-linecap:round;stroke-miterlimit:4;stroke-dasharray:none;stroke-dashoffset:0;stroke-opacity:1"
       d="m 253.59262,466.21478 7.36282,-17.77566 c 0.73222,-1.76775 0.58479,-3.63166 0.006,-5.37594 l -11.69257,-28.1783 c -0.34648,-0.83333 -1.26462,-1.27349 -2.13144,-1.02175 l 0.004,-0.009 c -6.92939,1.99781 -14.2596,-1.52564 -17.02662,-8.18418 -2.75374,-6.65792 -0.068,-14.31587 6.2406,-17.79424 l -0.0102,-0.0172 c 0.79446,-0.43217 1.13459,-1.39337 0.78883,-2.22921 L 224.2273,354.52492 c -1.1244,-2.709 -4.23298,-3.99661 -6.9436,-2.87613 m -65.44515,27.06005 c -2.71041,1.121 -3.99641,4.2257 -2.87254,6.93491 l 5.80219,13.98278 c 1.12777,2.71786 4.2243,4.0006 6.9436,2.87614 l 5.53045,-2.28666 c 1.35972,-0.56214 2.90741,0.0802 3.47146,1.43901 l 20.24027,48.77748 c 0.56124,1.35275 -0.0707,2.89024 -1.41758,3.45891 l -20.30332,8.39499 c -1.86935,0.83531 -2.99608,2.19038 -3.82492,3.87753 l -44.2288,106.77752 c -1.1541,2.78623 0.2114,5.79145 2.87719,6.94339 l -4e-5,9e-5 c 22.19581,9.19337 45.48304,18.83951 65.46848,27.11751 2.7116,1.1229 5.8189,-0.1619 6.94099,-2.8699 l 12.90953,-31.16684 m -47.13238,-8.86282 19.63703,-47.40774 c 0.37422,-0.90292 -0.0555,-1.93871 -0.95979,-2.31306 -0.90415,-0.3744 -1.33391,-1.41011 -0.95979,-2.31307 0.37417,-0.90175 1.40898,-1.32962 2.31243,-0.95615 0.90428,0.37434 1.33405,1.41005 0.95988,2.3131 -0.37422,0.90292 0.0555,1.93872 0.95975,2.31316 l 8.18386,3.38976 c 0.90407,0.37458 1.94031,-0.0539 2.31425,-0.95692 0.37385,-0.90307 1.4101,-1.33153 2.31426,-0.95691 0.90428,0.37435 1.33405,1.41005 0.95988,2.3131 -0.37389,0.90317 -1.41023,1.3316 -2.31435,0.95688 -0.90411,-0.37449 -1.94022,0.0539 -2.31413,0.95686 l -19.63594,47.40537 0,0 c -0.56232,1.35754 -2.1118,1.99576 -3.47046,1.43483 l -6.54554,-2.71114 c -1.57928,-0.65416 -1.96807,-2.19645 -1.44134,-3.46807 z m 45.55818,-117.5224 c -0.37461,-0.9031 0.0541,-1.93803 0.95764,-2.31169 0.90348,-0.3737 1.33217,-1.40863 0.95742,-2.31168 l -19.67906,-47.4254 c -0.56393,-1.35884 0.0777,-2.90651 1.43678,-3.4687 l 6.54409,-2.70575 c 1.35971,-0.56237 2.90917,0.0791 3.47304,1.43858 l 19.6792,47.42534 c 0.37484,0.90309 1.4111,1.33221 2.31463,0.95865 0.9035,-0.37348 1.93976,0.0556 2.3146,0.95873 0.37461,0.90311 -0.0541,1.93804 -0.95764,2.3117 -0.9035,0.37347 -1.93972,-0.0557 -2.31451,-0.9587 -0.37478,-0.90296 -1.41087,-1.33223 -2.31446,-0.95879 l -8.18198,3.38311 c -0.90348,0.3737 -1.33222,1.4085 -0.9576,2.3116 0.37461,0.90311 -0.0541,1.93804 -0.95756,2.31174 -0.90349,0.37347 -1.93975,-0.0557 -2.31459,-0.95874 z m 25.90732,-13.76424 c -0.74922,-1.8062 0.1081,-3.87597 1.91512,-4.62324 1.80749,-0.74815 3.88105,0.11021 4.63077,1.91705 0.75002,1.80664 -0.10768,3.87733 -1.91552,4.62448 -1.80716,0.7471 -3.87961,-0.11134 -4.62923,-1.91738 z m -20.28129,-48.87651 c -0.74935,-1.80616 0.10792,-3.87605 1.91497,-4.62341 1.8075,-0.74815 3.88106,0.1102 4.6304,1.91797 0.74992,1.8066 -0.10775,3.8772 -1.91549,4.62439 -1.80703,0.74704 -3.87942,-0.11127 -4.62908,-1.91722 z"
       id="rect16534-09-36-4-1-19-7-6-2-71-9-6-7"
       inkscape:connector-curvature="0"
       sodipodi:nodetypes="cccccccccccccccccccccccccccccscccccccccccccccccccccccsccccccccccccccccccccc" />
    <path
       style="opacity:1;fill:none;fill-opacity:1;stroke:#0000ff;stroke-width:0.03543307;stroke-linecap:round;stroke-miterlimit:4;stroke-dasharray:none;stroke-dashoffset:0;stroke-opacity:1"
       d="m 165.40994,466.15985 7.35782,-17.76334 c 0.73222,-1.76775 0.58478,-3.63165 0.006,-5.37585 l -11.6921,-28.17839 c -0.34648,-0.83332 -1.26466,-1.2734 -2.13145,-1.02174 l 0.004,-0.009 c -6.9294,1.99781 -14.25961,-1.52565 -17.02662,-8.18419 -2.75374,-6.65792 -0.068,-14.31587 6.2406,-17.79424 l -0.0102,-0.0172 c 0.79446,-0.43217 1.13458,-1.39337 0.78879,-2.22912 l -12.9067,-31.10447 c -1.1244,-2.709 -4.23298,-3.99661 -6.9436,-2.87613 m -65.445153,27.06005 c -2.710445,1.1211 -3.996414,4.2257 -2.872536,6.93492 l 5.802188,13.98277 c 1.127765,2.71787 4.224294,4.0006 6.943563,2.87623 l 5.530482,-2.28674 c 1.359727,-0.56215 2.907413,0.0802 3.471464,1.43901 l 20.240272,48.77747 c 0.56124,1.35276 -0.0707,2.89024 -1.41758,3.45892 l -20.303481,8.39473 c -1.869395,0.83541 -2.996086,2.19038 -3.824958,3.87762 L 32.991973,572.89859 c -1.154097,2.78624 0.211363,5.79154 2.877155,6.94348 l 0,0 c 22.195805,9.19337 45.483036,18.83947 65.468442,27.11757 2.71164,1.1228 5.81894,-0.162 6.94103,-2.8699 l 12.90137,-31.14668 m -47.124267,-8.88295 19.637035,-47.40773 c 0.37426,-0.90302 -0.0555,-1.93881 -0.95975,-2.31316 -0.90415,-0.3744 -1.33392,-1.4101 -0.95979,-2.31307 0.37417,-0.90175 1.40898,-1.32962 2.31243,-0.95615 0.90428,0.37435 1.33405,1.41005 0.95988,2.3131 -0.37426,0.90302 0.0555,1.93872 0.95975,2.31316 l 8.183852,3.38976 c 0.90407,0.37458 1.94028,-0.0538 2.31422,-0.95682 0.37389,-0.90317 1.41014,-1.33163 2.3143,-0.95701 0.90428,0.37435 1.33404,1.41005 0.95988,2.31311 -0.37389,0.90317 -1.41023,1.33159 -2.31439,0.95696 -0.90407,-0.37458 -1.94018,0.0538 -2.31409,0.95677 l -19.635942,47.40537 0,0 c -0.56232,1.35755 -2.111803,1.99577 -3.470502,1.43492 l -6.545502,-2.71123 c -1.579279,-0.65416 -1.968068,-2.19644 -1.441381,-3.46798 z M 119.61393,446.53762 c -0.37462,-0.9031 0.0541,-1.93803 0.95764,-2.31169 0.90348,-0.3737 1.33216,-1.40863 0.95742,-2.31168 l -19.6791,-47.4253 c -0.56389,-1.35893 0.0777,-2.90661 1.43682,-3.4688 l 6.54408,-2.70575 c 1.35968,-0.56228 2.90914,0.0792 3.47305,1.43858 l 19.6792,47.42534 c 0.37483,0.90309 1.41106,1.33231 2.31459,0.95874 0.90354,-0.37357 1.93976,0.0557 2.31464,0.95865 0.37461,0.9031 -0.0541,1.93812 -0.95765,2.31169 -0.90349,0.37347 -1.93972,-0.0557 -2.3145,-0.9587 -0.37478,-0.90296 -1.41087,-1.33223 -2.31446,-0.95879 l -8.18198,3.38312 c -0.90348,0.37369 -1.33222,1.40849 -0.95761,2.3116 0.37462,0.9031 -0.0541,1.93803 -0.95755,2.31173 -0.90353,0.37357 -1.93976,-0.0557 -2.31459,-0.95874 z m 25.90732,-13.76424 c -0.74926,-1.80611 0.1081,-3.87597 1.91512,-4.62324 1.80749,-0.74815 3.88101,0.1103 4.63077,1.91705 0.75002,1.80664 -0.10769,3.87734 -1.91552,4.62448 -1.80716,0.7471 -3.87961,-0.11134 -4.62923,-1.91738 z m -20.28129,-48.87651 c -0.74935,-1.80615 0.10792,-3.87605 1.91497,-4.62341 1.8075,-0.74815 3.88102,0.1103 4.63039,1.91797 0.74993,1.8066 -0.10774,3.8772 -1.91552,4.62448 -1.80699,0.74695 -3.87938,-0.11135 -4.62908,-1.91721 z"
       id="rect16534-09-36-4-1-19-7-6-2-71-9-2-2-3"
       inkscape:connector-curvature="0"
       sodipodi:nodetypes="ccccccccccccccccccccccccccccccccccccccccccccccccccccscccccccccccccccccccccc" />
    <path
       style="opacity:1;fill:none;fill-opacity:1;stroke:#0000ff;stroke-width:0.03543307;stroke-linecap:round;stroke-miterlimit:4;stroke-dasharray:none;stroke-dashoffset:0;stroke-opacity:1"
       d="m 341.78966,466.25023 7.35812,-17.76408 c 0.73223,-1.76775 0.58479,-3.63166 0.006,-5.37594 l -11.69254,-28.1784 c -0.34651,-0.83323 -1.26466,-1.27339 -2.13144,-1.02174 l 0.004,-0.009 c -6.9294,1.99781 -14.25965,-1.52555 -17.02666,-8.1841 -2.75374,-6.65791 -0.068,-14.31595 6.24059,-17.79423 l -0.0102,-0.0172 c 0.79446,-0.43217 1.13459,-1.39337 0.78883,-2.22921 l -12.90673,-31.10438 c -1.12441,-2.709 -4.23298,-3.99661 -6.94361,-2.87613 m -65.44514,27.06005 c -2.71041,1.121 -3.99638,4.22561 -2.8725,6.93482 l 5.80219,13.98278 c 1.12772,2.71795 4.22429,4.00059 6.94356,2.87622 l 5.53044,-2.28665 c 1.35977,-0.56224 2.90745,0.0801 3.47185,1.43809 l 20.2403,48.77738 c 0.56121,1.35285 -0.0708,2.89034 -1.41761,3.45901 l -20.30332,8.39498 c -1.86936,0.83532 -2.99605,2.19029 -3.82492,3.87753 l -44.22881,106.77752 c -1.15405,2.78615 0.21141,5.79145 2.8772,6.94339 l 0,0 c 22.1958,9.19337 45.483,18.8396 65.46843,27.1176 2.71161,1.1229 5.81891,-0.1619 6.941,-2.8698 l 12.89953,-31.14228 m -47.12239,-8.88748 19.63704,-47.40773 c 0.37425,-0.90302 -0.0555,-1.93872 -0.95975,-2.31316 -0.90419,-0.37431 -1.33396,-1.41001 -0.95983,-2.31297 0.37421,-0.90185 1.40902,-1.32971 2.31243,-0.95616 0.90428,0.37435 1.33404,1.41005 0.95992,2.31301 -0.37426,0.90302 0.0555,1.93882 0.95975,2.31316 l 8.18385,3.38976 c 0.90403,0.37468 1.94028,-0.0538 2.31422,-0.95682 0.37385,-0.90308 1.4101,-1.33154 2.31426,-0.95691 0.90428,0.37434 1.33404,1.41005 0.95992,2.31301 -0.37389,0.90317 -1.41027,1.33168 -2.31439,0.95696 -0.90407,-0.37458 -1.94019,0.0538 -2.31413,0.95686 l -19.63591,47.40528 0,0 c -0.56327,1.35726 -2.11183,1.99586 -3.47049,1.43492 l -6.54551,-2.71123 c -1.57928,-0.65416 -1.96806,-2.19644 -1.44138,-3.46798 z m 45.55819,-117.5224 c -0.37458,-0.90319 0.0541,-1.93812 0.95764,-2.31169 0.90348,-0.3737 1.33216,-1.40863 0.95746,-2.31177 l -19.67911,-47.4253 c -0.56388,-1.35893 0.0777,-2.90652 1.43679,-3.46871 l 6.54412,-2.70584 c 1.35967,-0.56228 2.90913,0.0792 3.47305,1.43858 l 19.67916,47.42544 c 0.37487,0.90299 1.4111,1.33221 2.31463,0.95864 0.90354,-0.37357 1.93976,0.0557 2.3146,0.95874 0.37461,0.9031 -0.0541,1.93803 -0.95765,2.31169 -0.90349,0.37348 -1.93972,-0.0557 -2.3145,-0.9587 -0.37474,-0.90305 -1.41087,-1.33223 -2.31446,-0.95879 l -8.18198,3.38312 c -0.90345,0.37361 -1.33222,1.4085 -0.95761,2.3116 0.37465,0.90301 -0.054,1.93794 -0.95751,2.31164 -0.90353,0.37357 -1.93976,-0.0557 -2.31463,-0.95865 z m 25.90732,-13.76423 c -0.74923,-1.80621 0.1081,-3.87598 1.91516,-4.62333 1.80749,-0.74816 3.88101,0.11029 4.63039,1.91797 0.75002,1.80664 -0.10773,3.87742 -1.91556,4.62457 -1.80713,0.747 -3.87961,-0.11134 -4.62923,-1.91738 z m -20.28125,-48.87661 c -0.74936,-1.80615 0.10791,-3.87605 1.91493,-4.62332 1.80749,-0.74815 3.88106,0.11021 4.63039,1.91797 0.74997,1.80652 -0.10774,3.87721 -1.91548,4.62439 -1.80703,0.74704 -3.87943,-0.11126 -4.62908,-1.91721 z"
       id="rect16534-09-36-4-1-19-7-6-2-71-9-7-6-6"
       inkscape:connector-curvature="0"
       sodipodi:nodetypes="cccccccccccccccccccccccccccccscccccccccccccccccccccccsccccccccccccccccccccc" />
    <path
       style="opacity:1;fill:none;fill-opacity:1;stroke:#0000ff;stroke-width:0.03543307;stroke-linecap:round;stroke-miterlimit:4;stroke-dasharray:none;stroke-dashoffset:0;stroke-opacity:1"
       d="m 429.98192,466.29224 7.35673,-17.76098 c 0.73222,-1.76775 0.58478,-3.63165 0.006,-5.37594 l -11.69257,-28.1783 c -0.34648,-0.83332 -1.26462,-1.27349 -2.13144,-1.02174 l 0.004,-0.009 c -6.92936,1.99772 -14.25961,-1.52565 -17.02662,-8.18419 -2.75374,-6.65791 -0.068,-14.31586 6.2406,-17.79423 l -0.0102,-0.0172 c 0.79446,-0.43217 1.13458,-1.39338 0.78883,-2.22922 l -12.90674,-31.10437 c -1.1244,-2.709 -4.23298,-3.99662 -6.9436,-2.87614 m -65.44515,27.06005 c -2.71041,1.12101 -3.99641,4.2257 -2.87254,6.93492 l 5.80219,13.98278 c 1.12777,2.71786 4.2243,4.00059 6.9436,2.87613 l 5.53045,-2.28665 c 1.35972,-0.56215 2.90741,0.0802 3.47184,1.43809 l 20.24027,48.77747 c 0.56125,1.35276 -0.0707,2.89024 -1.41758,3.45892 l -20.30332,8.39498 c -1.86935,0.83531 -2.99608,2.19038 -3.82492,3.87753 l -44.2288,106.77752 c -1.1541,2.78624 0.2114,5.79145 2.87719,6.94339 l 0,0 c 22.19577,9.19346 45.483,18.83948 65.46844,27.11758 2.71161,1.1228 5.8189,-0.162 6.94099,-2.8699 l 12.89767,-31.13818 m -47.12052,-8.89146 19.63703,-47.40773 c 0.37422,-0.90293 -0.0555,-1.93872 -0.95979,-2.31307 -0.90414,-0.3744 -1.33391,-1.4101 -0.95978,-2.31307 0.37416,-0.90175 1.40901,-1.32971 2.31242,-0.95615 0.90428,0.37435 1.33405,1.41005 0.95988,2.3131 -0.37422,0.90293 0.0555,1.93872 0.95979,2.31307 l 8.18382,3.38985 c 0.90407,0.37458 1.94031,-0.0539 2.31425,-0.95691 0.37385,-0.90308 1.4101,-1.33154 2.31426,-0.95692 0.90428,0.37435 1.33405,1.41005 0.95988,2.31311 -0.37389,0.90317 -1.41022,1.33159 -2.31435,0.95687 -0.90407,-0.37458 -1.94022,0.0539 -2.31412,0.95686 l -19.63595,47.40537 0,0 c -0.56324,1.35716 -2.1118,1.99577 -3.47046,1.43483 l -6.54554,-2.71114 c -1.57928,-0.65416 -1.96803,-2.19654 -1.44134,-3.46807 z M 384.1849,446.6717 c -0.37461,-0.9031 0.0541,-1.93812 0.95764,-2.31169 0.90349,-0.3737 1.33217,-1.40863 0.95746,-2.31177 l -19.6791,-47.42531 c -0.56392,-1.35883 0.0777,-2.90651 1.43678,-3.4687 l 6.54409,-2.70575 c 1.35971,-0.56237 2.90917,0.0791 3.47308,1.43849 l 19.67916,47.42543 c 0.37488,0.903 1.4111,1.33222 2.31464,0.95865 0.90353,-0.37357 1.93975,0.0557 2.31459,0.95874 0.37461,0.9031 -0.0541,1.93803 -0.95764,2.31169 -0.9035,0.37347 -1.93972,-0.0557 -2.3145,-0.9587 -0.37475,-0.90305 -1.41088,-1.33223 -2.31447,-0.95879 l -8.18198,3.38312 c -0.90348,0.37369 -1.33222,1.40849 -0.9576,2.3116 0.37461,0.9031 -0.0541,1.93803 -0.95752,2.31164 -0.90353,0.37356 -1.93975,-0.0557 -2.31463,-0.95865 z m 25.90732,-13.76424 c -0.74922,-1.8062 0.1081,-3.87597 1.91512,-4.62324 1.80749,-0.74815 3.88106,0.11021 4.63039,1.91798 0.75002,1.80664 -0.10769,3.87733 -1.91552,4.62447 -1.80716,0.7471 -3.87961,-0.11133 -4.62923,-1.91738 z m -20.28128,-48.87651 c -0.74932,-1.80625 0.10791,-3.87605 1.91497,-4.62341 1.80749,-0.74815 3.88105,0.1102 4.63077,1.91705 0.74993,1.8066 -0.10774,3.8772 -1.91548,4.62438 -1.80704,0.74705 -3.87943,-0.11126 -4.62909,-1.91721 z"
       id="rect16534-09-36-4-1-19-7-6-2-71-9-0-1-1"
       inkscape:connector-curvature="0"
       sodipodi:nodetypes="cccccccccccccccccccccccccccccscccccccccccccccccccccccsccccccccccccccccccccc" />
    <path
       style="opacity:1;fill:none;fill-opacity:1;stroke:#0000ff;stroke-width:0.03543307;stroke-linecap:round;stroke-miterlimit:4;stroke-dasharray:none;stroke-dashoffset:0;stroke-opacity:1"
       d="m 518.16913,466.34905 7.3614,-17.77225 c 0.73222,-1.76775 0.58479,-3.63165 0.006,-5.37594 l -11.69257,-28.1783 c -0.34648,-0.83332 -1.26462,-1.27349 -2.13144,-1.02174 l 0.004,-0.009 c -6.92939,1.99781 -14.25961,-1.52565 -17.02662,-8.18419 -2.75374,-6.65792 -0.068,-14.31587 6.2406,-17.79423 l -0.0102,-0.0172 c 0.79446,-0.43217 1.13458,-1.39338 0.78879,-2.22913 l -12.9067,-31.10446 c -1.1244,-2.709 -4.23298,-3.99662 -6.9436,-2.87614 m -65.44515,27.06005 c -2.71044,1.1211 -3.99641,4.2257 -2.87254,6.93492 l 5.80219,13.98278 c 1.12777,2.71786 4.2243,4.00059 6.9436,2.87613 l 5.53045,-2.28665 c 1.35972,-0.56215 2.90741,0.0802 3.47146,1.43901 l 20.24027,48.77748 c 0.56124,1.35275 -0.0707,2.89023 -1.41758,3.45891 l -20.30332,8.39498 c -1.86935,0.83532 -2.99608,2.19038 -3.82492,3.87753 l -44.2288,106.77752 c -1.1541,2.78624 0.2114,5.79145 2.87719,6.94339 l -4e-5,9e-5 c 22.19581,9.19337 45.48304,18.83953 65.46848,27.11753 2.7116,1.1228 5.8189,-0.1619 6.94099,-2.8699 l 12.90647,-31.15946 m -47.12936,-8.87013 19.63707,-47.40782 c 0.37422,-0.90292 -0.0555,-1.93872 -0.95979,-2.31307 -0.90415,-0.3744 -1.33391,-1.4101 -0.95979,-2.31306 0.37417,-0.90176 1.40898,-1.32962 2.31243,-0.95616 0.90428,0.37435 1.33405,1.41005 0.95988,2.31311 -0.37422,0.90292 0.0555,1.93871 0.95975,2.31315 l 8.18386,3.38976 c 0.90407,0.37459 1.94031,-0.0539 2.31425,-0.95691 0.37385,-0.90308 1.4101,-1.33154 2.31426,-0.95692 0.90428,0.37435 1.33404,1.41005 0.95988,2.31311 -0.37389,0.90317 -1.41023,1.33159 -2.31435,0.95687 -0.90411,-0.37449 -1.94022,0.0539 -2.31413,0.95686 l -19.63594,47.40537 0,0 c -0.56232,1.35755 -2.1118,1.99577 -3.47046,1.43483 l -6.54554,-2.71114 c -1.57928,-0.65416 -1.96807,-2.19644 -1.44138,-3.46798 z M 472.3764,446.71816 c -0.37461,-0.9031 0.0541,-1.93803 0.95764,-2.31169 0.90348,-0.3737 1.33217,-1.40863 0.95742,-2.31168 L 454.6124,394.6694 c -0.56393,-1.35884 0.0777,-2.90652 1.43678,-3.46871 l 6.54408,-2.70575 c 1.35972,-0.56237 2.90918,0.0791 3.47305,1.43858 l 19.6792,47.42535 c 0.37484,0.90308 1.4111,1.33221 2.31459,0.95873 0.90354,-0.37357 1.9398,0.0556 2.31464,0.95865 0.37461,0.9031 -0.0541,1.93803 -0.95764,2.31169 -0.9035,0.37348 -1.93973,-0.0557 -2.31451,-0.9587 -0.37478,-0.90295 -1.41087,-1.33223 -2.31446,-0.95879 l -8.18198,3.38312 c -0.90348,0.3737 -1.33222,1.4085 -0.95761,2.3116 0.37462,0.9031 -0.0541,1.93803 -0.95755,2.31173 -0.90349,0.37348 -1.93975,-0.0556 -2.31459,-0.95874 z m 25.90732,-13.76423 c -0.74926,-1.80612 0.1081,-3.87598 1.91512,-4.62324 1.80749,-0.74816 3.88105,0.1102 4.63077,1.91704 0.75002,1.80665 -0.10769,3.87734 -1.91552,4.62448 -1.80716,0.7471 -3.87961,-0.11134 -4.62923,-1.91738 z m -20.28129,-48.87652 c -0.74935,-1.80615 0.10792,-3.87605 1.91497,-4.62341 1.8075,-0.74815 3.88102,0.1103 4.6304,1.91797 0.74992,1.80661 -0.10775,3.87721 -1.91549,4.62439 -1.80703,0.74704 -3.87942,-0.11126 -4.62912,-1.91712 z"
       id="rect16534-09-36-4-1-19-7-6-2-71-9-9-8-2"
       inkscape:connector-curvature="0"
       sodipodi:nodetypes="cccccccccccccccccccccccccccccscccccccccccccccccccccccsccccccccccccccccccccc" />
    <path
       style="opacity:1;fill:none;fill-opacity:1;stroke:#0000ff;stroke-width:0.03543307;stroke-linecap:round;stroke-miterlimit:4;stroke-dasharray:none;stroke-dashoffset:0;stroke-opacity:1"
       d="m 606.36617,466.38449 7.35716,-17.76177 c 0.73223,-1.76775 0.58479,-3.63165 0.006,-5.37588 l -11.69254,-28.1784 c -0.34638,-0.83328 -1.26466,-1.27339 -2.13144,-1.02174 l 0.004,-0.009 c -6.9293,1.99785 -14.25951,-1.52561 -17.02652,-8.18415 -2.75375,-6.65792 -0.068,-14.31587 6.24059,-17.79423 l -0.0102,-0.0172 c 0.79442,-0.43208 1.13459,-1.39338 0.78879,-2.22913 l -12.9067,-31.10446 c -1.1244,-2.709 -4.23297,-3.99662 -6.9436,-2.87614 m -65.44515,27.06005 c -2.71044,1.1211 -3.99641,4.2257 -2.87253,6.93492 l 5.80219,13.98278 c 1.12776,2.71786 4.22429,4.00059 6.94356,2.87622 l 5.53048,-2.28674 c 1.35973,-0.56215 2.90741,0.0802 3.47147,1.43901 l 20.24026,48.77748 c 0.56125,1.35275 -0.0707,2.89024 -1.41757,3.45891 L 522.0011,462.47 c -1.8694,0.83541 -2.99609,2.19038 -3.82496,3.87762 l -44.22881,106.77753 c -1.15406,2.78614 0.2114,5.79144 2.8772,6.94338 l 0,0 c 22.1958,9.19337 45.48294,18.83941 65.46843,27.11751 2.71165,1.1228 5.81894,-0.162 6.94104,-2.8699 l 12.90649,-31.159 m -47.12939,-8.87057 19.63703,-47.40773 c 0.37426,-0.90301 -0.0555,-1.93881 -0.95975,-2.31316 -0.90414,-0.3744 -1.33391,-1.4101 -0.95978,-2.31306 0.37417,-0.90176 1.40897,-1.32962 2.31243,-0.95616 0.90427,0.37435 1.33404,1.41005 0.95987,2.31311 -0.37425,0.90301 0.0555,1.93871 0.95975,2.31315 l 8.18386,3.38976 c 0.90407,0.37459 1.94028,-0.0538 2.31422,-0.95682 0.37389,-0.90317 1.41013,-1.33163 2.31429,-0.95701 0.90428,0.37435 1.33405,1.41006 0.95988,2.31311 -0.37389,0.90317 -1.41022,1.33159 -2.31438,0.95697 -0.90407,-0.37459 -1.94019,0.0538 -2.31409,0.95676 l -19.63595,47.40537 0,0 c -0.56231,1.35755 -2.1118,1.99577 -3.4705,1.43493 l -6.5455,-2.71124 c -1.57928,-0.65416 -1.96807,-2.19644 -1.44138,-3.46798 z m 45.55822,-117.52249 c -0.37461,-0.9031 0.0541,-1.93803 0.95765,-2.31169 0.90348,-0.3737 1.33216,-1.40863 0.95742,-2.31168 l -19.67911,-47.4253 c -0.56388,-1.35893 0.0777,-2.90661 1.43682,-3.4688 l 6.54409,-2.70575 c 1.35967,-0.56228 2.90913,0.0792 3.47305,1.43858 l 19.67937,47.4251 c 0.37484,0.90308 1.41106,1.3323 2.3146,0.95873 0.90353,-0.37356 1.93976,0.0557 2.31463,0.95865 0.37462,0.9031 -0.0541,1.93812 -0.95764,2.31169 -0.9035,0.37348 -1.93972,-0.0557 -2.3145,-0.9587 -0.37479,-0.90295 -1.41088,-1.33223 -2.31447,-0.95879 l -8.18198,3.38312 c -0.90348,0.3737 -1.33221,1.4085 -0.9576,2.3116 0.37461,0.9031 -0.0541,1.93803 -0.95755,2.31173 -0.90354,0.37357 -1.93976,-0.0557 -2.3146,-0.95874 z m 25.90733,-13.76423 c -0.74927,-1.80612 0.1081,-3.87598 1.91511,-4.62324 1.8075,-0.74816 3.88093,0.11025 4.63068,1.91701 0.75002,1.80664 -0.10768,3.87733 -1.91552,4.62447 -1.80716,0.7471 -3.87952,-0.11129 -4.62913,-1.91734 z m -20.28129,-48.87652 c -0.74936,-1.80615 0.10791,-3.87605 1.91497,-4.62341 1.80749,-0.74815 3.88101,0.1103 4.63039,1.91797 0.74993,1.80661 -0.10778,3.8773 -1.91552,4.62448 -1.807,0.74695 -3.87939,-0.11135 -4.62908,-1.91721 z"
       id="rect16534-09-36-4-1-19-7-6-2-71-9-9-3-7-9"
       inkscape:connector-curvature="0"
       sodipodi:nodetypes="cccccccccccccccccccccccccccccscccccccccccccccccccccccsccccccccccccccccccccc" />
    <path
       style="opacity:1;fill:none;fill-opacity:1;stroke:#0000ff;stroke-width:0.03543307;stroke-linecap:round;stroke-miterlimit:4;stroke-dasharray:none;stroke-dashoffset:0;stroke-opacity:1"
       d="m 694.55478,466.43766 7.3603,-17.76935 c 0.73227,-1.76784 0.58483,-3.63174 0.006,-5.37594 l -11.69254,-28.17839 c -0.34648,-0.83332 -1.26466,-1.27339 -2.13144,-1.02174 l 0.004,-0.009 c -6.92939,1.99781 -14.25964,-1.52556 -17.02665,-8.1841 -2.75375,-6.65791 -0.068,-14.31596 6.24059,-17.79423 l -0.0102,-0.0172 c 0.79446,-0.43217 1.13459,-1.39338 0.78883,-2.22922 l -12.9067,-31.10446 c -1.1244,-2.709 -4.23301,-3.99653 -6.94364,-2.87605 m -65.44515,27.06005 c -2.7104,1.12101 -3.99637,4.22561 -2.87249,6.93483 l 5.80218,13.98278 c 1.12777,2.71786 4.2243,4.00059 6.94357,2.87622 l 5.53048,-2.28674 c 1.35973,-0.56215 2.90741,0.0802 3.47146,1.43901 l 20.24027,48.77748 c 0.56125,1.35275 -0.0707,2.89023 -1.41761,3.459 l -20.30329,8.39489 c -1.86939,0.83541 -2.99608,2.19038 -3.82495,3.87762 l -44.22881,106.77752 c -1.15406,2.78615 0.2114,5.79145 2.87719,6.94339 l 0,0 c 22.19581,9.19337 45.483,18.83951 65.46844,27.11751 2.71161,1.1229 5.81894,-0.162 6.94103,-2.8699 l 12.90332,-31.15133 m -47.12621,-8.87824 19.63703,-47.40773 c 0.37426,-0.90301 -0.0555,-1.93872 -0.95975,-2.31316 -0.90418,-0.37431 -1.33395,-1.41001 -0.95978,-2.31306 0.37416,-0.90176 1.40897,-1.32962 2.31238,-0.95607 0.90428,0.37435 1.33409,1.40996 0.95992,2.31302 -0.37426,0.90301 0.0555,1.93871 0.95975,2.31315 l 8.18386,3.38976 c 0.90407,0.37459 1.94027,-0.0538 2.31422,-0.95682 0.37388,-0.90317 1.41013,-1.33163 2.31425,-0.95691 0.90428,0.37434 1.33405,1.41005 0.95992,2.31301 -0.37389,0.90317 -1.41026,1.33168 -2.31439,0.95697 -0.90407,-0.37459 -1.94018,0.0538 -2.31412,0.95685 l -19.63591,47.40528 0,0 c -0.56232,1.35755 -2.1118,1.99577 -3.4705,1.43492 l -6.5455,-2.71123 c -1.57928,-0.65416 -1.96807,-2.19644 -1.44138,-3.46798 z m 45.55822,-117.52249 c -0.37461,-0.9031 0.0541,-1.93803 0.95764,-2.31169 0.90349,-0.3737 1.33213,-1.40854 0.95742,-2.31168 l -19.6791,-47.4253 c -0.56388,-1.35893 0.0777,-2.90661 1.43682,-3.4688 l 6.54409,-2.70575 c 1.35967,-0.56228 2.90913,0.0792 3.47304,1.43858 l 19.6792,47.42535 c 0.37484,0.90308 1.41106,1.3323 2.3146,0.95873 0.90353,-0.37357 1.93976,0.0557 2.31459,0.95874 0.37462,0.9031 -0.0541,1.93803 -0.9576,2.3116 -0.90354,0.37357 -1.93976,-0.0557 -2.31451,-0.9587 -0.37478,-0.90295 -1.41091,-1.33213 -2.31446,-0.95879 l -8.18202,3.38321 c -0.90344,0.37361 -1.33221,1.4085 -0.9576,2.3116 0.37465,0.90301 -0.054,1.93794 -0.95751,2.31164 -0.90354,0.37357 -1.93976,-0.0557 -2.3146,-0.95874 z m 25.90729,-13.76414 c -0.74923,-1.80621 0.10809,-3.87597 1.91515,-4.62333 1.80749,-0.74816 3.88102,0.11029 4.63078,1.91704 0.75001,1.80665 -0.10769,3.87734 -1.91557,4.62457 -1.80712,0.74701 -3.87961,-0.11133 -4.62919,-1.91747 z m -20.28125,-48.87661 c -0.74936,-1.80615 0.10791,-3.87605 1.91497,-4.62341 1.80749,-0.74815 3.88101,0.1103 4.63077,1.91705 0.74993,1.8066 -0.10778,3.87729 -1.91552,4.62448 -1.80703,0.74704 -3.87943,-0.11126 -4.62908,-1.91721 z"
       id="rect16534-09-36-4-1-19-7-6-2-71-9-9-6-9-3"
       inkscape:connector-curvature="0"
       sodipodi:nodetypes="cccccccccccccccccccccccccccccscccccccccccccccccccccccsccccccccccccccccccccc" />
    <path
       style="opacity:1;fill:none;fill-opacity:1;stroke:#0000ff;stroke-width:0.03543307;stroke-linecap:round;stroke-miterlimit:4;stroke-dasharray:none;stroke-dashoffset:0;stroke-opacity:1"
       d="m 680.99037,378.98332 c -2.7104,1.12101 -3.99637,4.22561 -2.87249,6.93483 l 5.80218,13.98277 c 1.12773,2.71796 4.2243,4.0006 6.94357,2.87623 l 5.53044,-2.28665 c 1.35977,-0.56224 2.90745,0.0801 3.47147,1.43901 l 20.2403,48.77738 c 0.56121,1.35285 -0.0708,2.89033 -1.41761,3.45901 l -20.30332,8.39498 c -1.86936,0.83532 -2.99605,2.19029 -3.82492,3.87753 l -44.22881,106.77752 c -1.15406,2.78615 0.2114,5.79145 2.87719,6.94339 l -9.2e-4,-3.8e-4 c 22.1958,9.19337 45.483,18.8396 65.46844,27.1176 2.7116,1.1228 5.8189,-0.1619 6.94103,-2.87 l 64.49046,-155.6937 c 0.73223,-1.76776 0.58479,-3.63166 0.006,-5.37595 L 778.42084,415.1585 c -0.34651,-0.83323 -1.26466,-1.27339 -2.13144,-1.02174 l 0.004,-0.009 c -6.9294,1.99781 -14.25965,-1.52556 -17.02666,-8.1841 -2.75375,-6.65791 -0.068,-14.31596 6.24059,-17.79423 l -0.0102,-0.0172 c 0.79446,-0.43217 1.13459,-1.39338 0.78883,-2.22922 l -12.9067,-31.10446 c -1.1244,-2.709 -4.23298,-3.99662 -6.94364,-2.87604 M 691.3937,564.37723 711.03074,516.9695 c 0.37426,-0.90302 -0.0555,-1.93872 -0.95975,-2.31316 -0.90419,-0.37431 -1.33395,-1.41001 -0.95983,-2.31298 0.37421,-0.90184 1.40902,-1.32971 2.31243,-0.95615 0.90428,0.37435 1.33405,1.41005 0.95992,2.31301 -0.37426,0.90302 0.0555,1.93881 0.95975,2.31316 l 8.18385,3.38976 c 0.90404,0.37467 1.94028,-0.0538 2.31422,-0.95683 0.37385,-0.90307 1.4101,-1.33153 2.31426,-0.95691 0.90428,0.37435 1.33404,1.41005 0.95992,2.31301 -0.37389,0.90317 -1.41027,1.33169 -2.31439,0.95697 -0.90407,-0.37459 -1.94018,0.0538 -2.31413,0.95686 l -19.6359,47.40527 0,0 c -0.56232,1.35755 -2.11184,1.99587 -3.4705,1.43493 l -6.5455,-2.71124 c -1.57928,-0.65415 -1.96807,-2.19644 -1.44139,-3.46797 z m 45.55819,-117.5224 c -0.37458,-0.90319 0.0541,-1.93812 0.95764,-2.31169 0.90348,-0.3737 1.33217,-1.40863 0.95746,-2.31177 l -19.6791,-47.42531 c -0.56389,-1.35893 0.0777,-2.90651 1.43678,-3.4687 l 6.54412,-2.70584 c 1.35968,-0.56228 2.90914,0.0792 3.47305,1.43858 l 19.67916,47.42543 c 0.37487,0.903 1.4111,1.33222 2.31463,0.95865 0.90354,-0.37357 1.93976,0.0557 2.3146,0.95873 0.37461,0.90311 -0.0541,1.93804 -0.95764,2.3117 -0.9035,0.37347 -1.93972,-0.0557 -2.31451,-0.9587 -0.37474,-0.90305 -1.41087,-1.33223 -2.31446,-0.95879 l -8.18198,3.38312 c -0.90344,0.3736 -1.33222,1.40849 -0.95761,2.3116 0.37466,0.90301 -0.054,1.93794 -0.95751,2.31163 -0.90353,0.37357 -1.93976,-0.0556 -2.31463,-0.95864 z m 25.90732,-13.76424 c -0.74922,-1.8062 0.1081,-3.87597 1.91516,-4.62333 1.80749,-0.74815 3.88101,0.1103 4.63039,1.91797 0.75002,1.80665 -0.10773,3.87743 -1.91556,4.62457 -1.80713,0.74701 -3.87961,-0.11133 -4.62923,-1.91738 z m -20.28125,-48.8766 c -0.74936,-1.80616 0.10792,-3.87605 1.91493,-4.62332 1.8075,-0.74815 3.88106,0.1102 4.63078,1.91705 0.74996,1.80651 -0.10774,3.8772 -1.91549,4.62438 -1.80703,0.74705 -3.87942,-0.11126 -4.62908,-1.91721 z"
       id="rect16534-09-36-4-1-19-7-6-2-71-9-9-0-2-1"
       inkscape:connector-curvature="0"
       sodipodi:nodetypes="cccccccccccccccccccccccccccscccccccccccccccccccccccsccccccccccccccccccccc" />
    <path
       style="opacity:1;fill:none;fill-opacity:1;stroke:#0000ff;stroke-width:0.03543307;stroke-linecap:round;stroke-miterlimit:4;stroke-dasharray:none;stroke-dashoffset:0;stroke-opacity:1"
       d="m 90.367812,670.52221 c -0.021,-3.9076 -3.17313,-7.0468 -7.08594,-7.0468 l -8.8535,0 -0.002,0 c -0.97756,0 -1.76944,-0.7939 -1.76952,-1.7715 l -0.002,-30.1192 c 0,-1.9632 -1.57997,-3.5429 -3.54297,-3.5429 l -46.0625,0 -0.002,0 c -1.9621,10e-4 -3.54141,1.5826 -3.54102,3.5449 l 0,17.7578 c 0.0229,0.9473 0.78705,1.7088 1.73438,1.7285 l 26.61328,0 c 0.97829,-10e-5 1.77138,-0.7932 1.77148,-1.7715 9e-5,-0.9775 0.79194,-1.7704 1.76953,-1.7715 0.97833,1e-4 1.7714,0.7932 1.77149,1.7715 -1e-4,0.9784 -0.79316,1.7714 -1.77149,1.7715 -0.97759,0.001 -1.76944,0.7939 -1.76953,1.7715 l 0,8.8594 c 9e-5,0.9776 0.79194,1.7703 1.76953,1.7715 0.9783,10e-5 1.77135,0.7931 1.77149,1.7714 -9e-5,0.9783 -0.79315,1.7715 -1.77149,1.7715 -0.97759,0 -1.76944,-0.7939 -1.76953,-1.7715 -1.4e-4,-0.9783 -0.79322,-1.7713 -1.77148,-1.7714 l -26.57422,0 c -0.97833,10e-5 -1.7714,0.7932 -1.77148,1.7715 -0.0453,108.8338 0,312.6932 0,312.6932 8e-5,0.9783 0.79315,1.7714 1.77148,1.7715 l 26.57422,0 c 0.9783,-10e-5 1.77139,-0.7932 1.77148,-1.7715 9e-5,-0.9776 0.79194,-1.7703 1.76953,-1.7715 0.97834,1e-4 1.7714,0.7932 1.77149,1.7715 -9e-5,0.9784 -0.79315,1.7714 -1.77149,1.7715 -0.97759,0 -1.76944,0.7939 -1.76953,1.7715 l 0,8.8593 c -9.6e-4,0.9783 0.79119,1.7724 1.76953,1.7735 0.97834,10e-5 1.7714,0.7932 1.77149,1.7715 -9e-5,0.9783 -0.79315,1.7714 -1.77149,1.7715 -0.97759,0 -1.76944,-0.7939 -1.76953,-1.7715 -9e-5,-0.9783 -0.79318,-1.7714 -1.77148,-1.7715 l -26.57813,0 c -0.96178,9e-4 -1.74719,0.769 -1.76953,1.7305 l 0,35.47259 c 0,1.963 1.57997,3.543 3.54297,3.543 l 46.0625,0 c 1.963,0 3.54297,-1.58 3.54297,-3.543 l 0.002,-47.83589 c 1.4e-4,-0.9775 0.792,-1.7703 1.76952,-1.7715 l 8.85546,0 c 3.91281,-6e-4 7.06484,-3.1393 7.08594,-7.0469 m -35.42581,-223.2265 c 2.93497,2e-4 5.31413,2.3796 5.31445,5.3145 -2.6e-4,2.935 -2.37944,5.3141 -5.31445,5.3144 -2.93575,0 -5.31615,-2.3786 -5.31641,-5.3144 3.2e-4,-2.9357 2.3807,-5.3153 5.31641,-5.3145 z m -0.01,205.3437 c 2.93497,3e-4 5.3142,2.3794 5.31446,5.3144 -3.2e-4,2.9349 -2.37953,5.3142 -5.31446,5.3145 -2.93571,8e-4 -5.31608,-2.3788 -5.3164,-5.3145 2.6e-4,-2.9358 2.38065,-5.3152 5.3164,-5.3144 z"
       id="rect10188-7-8-3-9-9-9-4-0-1-3"
       inkscape:connector-curvature="0"
       sodipodi:nodetypes="cscsccsccccccccccccccscccccccsccccccccscccsssccccccccccccccc" />
    <path
       style="opacity:1;fill:none;fill-opacity:1;stroke:#0000ff;stroke-width:0.03543307;stroke-linecap:round;stroke-miterlimit:4;stroke-dasharray:none;stroke-dashoffset:0;stroke-opacity:1"
       d="m 161.36195,631.58671 c 0,-1.963 -1.58192,-3.5449 -3.54492,-3.5449 l -10e-6,0.01 -46.06639,0 -0.002,0 c -1.963,0 -3.54297,1.5799 -3.54297,3.543 l 0.002,30.1328 c -0.008,0.973 -0.79849,1.7577 -1.77149,1.7578 l -8.982418,0 c -3.9128,0 -7.06484,3.1393 -7.08594,7.0469 l 0,302.1444 c 0.021,3.9076 3.17314,7.0469 7.08594,7.0469 l 8.980468,0 0.002,0 c 0.973,10e-5 1.76388,0.7848 1.77149,1.7578 l -0.002,47.84959 c 0,1.963 1.57997,3.543 3.54297,3.543 l 46.06835,0 c 1.963,0 3.54492,-1.58 3.54492,-3.543 m 0,-35.43159 c -9e-5,-0.9783 -0.79315,-1.7714 -1.77148,-1.7715 l -26.70506,0 c -0.9783,10e-5 -1.77139,0.7932 -1.77148,1.7715 -8e-5,0.9776 -0.79194,1.7703 -1.76953,1.7714 -0.97834,-10e-5 -1.7714,-0.793 -1.77149,-1.7714 9e-5,-0.9783 0.79315,-1.7715 1.77149,-1.7715 0.97759,0 1.76945,-0.7939 1.76953,-1.7715 l 0,-8.8594 c -8e-5,-0.9776 -0.79194,-1.7704 -1.76953,-1.7715 -0.9783,-10e-5 -1.77135,-0.7931 -1.77149,-1.7715 9e-5,-0.9783 0.79315,-1.7713 1.77149,-1.7714 0.97759,0 1.76945,0.7938 1.76953,1.7714 1.4e-4,0.9784 0.79322,1.7714 1.77148,1.7715 l 26.70311,0 c 0.97833,-10e-5 1.7714,-0.7932 1.77148,-1.7715 m 0.002,-154.0721 c -4e-4,-3.9141 -3.17384,-7.0867 -7.08789,-7.086 l -7.08593,0 c -9.78092,0 -17.70799,-7.9338 -17.70897,-17.7148 -1.3e-4,-9.7817 7.92726,-17.7126 17.70897,-17.7168 l 7.08593,0 c 3.91409,7e-4 7.08754,-3.1718 7.08789,-7.0859 m -0.002,-109.0176 c -8e-5,-0.9783 -0.79315,-1.7714 -1.77148,-1.7715 l -26.70311,-0.01 c -0.97829,10e-5 -1.77139,0.7932 -1.77148,1.7715 -1e-4,0.9775 -0.79194,1.7704 -1.76953,1.7715 -0.97833,0 -1.77139,-0.7932 -1.77149,-1.7715 9e-5,-0.9784 0.79316,-1.7714 1.77149,-1.7715 0.97759,-0.001 1.76943,-0.7938 1.76953,-1.7714 l 0,-8.8594 c -1e-4,-0.9776 -0.79194,-1.7703 -1.76953,-1.7715 -0.97833,-10e-5 -1.7714,-0.7931 -1.77149,-1.7715 1e-4,-0.9783 0.79316,-1.7714 1.77149,-1.7715 0.97759,0.001 1.76943,0.794 1.76953,1.7715 9e-5,0.9783 0.79319,1.7714 1.77148,1.7715 l 26.77537,0 c 0.94926,-0.038 1.69975,-0.8176 1.70117,-1.7676 m -35.56444,100.1447 c 2.93499,2e-4 5.31418,2.3792 5.31445,5.3145 -3.1e-4,2.935 -2.37949,5.3141 -5.31445,5.3144 -2.93493,-3e-4 -5.31414,-2.3795 -5.31445,-5.3144 2.7e-4,-2.9352 2.37948,-5.3142 5.31445,-5.3145 z m 0,205.3222 c 2.9357,-7e-4 5.3161,2.3787 5.31641,5.3144 7.9e-4,2.9365 -2.37993,5.3172 -5.31641,5.3164 -2.93571,-3e-4 -5.31524,-2.3807 -5.31445,-5.3164 3.1e-4,-2.9349 2.37952,-5.3141 5.31445,-5.3144 z"
       id="rect10188-7-8-3-9-9-9-0-4-3-7-9"
       inkscape:connector-curvature="0"
       sodipodi:nodetypes="ccccscccsccsccccsscccccccscccccccccccscccccccccccccccccccccccccccccc" />
    <path
       style="opacity:1;fill:none;fill-opacity:1;stroke:#0000ff;stroke-width:0.03543307;stroke-linecap:round;stroke-miterlimit:4;stroke-dasharray:none;stroke-dashoffset:0;stroke-opacity:1"
       d="m 303.23293,649.34451 c -0.0229,0.9473 -0.78705,1.7088 -1.73438,1.7285 l -26.61328,0 c -0.97829,-10e-5 -1.77138,-0.7932 -1.77148,-1.7715 -9e-5,-0.9775 -0.79194,-1.7704 -1.76953,-1.7715 -0.97833,1e-4 -1.7714,0.7932 -1.77149,1.7715 1e-4,0.9784 0.79316,1.7714 1.77149,1.7715 0.97759,0.001 1.76944,0.7939 1.76953,1.7715 l 0,8.8594 c -9e-5,0.9776 -0.79194,1.7703 -1.76953,1.7715 -0.9783,10e-5 -1.77135,0.7931 -1.77149,1.7714 9e-5,0.9783 0.79315,1.7715 1.77149,1.7715 0.97759,0 1.76944,-0.7939 1.76953,-1.7715 1.4e-4,-0.9783 0.79322,-1.7713 1.77148,-1.7714 l 26.57422,0 c 0.97833,10e-5 1.7714,0.7932 1.77148,1.7715 m 0,312.6932 c -8e-5,0.9783 -0.79315,1.7714 -1.77148,1.7715 l -26.57422,0 c -0.9783,-10e-5 -1.77139,-0.7932 -1.77148,-1.7715 -9e-5,-0.9776 -0.79194,-1.7703 -1.76953,-1.7715 -0.97834,1e-4 -1.7714,0.7932 -1.77149,1.7715 9e-5,0.9784 0.79315,1.7714 1.77149,1.7715 0.97759,0 1.76944,0.7939 1.76953,1.7715 l 0,8.8593 c 9.6e-4,0.9783 -0.79119,1.7724 -1.76953,1.7735 -0.97834,10e-5 -1.7714,0.7932 -1.77149,1.7715 9e-5,0.9783 0.79315,1.7714 1.77149,1.7715 0.97759,0 1.76944,-0.7939 1.76953,-1.7715 9e-5,-0.9783 0.79318,-1.7714 1.77148,-1.7715 l 26.57813,0 c 0.96178,9e-4 1.74719,0.769 1.76953,1.7305 m 0,35.47259 c 0,1.963 -1.57997,3.543 -3.54297,3.543 l -46.0625,0 c -1.963,0 -3.54297,-1.58 -3.54297,-3.543 l -0.002,-47.83589 c -1.4e-4,-0.9775 -0.792,-1.7703 -1.76953,-1.7715 l -8.85546,0 c -3.91281,-6e-4 -7.06484,-3.1393 -7.08594,-7.0469 l 0,-302.1425 c 0.021,-3.9076 3.17313,-7.0468 7.08594,-7.0468 l 8.8535,0 0.002,0 c 0.97757,0 1.76945,-0.7939 1.76953,-1.7715 l 0.002,-30.1192 c 0,-1.9632 1.57997,-3.5429 3.54297,-3.5429 l 46.0625,0 0.002,0 c 1.9621,10e-4 3.54141,1.5826 3.54102,3.5449 m -35.43555,117.8515 c -2.93497,2e-4 -5.31413,2.3796 -5.31445,5.3145 2.6e-4,2.935 2.37944,5.3141 5.31445,5.3144 2.93575,0 5.31615,-2.3786 5.31641,-5.3144 -3.2e-4,-2.9357 -2.3807,-5.3153 -5.31641,-5.3145 z m 0.01,205.3437 c -2.93497,3e-4 -5.3142,2.3794 -5.31446,5.3144 3.2e-4,2.9349 2.37953,5.3142 5.31446,5.3145 2.93571,8e-4 5.31608,-2.3788 5.3164,-5.3145 -2.6e-4,-2.9358 -2.38065,-5.3152 -5.3164,-5.3144 z"
       id="rect10188-7-8-3-9-9-9-4-0-2-0"
       inkscape:connector-curvature="0"
       sodipodi:nodetypes="cccccccccccscccccccsccccccccsccccssccccccscsccsccccccccccccc" />
    <path
       style="opacity:1;fill:none;fill-opacity:1;stroke:#0000ff;stroke-width:0.03543307;stroke-linecap:round;stroke-miterlimit:4;stroke-dasharray:none;stroke-dashoffset:0;stroke-opacity:1"
       d="m 232.37156,972.67271 c -0.021,3.9076 -3.17314,7.0469 -7.08593,7.0469 l -8.98047,0 -0.002,0 c -0.973,10e-5 -1.76388,0.7848 -1.77149,1.7578 l 0.002,47.84959 c 0,1.963 -1.57997,3.543 -3.54297,3.543 l -46.06835,0 c -1.963,0 -3.54492,-1.58 -3.54492,-3.543 l 0,-35.43159 c 9e-5,-0.9783 0.79315,-1.7714 1.77148,-1.7715 l 26.70507,0 c 0.9783,10e-5 1.77139,0.7932 1.77148,1.7715 8e-5,0.9776 0.79194,1.7703 1.76953,1.7714 0.97834,-1e-4 1.7714,-0.793 1.77149,-1.7714 -9e-5,-0.9783 -0.79315,-1.7715 -1.77149,-1.7715 -0.97759,0 -1.76945,-0.7939 -1.76953,-1.7715 l 0,-8.8594 c 8e-5,-0.9776 0.79194,-1.7704 1.76953,-1.7715 0.9783,-10e-5 1.77135,-0.7931 1.77149,-1.7715 -9e-5,-0.9783 -0.79315,-1.7713 -1.77149,-1.7714 -0.97759,0 -1.76945,0.7938 -1.76953,1.7714 -1.4e-4,0.9784 -0.79322,1.7714 -1.77148,1.7715 l -26.70312,0 c -0.97833,-10e-5 -1.7714,-0.7932 -1.77148,-1.7715 l -0.002,-154.0721 c 4e-4,-3.9141 3.17384,-7.0867 7.08789,-7.086 l 7.08593,0 c 9.78093,0 17.708,-7.9338 17.70898,-17.7148 1.3e-4,-9.7817 -7.92726,-17.7126 -17.70898,-17.7168 l -7.08593,0 c -3.91409,7e-4 -7.08754,-3.1718 -7.08789,-7.0859 -0.0184,-37.7057 0.002,-109.0176 0.002,-109.0176 8e-5,-0.9783 0.79315,-1.7714 1.77148,-1.7715 l 26.70312,-0.01 c 0.97829,10e-5 1.77139,0.7932 1.77148,1.7715 1e-4,0.9775 0.79194,1.7704 1.76953,1.7715 0.97833,0 1.77139,-0.7932 1.77149,-1.7715 -9e-5,-0.9784 -0.79316,-1.7714 -1.77149,-1.7715 -0.97759,0 -1.76943,-0.7938 -1.76953,-1.7714 l 0,-8.8594 c 1e-4,-0.9776 0.79194,-1.7703 1.76953,-1.7715 0.97833,-10e-5 1.7714,-0.7931 1.77149,-1.7715 -1e-4,-0.9783 -0.79316,-1.7714 -1.77149,-1.7715 -0.97759,0.001 -1.76943,0.794 -1.76953,1.7715 -9e-5,0.9783 -0.79319,1.7714 -1.77148,1.7715 l -26.77538,0 c -0.94926,-0.038 -1.69975,-0.8176 -1.70117,-1.7676 l 0,-17.7187 c 0,-1.963 1.58192,-3.5449 3.54492,-3.5449 l 1e-5,0.01 46.06639,0 0.002,0 c 1.963,0 3.54297,1.5799 3.54297,3.543 l -0.002,30.1328 c 0.008,0.973 0.79849,1.7577 1.77149,1.7578 l 8.98242,0 c 3.91279,0 7.06483,3.1393 7.08593,7.0469 m -35.42968,78.9218 c -2.93499,2e-4 -5.31418,2.3792 -5.31445,5.3145 3.1e-4,2.935 2.37949,5.3141 5.31445,5.3144 2.93493,-3e-4 5.31414,-2.3795 5.31445,-5.3144 -2.7e-4,-2.9352 -2.37948,-5.3142 -5.31445,-5.3145 z m 0,205.3222 c -2.9357,-7e-4 -5.3161,2.3787 -5.31641,5.3144 -7.9e-4,2.9365 2.37993,5.3172 5.31641,5.3164 2.93571,-3e-4 5.31524,-2.3807 5.31445,-5.3164 -3.1e-4,-2.9349 -2.37952,-5.3141 -5.31445,-5.3144 z"
       id="rect10188-7-8-3-9-9-9-0-4-3-72-8"
       inkscape:connector-curvature="0"
       sodipodi:nodetypes="csccccsssccccccscccccccccccsccccccccccccccccccccscccscccsccccccccccc" />
    <path
       style="opacity:1;fill:none;fill-opacity:1;stroke:#0000ff;stroke-width:0.03543307;stroke-linecap:round;stroke-miterlimit:4;stroke-dasharray:none;stroke-dashoffset:0;stroke-opacity:1"
       d="m 374.13075,670.52221 c -0.021,-3.9076 -3.17313,-7.0468 -7.08594,-7.0468 l -8.8535,0 -0.002,0 c -0.97756,0 -1.76944,-0.7939 -1.76952,-1.7715 l -0.002,-30.1192 c 0,-1.9632 -1.57997,-3.5429 -3.54297,-3.5429 l -46.0625,0 -0.002,0 c -1.9621,10e-4 -3.54141,1.5826 -3.54102,3.5449 l 0,17.7578 c 0.0229,0.9473 0.78705,1.7088 1.73438,1.7285 l 26.61328,0 c 0.97829,-10e-5 1.77138,-0.7932 1.77148,-1.7715 9e-5,-0.9775 0.79194,-1.7704 1.76953,-1.7715 0.97833,1e-4 1.7714,0.7932 1.77149,1.7715 -1e-4,0.9784 -0.79316,1.7714 -1.77149,1.7715 -0.97759,0.001 -1.76944,0.7939 -1.76953,1.7715 l 0,8.8594 c 9e-5,0.9776 0.79194,1.7703 1.76953,1.7715 0.9783,10e-5 1.77135,0.7931 1.77149,1.7714 -9e-5,0.9783 -0.79315,1.7715 -1.77149,1.7715 -0.97759,0 -1.76944,-0.7939 -1.76953,-1.7715 -1.4e-4,-0.9783 -0.79322,-1.7713 -1.77148,-1.7714 l -26.57422,0 c -0.97833,10e-5 -1.7714,0.7932 -1.77148,1.7715 -0.0453,108.8338 0,312.6932 0,312.6932 8e-5,0.9783 0.79315,1.7714 1.77148,1.7715 l 26.57422,0 c 0.9783,-10e-5 1.77139,-0.7932 1.77148,-1.7715 9e-5,-0.9776 0.79194,-1.7703 1.76953,-1.7715 0.97834,1e-4 1.7714,0.7932 1.77149,1.7715 -9e-5,0.9784 -0.79315,1.7714 -1.77149,1.7715 -0.97759,0 -1.76944,0.7939 -1.76953,1.7715 l 0,8.8593 c -9.6e-4,0.9783 0.79119,1.7724 1.76953,1.7735 0.97834,10e-5 1.7714,0.7932 1.77149,1.7715 -9e-5,0.9783 -0.79315,1.7714 -1.77149,1.7715 -0.97759,0 -1.76944,-0.7939 -1.76953,-1.7715 -9e-5,-0.9783 -0.79318,-1.7714 -1.77148,-1.7715 l -26.57813,0 c -0.96178,9e-4 -1.74719,0.769 -1.76953,1.7305 l 0,35.47259 c 0,1.963 1.57997,3.543 3.54297,3.543 l 46.0625,0 c 1.963,0 3.54297,-1.58 3.54297,-3.543 l 0.002,-47.83589 c 1.4e-4,-0.9775 0.792,-1.7703 1.76952,-1.7715 l 8.85546,0 c 3.91281,-6e-4 7.06484,-3.1393 7.08594,-7.0469 m -35.42581,-223.2265 c 2.93497,2e-4 5.31413,2.3796 5.31445,5.3145 -2.6e-4,2.935 -2.37944,5.3141 -5.31445,5.3144 -2.93575,0 -5.31615,-2.3786 -5.31641,-5.3144 3.2e-4,-2.9357 2.3807,-5.3153 5.31641,-5.3145 z m -0.01,205.3437 c 2.93497,3e-4 5.3142,2.3794 5.31446,5.3144 -3.2e-4,2.9349 -2.37953,5.3142 -5.31446,5.3145 -2.93571,8e-4 -5.31608,-2.3788 -5.3164,-5.3145 2.6e-4,-2.9358 2.38065,-5.3152 5.3164,-5.3144 z"
       id="rect10188-7-8-3-9-9-9-4-0-1-3-5"
       inkscape:connector-curvature="0"
       sodipodi:nodetypes="cscsccsccccccccccccccscccccccsccccccccscccsssccccccccccccccc" />
    <path
       style="opacity:1;fill:none;fill-opacity:1;stroke:#0000ff;stroke-width:0.03543307;stroke-linecap:round;stroke-miterlimit:4;stroke-dasharray:none;stroke-dashoffset:0;stroke-opacity:1"
       d="m 445.12489,631.58671 c 0,-1.963 -1.58192,-3.5449 -3.54492,-3.5449 l -10e-6,0.01 -46.06639,0 -0.002,0 c -1.963,0 -3.54297,1.5799 -3.54297,3.543 l 0.002,30.1328 c -0.008,0.973 -0.79849,1.7577 -1.77149,1.7578 l -8.98242,0 c -3.9128,0 -7.06484,3.1393 -7.08594,7.0469 l 0,302.1444 c 0.021,3.9076 3.17314,7.0469 7.08594,7.0469 l 8.98047,0 0.002,0 c 0.973,10e-5 1.76388,0.7848 1.77149,1.7578 l -0.002,47.84959 c 0,1.963 1.57997,3.543 3.54297,3.543 l 46.06835,0 c 1.963,0 3.54492,-1.58 3.54492,-3.543 m 0,-35.43159 c -9e-5,-0.9783 -0.79315,-1.7714 -1.77148,-1.7715 l -26.70506,0 c -0.9783,10e-5 -1.77139,0.7932 -1.77148,1.7715 -8e-5,0.9776 -0.79194,1.7703 -1.76953,1.7714 -0.97834,-10e-5 -1.7714,-0.793 -1.77149,-1.7714 9e-5,-0.9783 0.79315,-1.7715 1.77149,-1.7715 0.97759,0 1.76945,-0.7939 1.76953,-1.7715 l 0,-8.8594 c -8e-5,-0.9776 -0.79194,-1.7704 -1.76953,-1.7715 -0.9783,-10e-5 -1.77135,-0.7931 -1.77149,-1.7715 9e-5,-0.9783 0.79315,-1.7713 1.77149,-1.7714 0.97759,0 1.76945,0.7938 1.76953,1.7714 1.4e-4,0.9784 0.79322,1.7714 1.77148,1.7715 l 26.70311,0 c 0.97833,-10e-5 1.7714,-0.7932 1.77148,-1.7715 m 0.002,-154.0721 c -4e-4,-3.9141 -3.17384,-7.0867 -7.08789,-7.086 l -7.08593,0 c -9.78092,0 -17.70799,-7.9338 -17.70897,-17.7148 -1.3e-4,-9.7817 7.92726,-17.7126 17.70897,-17.7168 l 7.08593,0 c 3.91409,7e-4 7.08754,-3.1718 7.08789,-7.0859 m -0.002,-109.0176 c -8e-5,-0.9783 -0.79315,-1.7714 -1.77148,-1.7715 l -26.70311,-0.01 c -0.97829,10e-5 -1.77139,0.7932 -1.77148,1.7715 -10e-5,0.9775 -0.79194,1.7704 -1.76953,1.7715 -0.97833,0 -1.77139,-0.7932 -1.77149,-1.7715 9e-5,-0.9784 0.79316,-1.7714 1.77149,-1.7715 0.97759,-0.001 1.76943,-0.7938 1.76953,-1.7714 l 0,-8.8594 c -10e-5,-0.9776 -0.79194,-1.7703 -1.76953,-1.7715 -0.97833,-10e-5 -1.7714,-0.7931 -1.77149,-1.7715 1e-4,-0.9783 0.79316,-1.7714 1.77149,-1.7715 0.97759,0.001 1.76943,0.794 1.76953,1.7715 9e-5,0.9783 0.79319,1.7714 1.77148,1.7715 l 26.77537,0 c 0.94926,-0.038 1.69975,-0.8176 1.70117,-1.7676 m -35.56444,100.1447 c 2.93499,2e-4 5.31418,2.3792 5.31445,5.3145 -3.1e-4,2.935 -2.37949,5.3141 -5.31445,5.3144 -2.93493,-3e-4 -5.31414,-2.3795 -5.31445,-5.3144 2.7e-4,-2.9352 2.37948,-5.3142 5.31445,-5.3145 z m 0,205.3222 c 2.9357,-7e-4 5.3161,2.3787 5.31641,5.3144 7.9e-4,2.9365 -2.37993,5.3172 -5.31641,5.3164 -2.93571,-3e-4 -5.31524,-2.3807 -5.31445,-5.3164 3.1e-4,-2.9349 2.37952,-5.3141 5.31445,-5.3144 z"
       id="rect10188-7-8-3-9-9-9-0-4-3-7-9-0"
       inkscape:connector-curvature="0"
       sodipodi:nodetypes="ccccscccsccsccccsscccccccscccccccccccscccccccccccccccccccccccccccccc" />
    <path
       style="opacity:1;fill:none;fill-opacity:1;stroke:#0000ff;stroke-width:0.03543307;stroke-linecap:round;stroke-miterlimit:4;stroke-dasharray:none;stroke-dashoffset:0;stroke-opacity:1"
       d="m 586.99587,649.34451 c -0.0229,0.9473 -0.78705,1.7088 -1.73438,1.7285 l -26.61328,0 c -0.97829,-10e-5 -1.77138,-0.7932 -1.77148,-1.7715 -9e-5,-0.9775 -0.79194,-1.7704 -1.76953,-1.7715 -0.97833,1e-4 -1.7714,0.7932 -1.77149,1.7715 1e-4,0.9784 0.79316,1.7714 1.77149,1.7715 0.97759,0.001 1.76944,0.7939 1.76953,1.7715 l 0,8.8594 c -9e-5,0.9776 -0.79194,1.7703 -1.76953,1.7715 -0.9783,10e-5 -1.77135,0.7931 -1.77149,1.7714 9e-5,0.9783 0.79315,1.7715 1.77149,1.7715 0.97759,0 1.76944,-0.7939 1.76953,-1.7715 1.4e-4,-0.9783 0.79322,-1.7713 1.77148,-1.7714 l 26.57422,0 c 0.97833,10e-5 1.7714,0.7932 1.77148,1.7715 m 0,312.6932 c -8e-5,0.9783 -0.79315,1.7714 -1.77148,1.7715 l -26.57422,0 c -0.9783,-10e-5 -1.77139,-0.7932 -1.77148,-1.7715 -9e-5,-0.9776 -0.79194,-1.7703 -1.76953,-1.7715 -0.97834,1e-4 -1.7714,0.7932 -1.77149,1.7715 9e-5,0.9784 0.79315,1.7714 1.77149,1.7715 0.97759,0 1.76944,0.7939 1.76953,1.7715 l 0,8.8593 c 9.6e-4,0.9783 -0.79119,1.7724 -1.76953,1.7735 -0.97834,10e-5 -1.7714,0.7932 -1.77149,1.7715 9e-5,0.9783 0.79315,1.7714 1.77149,1.7715 0.97759,0 1.76944,-0.7939 1.76953,-1.7715 9e-5,-0.9783 0.79318,-1.7714 1.77148,-1.7715 l 26.57813,0 c 0.96178,9e-4 1.74719,0.769 1.76953,1.7305 m 0,35.47259 c 0,1.963 -1.57997,3.543 -3.54297,3.543 l -46.0625,0 c -1.963,0 -3.54297,-1.58 -3.54297,-3.543 l -0.002,-47.83589 c -1.4e-4,-0.9775 -0.792,-1.7703 -1.76953,-1.7715 l -8.85546,0 c -3.91281,-6e-4 -7.06484,-3.1393 -7.08594,-7.0469 l 0,-302.1425 c 0.021,-3.9076 3.17313,-7.0468 7.08594,-7.0468 l 8.8535,0 0.002,0 c 0.97757,0 1.76945,-0.7939 1.76953,-1.7715 l 0.002,-30.1192 c 0,-1.9632 1.57997,-3.5429 3.54297,-3.5429 l 46.0625,0 0.002,0 c 1.9621,10e-4 3.54141,1.5826 3.54102,3.5449 m -35.43555,117.8515 c -2.93497,2e-4 -5.31413,2.3796 -5.31445,5.3145 2.6e-4,2.935 2.37944,5.3141 5.31445,5.3144 2.93575,0 5.31615,-2.3786 5.31641,-5.3144 -3.2e-4,-2.9357 -2.3807,-5.3153 -5.31641,-5.3145 z m 0.01,205.3437 c -2.93497,3e-4 -5.3142,2.3794 -5.31446,5.3144 3.2e-4,2.9349 2.37953,5.3142 5.31446,5.3145 2.93571,8e-4 5.31608,-2.3788 5.3164,-5.3145 -2.6e-4,-2.9358 -2.38065,-5.3152 -5.3164,-5.3144 z"
       id="rect10188-7-8-3-9-9-9-4-0-2-0-9"
       inkscape:connector-curvature="0"
       sodipodi:nodetypes="cccccccccccscccccccsccccccccsccccssccccccscsccsccccccccccccc" />
    <path
       style="opacity:1;fill:none;fill-opacity:1;stroke:#0000ff;stroke-width:0.03543307;stroke-linecap:round;stroke-miterlimit:4;stroke-dasharray:none;stroke-dashoffset:0;stroke-opacity:1"
       d="m 516.1345,972.67271 c -0.021,3.9076 -3.17314,7.0469 -7.08593,7.0469 l -8.98047,0 -0.002,0 c -0.973,10e-5 -1.76388,0.7848 -1.77149,1.7578 l 0.002,47.84959 c 0,1.963 -1.57997,3.543 -3.54297,3.543 l -46.06835,0 c -1.963,0 -3.54492,-1.58 -3.54492,-3.543 l 0,-35.43159 c 9e-5,-0.9783 0.79315,-1.7714 1.77148,-1.7715 l 26.70507,0 c 0.9783,10e-5 1.77139,0.7932 1.77148,1.7715 8e-5,0.9776 0.79194,1.7703 1.76953,1.7714 0.97834,-1e-4 1.7714,-0.793 1.77149,-1.7714 -9e-5,-0.9783 -0.79315,-1.7715 -1.77149,-1.7715 -0.97759,0 -1.76945,-0.7939 -1.76953,-1.7715 l 0,-8.8594 c 8e-5,-0.9776 0.79194,-1.7704 1.76953,-1.7715 0.9783,-10e-5 1.77135,-0.7931 1.77149,-1.7715 -9e-5,-0.9783 -0.79315,-1.7713 -1.77149,-1.7714 -0.97759,0 -1.76945,0.7938 -1.76953,1.7714 -1.4e-4,0.9784 -0.79322,1.7714 -1.77148,1.7715 l -26.70312,0 c -0.97833,-10e-5 -1.7714,-0.7932 -1.77148,-1.7715 l -0.002,-154.0721 c 4e-4,-3.9141 3.17384,-7.0867 7.08789,-7.086 l 7.08593,0 c 9.78093,0 17.708,-7.9338 17.70898,-17.7148 1.3e-4,-9.7817 -7.92726,-17.7126 -17.70898,-17.7168 l -7.08593,0 c -3.91409,7e-4 -7.08754,-3.1718 -7.08789,-7.0859 -0.0184,-37.7057 0.002,-109.0176 0.002,-109.0176 8e-5,-0.9783 0.79315,-1.7714 1.77148,-1.7715 l 26.70312,-0.01 c 0.97829,10e-5 1.77139,0.7932 1.77148,1.7715 1e-4,0.9775 0.79194,1.7704 1.76953,1.7715 0.97833,0 1.77139,-0.7932 1.77149,-1.7715 -9e-5,-0.9784 -0.79316,-1.7714 -1.77149,-1.7715 -0.97759,0 -1.76943,-0.7938 -1.76953,-1.7714 l 0,-8.8594 c 1e-4,-0.9776 0.79194,-1.7703 1.76953,-1.7715 0.97833,-10e-5 1.7714,-0.7931 1.77149,-1.7715 -10e-5,-0.9783 -0.79316,-1.7714 -1.77149,-1.7715 -0.97759,0.001 -1.76943,0.794 -1.76953,1.7715 -9e-5,0.9783 -0.79319,1.7714 -1.77148,1.7715 l -26.77538,0 c -0.94926,-0.038 -1.69975,-0.8176 -1.70117,-1.7676 l 0,-17.7187 c 0,-1.963 1.58192,-3.5449 3.54492,-3.5449 l 10e-6,0.01 46.06639,0 0.002,0 c 1.963,0 3.54297,1.5799 3.54297,3.543 l -0.002,30.1328 c 0.008,0.973 0.79849,1.7577 1.77149,1.7578 l 8.98242,0 c 3.91279,0 7.06483,3.1393 7.08593,7.0469 m -35.42968,78.9218 c -2.93499,2e-4 -5.31418,2.3792 -5.31445,5.3145 3.1e-4,2.935 2.37949,5.3141 5.31445,5.3144 2.93493,-3e-4 5.31414,-2.3795 5.31445,-5.3144 -2.7e-4,-2.9352 -2.37948,-5.3142 -5.31445,-5.3145 z m 0,205.3222 c -2.9357,-7e-4 -5.3161,2.3787 -5.31641,5.3144 -7.9e-4,2.9365 2.37993,5.3172 5.31641,5.3164 2.93571,-3e-4 5.31524,-2.3807 5.31445,-5.3164 -3.1e-4,-2.9349 -2.37952,-5.3141 -5.31445,-5.3144 z"
       id="rect10188-7-8-3-9-9-9-0-4-3-72-8-6"
       inkscape:connector-curvature="0"
       sodipodi:nodetypes="csccccsssccccccscccccccccccsccccccccccccccccccccscccscccsccccccccccc" />
    <path
       style="opacity:1;fill:none;fill-opacity:1;stroke:#0000ff;stroke-width:0.03543307;stroke-linecap:round;stroke-miterlimit:4;stroke-dasharray:none;stroke-dashoffset:0;stroke-opacity:1"
       d="m 657.8937,670.52221 c -0.021,-3.9076 -3.17313,-7.0468 -7.08594,-7.0468 l -8.8535,0 -0.002,0 c -0.97756,0 -1.76944,-0.7939 -1.76952,-1.7715 l -0.002,-30.1192 c 0,-1.9632 -1.57997,-3.5429 -3.54297,-3.5429 l -46.0625,0 -0.002,0 c -1.9621,10e-4 -3.54141,1.5826 -3.54102,3.5449 l 0,17.7578 c 0.0229,0.9473 0.78705,1.7088 1.73438,1.7285 l 26.61328,0 c 0.97829,-10e-5 1.77138,-0.7932 1.77148,-1.7715 9e-5,-0.9775 0.79194,-1.7704 1.76953,-1.7715 0.97833,1e-4 1.7714,0.7932 1.77149,1.7715 -10e-5,0.9784 -0.79316,1.7714 -1.77149,1.7715 -0.97759,0.001 -1.76944,0.7939 -1.76953,1.7715 l 0,8.8594 c 9e-5,0.9776 0.79194,1.7703 1.76953,1.7715 0.9783,10e-5 1.77135,0.7931 1.77149,1.7714 -9e-5,0.9783 -0.79315,1.7715 -1.77149,1.7715 -0.97759,0 -1.76944,-0.7939 -1.76953,-1.7715 -1.4e-4,-0.9783 -0.79322,-1.7713 -1.77148,-1.7714 l -26.57422,0 c -0.97833,10e-5 -1.7714,0.7932 -1.77148,1.7715 -0.0453,108.8338 0,312.6932 0,312.6932 8e-5,0.9783 0.79315,1.7714 1.77148,1.7715 l 26.57422,0 c 0.9783,-10e-5 1.77139,-0.7932 1.77148,-1.7715 9e-5,-0.9776 0.79194,-1.7703 1.76953,-1.7715 0.97834,1e-4 1.7714,0.7932 1.77149,1.7715 -9e-5,0.9784 -0.79315,1.7714 -1.77149,1.7715 -0.97759,0 -1.76944,0.7939 -1.76953,1.7715 l 0,8.8593 c -9.6e-4,0.9783 0.79119,1.7724 1.76953,1.7735 0.97834,10e-5 1.7714,0.7932 1.77149,1.7715 -9e-5,0.9783 -0.79315,1.7714 -1.77149,1.7715 -0.97759,0 -1.76944,-0.7939 -1.76953,-1.7715 -9e-5,-0.9783 -0.79318,-1.7714 -1.77148,-1.7715 l -26.57813,0 c -0.96178,9e-4 -1.74719,0.769 -1.76953,1.7305 l 0,35.47259 c 0,1.963 1.57997,3.543 3.54297,3.543 l 46.0625,0 c 1.963,0 3.54297,-1.58 3.54297,-3.543 l 0.002,-47.83589 c 1.4e-4,-0.9775 0.792,-1.7703 1.76952,-1.7715 l 8.85546,0 c 3.91281,-6e-4 7.06484,-3.1393 7.08594,-7.0469 M 622.4678,749.43821 c 2.93497,2e-4 5.31413,2.3796 5.31445,5.3145 -2.6e-4,2.935 -2.37944,5.3141 -5.31445,5.3144 -2.93575,0 -5.31615,-2.3786 -5.31641,-5.3144 3.2e-4,-2.9357 2.3807,-5.3153 5.31641,-5.3145 z m -0.01,205.3437 c 2.93497,3e-4 5.3142,2.3794 5.31446,5.3144 -3.2e-4,2.9349 -2.37953,5.3142 -5.31446,5.3145 -2.93571,8e-4 -5.31608,-2.3788 -5.3164,-5.3145 2.6e-4,-2.9358 2.38065,-5.3152 5.3164,-5.3144 z"
       id="rect10188-7-8-3-9-9-9-4-0-1-3-8"
       inkscape:connector-curvature="0"
       sodipodi:nodetypes="cscsccsccccccccccccccscccccccsccccccccscccsssccccccccccccccc" />
    <path
       style="opacity:1;fill:none;fill-opacity:1;stroke:#0000ff;stroke-width:0.03543307;stroke-linecap:round;stroke-miterlimit:4;stroke-dasharray:none;stroke-dashoffset:0;stroke-opacity:1"
       d="m 728.88784,631.58671 c 0,-1.963 -1.58192,-3.5449 -3.54492,-3.5449 l -1e-5,0.01 -46.06639,0 -0.002,0 c -1.963,0 -3.54297,1.5799 -3.54297,3.543 l 0.002,30.1328 c -0.008,0.973 -0.79849,1.7577 -1.77149,1.7578 l -8.98242,0 c -3.9128,0 -7.06484,3.1393 -7.08594,7.0469 l 0,302.1444 c 0.021,3.9076 3.17314,7.0469 7.08594,7.0469 l 8.98047,0 0.002,0 c 0.973,10e-5 1.76388,0.7848 1.77149,1.7578 l -0.002,47.84959 c 0,1.963 1.57997,3.543 3.54297,3.543 l 46.06835,0 c 1.963,0 3.54492,-1.58 3.54492,-3.543 m 0,-35.43159 c -9e-5,-0.9783 -0.79315,-1.7714 -1.77148,-1.7715 l -26.70506,0 c -0.9783,10e-5 -1.77139,0.7932 -1.77148,1.7715 -8e-5,0.9776 -0.79194,1.7703 -1.76953,1.7714 -0.97834,-10e-5 -1.7714,-0.793 -1.77149,-1.7714 9e-5,-0.9783 0.79315,-1.7715 1.77149,-1.7715 0.97759,0 1.76945,-0.7939 1.76953,-1.7715 l 0,-8.8594 c -8e-5,-0.9776 -0.79194,-1.7704 -1.76953,-1.7715 -0.9783,-10e-5 -1.77135,-0.7931 -1.77149,-1.7715 9e-5,-0.9783 0.79315,-1.7713 1.77149,-1.7714 0.97759,0 1.76945,0.7938 1.76953,1.7714 1.4e-4,0.9784 0.79322,1.7714 1.77148,1.7715 l 26.70311,0 c 0.97833,-10e-5 1.7714,-0.7932 1.77148,-1.7715 m 0.002,-154.0721 c -4e-4,-3.9141 -3.17384,-7.0867 -7.08789,-7.086 l -7.08593,0 c -9.78092,0 -17.70799,-7.9338 -17.70897,-17.7148 -1.3e-4,-9.7817 7.92726,-17.7126 17.70897,-17.7168 l 7.08593,0 c 3.91409,7e-4 7.08754,-3.1718 7.08789,-7.0859 m -0.002,-109.0176 c -8e-5,-0.9783 -0.79315,-1.7714 -1.77148,-1.7715 l -26.70311,-0.01 c -0.97829,10e-5 -1.77139,0.7932 -1.77148,1.7715 -10e-5,0.9775 -0.79194,1.7704 -1.76953,1.7715 -0.97833,0 -1.77139,-0.7932 -1.77149,-1.7715 9e-5,-0.9784 0.79316,-1.7714 1.77149,-1.7715 0.97759,-0.001 1.76943,-0.7938 1.76953,-1.7714 l 0,-8.8594 c -10e-5,-0.9776 -0.79194,-1.7703 -1.76953,-1.7715 -0.97833,-10e-5 -1.7714,-0.7931 -1.77149,-1.7715 10e-5,-0.9783 0.79316,-1.7714 1.77149,-1.7715 0.97759,0.001 1.76943,0.794 1.76953,1.7715 9e-5,0.9783 0.79319,1.7714 1.77148,1.7715 l 26.77537,0 c 0.94926,-0.038 1.69975,-0.8176 1.70117,-1.7676 m -35.56444,100.1447 c 2.93499,2e-4 5.31418,2.3792 5.31445,5.3145 -3.1e-4,2.935 -2.37949,5.3141 -5.31445,5.3144 -2.93493,-3e-4 -5.31414,-2.3795 -5.31445,-5.3144 2.7e-4,-2.9352 2.37948,-5.3142 5.31445,-5.3145 z m 0,205.3222 c 2.9357,-7e-4 5.3161,2.3787 5.31641,5.3144 7.9e-4,2.9365 -2.37993,5.3172 -5.31641,5.3164 -2.93571,-3e-4 -5.31524,-2.3807 -5.31445,-5.3164 3.1e-4,-2.9349 2.37952,-5.3141 5.31445,-5.3144 z"
       id="rect10188-7-8-3-9-9-9-0-4-3-7-9-5"
       inkscape:connector-curvature="0"
       sodipodi:nodetypes="ccccscccsccsccccsscccccccscccccccccccscccccccccccccccccccccccccccccc" />
    <path
       style="opacity:1;fill:none;fill-opacity:1;stroke:#0000ff;stroke-width:0.03543307;stroke-linecap:round;stroke-miterlimit:4;stroke-dasharray:none;stroke-dashoffset:0;stroke-opacity:1"
       d="m 870.75882,1029.319 c 0,1.963 -1.57997,3.543 -3.54297,3.543 l -46.0625,0 c -1.963,0 -3.54297,-1.58 -3.54297,-3.543 l -0.002,-47.83589 c -1.4e-4,-0.9775 -0.792,-1.7703 -1.76953,-1.7715 l -8.85546,0 c -3.91281,-6e-4 -7.06484,-3.1393 -7.08594,-7.0469 l 0,-302.1425 c 0.021,-3.9076 3.17313,-7.0468 7.08594,-7.0468 l 8.8535,0 0.002,0 c 0.97757,0 1.76945,-0.7939 1.76953,-1.7715 l 0.002,-30.1192 c 0,-1.9632 1.57997,-3.5429 3.54297,-3.5429 l 46.0625,0 0.002,0 c 1.9621,10e-4 3.54141,1.5826 3.54102,3.5449 m 0,17.7578 c -0.0229,0.9473 -0.78705,1.7088 -1.73438,1.7285 l -26.61328,0 c -0.97829,-10e-5 -1.77138,-0.7932 -1.77148,-1.7715 -9e-5,-0.9775 -0.79194,-1.7704 -1.76953,-1.7715 -0.97833,1e-4 -1.7714,0.7932 -1.77149,1.7715 10e-5,0.9784 0.79316,1.7714 1.77149,1.7715 0.97759,0.001 1.76944,0.7939 1.76953,1.7715 l 0,8.8594 c -9e-5,0.9776 -0.79194,1.7703 -1.76953,1.7715 -0.9783,10e-5 -1.77135,0.7931 -1.77149,1.7714 9e-5,0.9783 0.79315,1.7715 1.77149,1.7715 0.97759,0 1.76944,-0.7939 1.76953,-1.7715 1.4e-4,-0.9783 0.79322,-1.7713 1.77148,-1.7714 l 26.57422,0 c 0.97833,10e-5 1.7714,0.7932 1.77148,1.7715 m 0,312.6932 c -8e-5,0.9783 -0.79315,1.7714 -1.77148,1.7715 l -26.57422,0 c -0.9783,-10e-5 -1.77139,-0.7932 -1.77148,-1.7715 -9e-5,-0.9776 -0.79194,-1.7703 -1.76953,-1.7715 -0.97834,1e-4 -1.7714,0.7932 -1.77149,1.7715 9e-5,0.9784 0.79315,1.7714 1.77149,1.7715 0.97759,0 1.76944,0.7939 1.76953,1.7715 l 0,8.8593 c 9.6e-4,0.9783 -0.79119,1.7724 -1.76953,1.7735 -0.97834,10e-5 -1.7714,0.7932 -1.77149,1.7715 9e-5,0.9783 0.79315,1.7714 1.77149,1.7715 0.97759,0 1.76944,-0.7939 1.76953,-1.7715 9e-5,-0.9783 0.79318,-1.7714 1.77148,-1.7715 l 26.57813,0 c 0.96178,9e-4 1.74719,0.769 1.76953,1.7305 m -35.43555,-244.4082 c -2.93497,2e-4 -5.31413,2.3796 -5.31445,5.3145 2.6e-4,2.935 2.37944,5.3141 5.31445,5.3144 2.93575,0 5.31615,-2.3786 5.31641,-5.3144 -3.2e-4,-2.9357 -2.3807,-5.3153 -5.31641,-5.3145 z m 0.01,205.3437 c -2.93497,3e-4 -5.3142,2.3794 -5.31446,5.3144 3.2e-4,2.9349 2.37953,5.3142 5.31446,5.3145 2.93571,8e-4 5.31608,-2.3788 5.3164,-5.3145 -2.6e-4,-2.9358 -2.38065,-5.3152 -5.3164,-5.3144 z"
       id="rect10188-7-8-3-9-9-9-4-0-2-0-6"
       inkscape:connector-curvature="0"
       sodipodi:nodetypes="cssccccccscsccsccccccccccccccscccccccsccccccccsccccccccccccc" />
    <path
       style="opacity:1;fill:none;fill-opacity:1;stroke:#0000ff;stroke-width:0.03543307;stroke-linecap:round;stroke-miterlimit:4;stroke-dasharray:none;stroke-dashoffset:0;stroke-opacity:1"
       d="m 799.89745,972.67271 c -0.021,3.9076 -3.17314,7.0469 -7.08593,7.0469 l -8.98047,0 -0.002,0 c -0.973,10e-5 -1.76388,0.7848 -1.77149,1.7578 l 0.002,47.84959 c 0,1.963 -1.57997,3.543 -3.54297,3.543 l -46.06835,0 c -1.963,0 -3.54492,-1.58 -3.54492,-3.543 l 0,-35.43159 c 9e-5,-0.9783 0.79315,-1.7714 1.77148,-1.7715 l 26.70507,0 c 0.9783,10e-5 1.77139,0.7932 1.77148,1.7715 8e-5,0.9776 0.79194,1.7703 1.76953,1.7714 0.97834,-1e-4 1.7714,-0.793 1.77149,-1.7714 -9e-5,-0.9783 -0.79315,-1.7715 -1.77149,-1.7715 -0.97759,0 -1.76945,-0.7939 -1.76953,-1.7715 l 0,-8.8594 c 8e-5,-0.9776 0.79194,-1.7704 1.76953,-1.7715 0.9783,-10e-5 1.77135,-0.7931 1.77149,-1.7715 -9e-5,-0.9783 -0.79315,-1.7713 -1.77149,-1.7714 -0.97759,0 -1.76945,0.7938 -1.76953,1.7714 -1.4e-4,0.9784 -0.79322,1.7714 -1.77148,1.7715 l -26.70312,0 c -0.97833,-10e-5 -1.7714,-0.7932 -1.77148,-1.7715 l -0.002,-154.0721 c 4e-4,-3.9141 3.17384,-7.0867 7.08789,-7.086 l 7.08593,0 c 9.78093,0 17.708,-7.9338 17.70898,-17.7148 1.3e-4,-9.7817 -7.92726,-17.7126 -17.70898,-17.7168 l -7.08593,0 c -3.91409,7e-4 -7.08754,-3.1718 -7.08789,-7.0859 -0.0184,-37.7057 0.002,-109.0176 0.002,-109.0176 8e-5,-0.9783 0.79315,-1.7714 1.77148,-1.7715 l 26.70312,-0.01 c 0.97829,10e-5 1.77139,0.7932 1.77148,1.7715 10e-5,0.9775 0.79194,1.7704 1.76953,1.7715 0.97833,0 1.77139,-0.7932 1.77149,-1.7715 -9e-5,-0.9784 -0.79316,-1.7714 -1.77149,-1.7715 -0.97759,0 -1.76943,-0.7938 -1.76953,-1.7714 l 0,-8.8594 c 10e-5,-0.9776 0.79194,-1.7703 1.76953,-1.7715 0.97833,-10e-5 1.7714,-0.7931 1.77149,-1.7715 -10e-5,-0.9783 -0.79316,-1.7714 -1.77149,-1.7715 -0.97759,0.001 -1.76943,0.794 -1.76953,1.7715 -9e-5,0.9783 -0.79319,1.7714 -1.77148,1.7715 l -26.77538,0 c -0.94926,-0.038 -1.69975,-0.8176 -1.70117,-1.7676 l 0,-17.7187 c 0,-1.963 1.58192,-3.5449 3.54492,-3.5449 l 10e-6,0.01 46.06639,0 0.002,0 c 1.963,0 3.54297,1.5799 3.54297,3.543 l -0.002,30.1328 c 0.008,0.973 0.79849,1.7577 1.77149,1.7578 l 8.98242,0 c 3.91279,0 7.06483,3.1393 7.08593,7.0469 m -35.42968,78.9218 c -2.93499,2e-4 -5.31418,2.3792 -5.31445,5.3145 3.1e-4,2.935 2.37949,5.3141 5.31445,5.3144 2.93493,-3e-4 5.31414,-2.3795 5.31445,-5.3144 -2.7e-4,-2.9352 -2.37948,-5.3142 -5.31445,-5.3145 z m 0,205.3222 c -2.9357,-7e-4 -5.3161,2.3787 -5.31641,5.3144 -7.9e-4,2.9365 2.37993,5.3172 5.31641,5.3164 2.93571,-3e-4 5.31524,-2.3807 5.31445,-5.3164 -3.1e-4,-2.9349 -2.37952,-5.3141 -5.31445,-5.3144 z"
       id="rect10188-7-8-3-9-9-9-0-4-3-72-8-1"
       inkscape:connector-curvature="0"
       sodipodi:nodetypes="csccccsssccccccscccccccccccsccccccccccccccccccccscccscccsccccccccccc" />
    <path
       style="opacity:1;fill:none;fill-opacity:1;stroke:#0000ff;stroke-width:0.03543307;stroke-linecap:round;stroke-miterlimit:4;stroke-dasharray:none;stroke-dashoffset:0;stroke-opacity:1"
       d="m 941.65665,670.52221 c -0.021,-3.9076 -3.17313,-7.0468 -7.08594,-7.0468 l -8.8535,0 -0.002,0 c -0.97756,0 -1.76944,-0.7939 -1.76952,-1.7715 l -0.002,-30.1192 c 0,-1.9632 -1.57997,-3.5429 -3.54297,-3.5429 l -46.0625,0 -0.002,0 c -1.9621,10e-4 -3.54141,1.5826 -3.54102,3.5449 l 0,17.7578 c 0.0229,0.9473 0.78705,1.7088 1.73438,1.7285 l 26.61328,0 c 0.97829,-10e-5 1.77138,-0.7932 1.77148,-1.7715 9e-5,-0.9775 0.79194,-1.7704 1.76953,-1.7715 0.97833,1e-4 1.7714,0.7932 1.77149,1.7715 -1e-4,0.9784 -0.79316,1.7714 -1.77149,1.7715 -0.97759,0.001 -1.76944,0.7939 -1.76953,1.7715 l 0,8.8594 c 9e-5,0.9776 0.79194,1.7703 1.76953,1.7715 0.9783,10e-5 1.77135,0.7931 1.77149,1.7714 -9e-5,0.9783 -0.79315,1.7715 -1.77149,1.7715 -0.97759,0 -1.76944,-0.7939 -1.76953,-1.7715 -1.4e-4,-0.9783 -0.79322,-1.7713 -1.77148,-1.7714 l -26.57422,0 c -0.97833,10e-5 -1.7714,0.7932 -1.77148,1.7715 -0.0453,108.8338 0,312.6932 0,312.6932 8e-5,0.9783 0.79315,1.7714 1.77148,1.7715 l 26.57422,0 c 0.9783,-10e-5 1.77139,-0.7932 1.77148,-1.7715 9e-5,-0.9776 0.79194,-1.7703 1.76953,-1.7715 0.97834,1e-4 1.7714,0.7932 1.77149,1.7715 -9e-5,0.9784 -0.79315,1.7714 -1.77149,1.7715 -0.97759,0 -1.76944,0.7939 -1.76953,1.7715 l 0,8.8593 c -9.6e-4,0.9783 0.79119,1.7724 1.76953,1.7735 0.97834,10e-5 1.7714,0.7932 1.77149,1.7715 -9e-5,0.9783 -0.79315,1.7714 -1.77149,1.7715 -0.97759,0 -1.76944,-0.7939 -1.76953,-1.7715 -9e-5,-0.9783 -0.79318,-1.7714 -1.77148,-1.7715 l -26.57813,0 c -0.96178,9e-4 -1.74719,0.769 -1.76953,1.7305 l 0,35.47259 c 0,1.963 1.57997,3.543 3.54297,3.543 l 46.0625,0 c 1.963,0 3.54297,-1.58 3.54297,-3.543 l 0.002,-47.83589 c 1.4e-4,-0.9775 0.792,-1.7703 1.76952,-1.7715 l 8.85546,0 c 3.91281,-6e-4 7.06484,-3.1393 7.08594,-7.0469 m -35.42581,-223.2265 c 2.93497,2e-4 5.31413,2.3796 5.31445,5.3145 -2.6e-4,2.935 -2.37944,5.3141 -5.31445,5.3144 -2.93575,0 -5.31615,-2.3786 -5.31641,-5.3144 3.2e-4,-2.9357 2.3807,-5.3153 5.31641,-5.3145 z m -0.01,205.3437 c 2.93497,3e-4 5.3142,2.3794 5.31446,5.3144 -3.2e-4,2.9349 -2.37953,5.3142 -5.31446,5.3145 -2.93571,8e-4 -5.31608,-2.3788 -5.3164,-5.3145 2.6e-4,-2.9358 2.38065,-5.3152 5.3164,-5.3144 z"
       id="rect10188-7-8-3-9-9-9-4-0-1-3-59"
       inkscape:connector-curvature="0"
       sodipodi:nodetypes="cscsccsccccccccccccccscccccccsccccccccscccsssccccccccccccccc" />
    <path
       style="opacity:1;fill:none;fill-opacity:1;stroke:#0000ff;stroke-width:0.03543307;stroke-linecap:round;stroke-miterlimit:4;stroke-dasharray:none;stroke-dashoffset:0;stroke-opacity:1"
       d="m 1012.6508,631.58671 c 0,-1.963 -1.5819,-3.5449 -3.5449,-3.5449 l 0,0.01 -46.06643,0 -0.002,0 c -1.963,0 -3.54297,1.5799 -3.54297,3.543 l 0.002,30.1328 c -0.008,0.973 -0.79849,1.7577 -1.77149,1.7578 l -8.98242,0 c -3.9128,0 -7.06484,3.1393 -7.08594,7.0469 l 0,302.1444 c 0.021,3.9076 3.17314,7.0469 7.08594,7.0469 l 8.98047,0 0.002,0 c 0.973,10e-5 1.76388,0.7848 1.77149,1.7578 l -0.002,47.84959 c 0,1.963 1.57997,3.543 3.54297,3.543 l 46.06838,0 c 1.963,0 3.5449,-1.58 3.5449,-3.543 m 0,-35.43159 c -10e-5,-0.9783 -0.7932,-1.7714 -1.7715,-1.7715 l -26.705,0 c -0.9783,10e-5 -1.7714,0.7932 -1.7715,1.7715 -10e-5,0.9776 -0.792,1.7703 -1.7696,1.7714 -0.9783,-10e-5 -1.7714,-0.793 -1.7714,-1.7714 0,-0.9783 0.7931,-1.7715 1.7714,-1.7715 0.9776,0 1.7695,-0.7939 1.7696,-1.7715 l 0,-8.8594 c -10e-5,-0.9776 -0.792,-1.7704 -1.7696,-1.7715 -0.9783,-10e-5 -1.7713,-0.7931 -1.7714,-1.7715 0,-0.9783 0.7931,-1.7713 1.7714,-1.7714 0.9776,0 1.7695,0.7938 1.7696,1.7714 1e-4,0.9784 0.7932,1.7714 1.7715,1.7715 l 26.7031,0 c 0.9783,-10e-5 1.7714,-0.7932 1.7714,-1.7715 m 0,-154.0721 c -4e-4,-3.9141 -3.1738,-7.0867 -7.0878,-7.086 l -7.086,0 c -9.7809,0 -17.708,-7.9338 -17.7089,-17.7148 -2e-4,-9.7817 7.9272,-17.7126 17.7089,-17.7168 l 7.086,0 c 3.914,7e-4 7.0875,-3.1718 7.0878,-7.0859 m 0,-109.0176 c 0,-0.9783 -0.7931,-1.7714 -1.7714,-1.7715 l -26.7031,-0.01 c -0.9783,10e-5 -1.7714,0.7932 -1.7715,1.7715 -10e-5,0.9775 -0.792,1.7704 -1.7696,1.7715 -0.9783,0 -1.7713,-0.7932 -1.7714,-1.7715 0,-0.9784 0.7931,-1.7714 1.7714,-1.7715 0.9776,-0.001 1.7695,-0.7938 1.7696,-1.7714 l 0,-8.8594 c -10e-5,-0.9776 -0.792,-1.7703 -1.7696,-1.7715 -0.9783,-10e-5 -1.7714,-0.7931 -1.7714,-1.7715 10e-5,-0.9783 0.7931,-1.7714 1.7714,-1.7715 0.9776,0.001 1.7695,0.794 1.7696,1.7715 1e-4,0.9783 0.7932,1.7714 1.7715,1.7715 l 26.7753,0 c 0.9493,-0.038 1.6998,-0.8176 1.7012,-1.7676 m -35.5644,100.1447 c 2.9349,2e-4 5.3141,2.3792 5.3144,5.3145 -3e-4,2.935 -2.3795,5.3141 -5.3144,5.3144 -2.935,-3e-4 -5.3142,-2.3795 -5.3145,-5.3144 3e-4,-2.9352 2.3795,-5.3142 5.3145,-5.3145 z m 0,205.3222 c 2.9357,-7e-4 5.3161,2.3787 5.3164,5.3144 8e-4,2.9365 -2.38,5.3172 -5.3164,5.3164 -2.9358,-3e-4 -5.3153,-2.3807 -5.3145,-5.3164 3e-4,-2.9349 2.3795,-5.3141 5.3145,-5.3144 z"
       id="rect10188-7-8-3-9-9-9-0-4-3-7-9-8"
       inkscape:connector-curvature="0"
       sodipodi:nodetypes="ccccscccsccsccccsscccccccscccccccccccscccccccccccccccccccccccccccccc" />
    <path
       style="opacity:1;fill:none;fill-opacity:1;stroke:#0000ff;stroke-width:0.03543307;stroke-linecap:round;stroke-miterlimit:4;stroke-dasharray:none;stroke-dashoffset:0;stroke-opacity:1"
       d="m 1150.9808,628.04181 c 1.9621,10e-4 3.5414,1.5826 3.541,3.5449 l 0,17.7578 c -0.023,0.9473 -0.7871,1.7088 -1.7344,1.7285 l -26.6133,0 c -0.9783,-10e-5 -1.7714,-0.7932 -1.7715,-1.7715 -10e-5,-0.9775 -0.7919,-1.7704 -1.7695,-1.7715 -0.9783,1e-4 -1.7714,0.7932 -1.7715,1.7715 10e-5,0.9784 0.7932,1.7714 1.7715,1.7715 0.9776,0.001 1.7694,0.7939 1.7695,1.7715 l 0,8.8594 c -10e-5,0.9776 -0.7919,1.7703 -1.7695,1.7715 -0.9783,10e-5 -1.7713,0.7931 -1.7715,1.7714 10e-5,0.9783 0.7932,1.7715 1.7715,1.7715 0.9776,0 1.7694,-0.7939 1.7695,-1.7715 2e-4,-0.9783 0.7933,-1.7713 1.7715,-1.7714 l 26.5742,0 c 0.9784,10e-5 1.7714,0.7932 1.7715,1.7715 0.045,108.8338 0,312.6932 0,312.6932 -10e-5,0.9783 -0.7931,1.7714 -1.7715,1.7715 l -26.5742,0 c -0.9783,-10e-5 -1.7714,-0.7932 -1.7715,-1.7715 -10e-5,-0.9776 -0.7919,-1.7703 -1.7695,-1.7715 -0.9783,1e-4 -1.7714,0.7932 -1.7715,1.7715 10e-5,0.9784 0.7932,1.7714 1.7715,1.7715 0.9776,0 1.7694,0.7939 1.7695,1.7715 l 0,8.8593 c 0,0.9783 -0.7912,1.7724 -1.7695,1.7735 -0.9783,10e-5 -1.7714,0.7932 -1.7715,1.7715 10e-5,0.9783 0.7932,1.7714 1.7715,1.7715 0.9776,0 1.7694,-0.7939 1.7695,-1.7715 1e-4,-0.9783 0.7932,-1.7714 1.7715,-1.7715 l 26.5781,0 c 0.9618,9e-4 1.7472,0.769 1.7696,1.7305 l 0,35.47259 c 0,1.963 -1.58,3.543 -3.543,3.543 l -46.0625,0 c -1.963,0 -3.543,-1.58 -3.543,-3.543 l 0,-47.83589 c -10e-5,-0.9775 -0.792,-1.7703 -1.7695,-1.7715 l -8.8555,0 c -3.9128,-6e-4 -7.0648,-3.1393 -7.0859,-7.0469 l 0,-302.1425 c 0.021,-3.9076 3.1731,-7.0468 7.0859,-7.0468 l 8.8535,0 0,0 c 0.9776,0 1.7695,-0.7939 1.7696,-1.7715 l 0,-30.1192 c 0,-1.9632 1.5799,-3.5429 3.5429,-3.5429 l 46.0625,0 z m -31.8946,121.3964 c -2.9349,2e-4 -5.3141,2.3796 -5.3144,5.3145 2e-4,2.935 2.3794,5.3141 5.3144,5.3144 2.9358,0 5.3162,-2.3786 5.3164,-5.3144 -3e-4,-2.9357 -2.3807,-5.3153 -5.3164,-5.3145 z m 0.01,205.3437 c -2.935,3e-4 -5.3142,2.3794 -5.3144,5.3144 3e-4,2.9349 2.3795,5.3142 5.3144,5.3145 2.9357,8e-4 5.3161,-2.3788 5.3164,-5.3145 -2e-4,-2.9358 -2.3806,-5.3152 -5.3164,-5.3144 z"
       id="rect10188-7-8-3-9-9-9-4-0-2-0-4"
       inkscape:connector-curvature="0"
       sodipodi:nodetypes="cccccccccccccscccccccsccccccccscccsssccccccscsccscccccccccccc" />
    <path
       style="opacity:1;fill:none;fill-opacity:1;stroke:#0000ff;stroke-width:0.03543307;stroke-linecap:round;stroke-miterlimit:4;stroke-dasharray:none;stroke-dashoffset:0;stroke-opacity:1"
       d="m 1083.6604,972.67271 c -0.021,3.9076 -3.1731,7.0469 -7.0859,7.0469 l -8.9805,0 0,0 c -0.973,10e-5 -1.7639,0.7848 -1.7715,1.7578 l 0,47.84959 c 0,1.963 -1.58,3.543 -3.543,3.543 l -46.0683,0 c -1.963,0 -3.5449,-1.58 -3.5449,-3.543 l 0,-35.43159 c 10e-5,-0.9783 0.7931,-1.7714 1.7714,-1.7715 l 26.7051,0 c 0.9783,10e-5 1.7714,0.7932 1.7715,1.7715 10e-5,0.9776 0.7919,1.7703 1.7695,1.7714 0.9784,-1e-4 1.7714,-0.793 1.7715,-1.7714 -10e-5,-0.9783 -0.7931,-1.7715 -1.7715,-1.7715 -0.9776,0 -1.7694,-0.7939 -1.7695,-1.7715 l 0,-8.8594 c 10e-5,-0.9776 0.7919,-1.7704 1.7695,-1.7715 0.9783,-10e-5 1.7714,-0.7931 1.7715,-1.7715 -10e-5,-0.9783 -0.7931,-1.7713 -1.7715,-1.7714 -0.9776,0 -1.7694,0.7938 -1.7695,1.7714 -10e-5,0.9784 -0.7932,1.7714 -1.7715,1.7715 l -26.7031,0 c -0.9783,-10e-5 -1.7714,-0.7932 -1.7715,-1.7715 l 0,-154.0721 c 4e-4,-3.9141 3.1739,-7.0867 7.0879,-7.086 l 7.0859,0 c 9.781,0 17.708,-7.9338 17.709,-17.7148 10e-5,-9.7817 -7.9272,-17.7126 -17.709,-17.7168 l -7.0859,0 c -3.9141,7e-4 -7.0875,-3.1718 -7.0879,-7.0859 -0.018,-37.7057 0,-109.0176 0,-109.0176 1e-4,-0.9783 0.7932,-1.7714 1.7715,-1.7715 l 26.7031,-0.01 c 0.9783,10e-5 1.7714,0.7932 1.7715,1.7715 10e-5,0.9775 0.7919,1.7704 1.7695,1.7715 0.9784,0 1.7714,-0.7932 1.7715,-1.7715 -10e-5,-0.9784 -0.7931,-1.7714 -1.7715,-1.7715 -0.9776,0 -1.7694,-0.7938 -1.7695,-1.7714 l 0,-8.8594 c 10e-5,-0.9776 0.7919,-1.7703 1.7695,-1.7715 0.9784,-10e-5 1.7714,-0.7931 1.7715,-1.7715 -10e-5,-0.9783 -0.7931,-1.7714 -1.7715,-1.7715 -0.9776,0.001 -1.7694,0.794 -1.7695,1.7715 -10e-5,0.9783 -0.7932,1.7714 -1.7715,1.7715 l -26.7754,0 c -0.9492,-0.038 -1.6997,-0.8176 -1.7011,-1.7676 l 0,-17.7187 c 0,-1.963 1.5819,-3.5449 3.5449,-3.5449 l 0,0.01 46.0664,0 0,0 c 1.963,0 3.543,1.5799 3.543,3.543 l 0,30.1328 c 0.01,0.973 0.7985,1.7577 1.7715,1.7578 l 8.9824,0 c 3.9128,0 7.0648,3.1393 7.0859,7.0469 m -35.4297,78.9218 c -2.935,2e-4 -5.3142,2.3792 -5.3144,5.3145 3e-4,2.935 2.3795,5.3141 5.3144,5.3144 2.935,-3e-4 5.3142,-2.3795 5.3145,-5.3144 -3e-4,-2.9352 -2.3795,-5.3142 -5.3145,-5.3145 z m 0,205.3222 c -2.9357,-7e-4 -5.3161,2.3787 -5.3164,5.3144 -8e-4,2.9365 2.3799,5.3172 5.3164,5.3164 2.9357,-3e-4 5.3153,-2.3807 5.3145,-5.3164 -3e-4,-2.9349 -2.3795,-5.3141 -5.3145,-5.3144 z"
       id="rect10188-7-8-3-9-9-9-0-4-3-72-8-8"
       inkscape:connector-curvature="0"
       sodipodi:nodetypes="csccccsssccccccscccccccccccsccccccccccccccccccccscccscccsccccccccccc" />
  </g>
</svg>
