<?xml version="1.0" encoding="UTF-8" standalone="no"?>
<!-- Created with Inkscape (http://www.inkscape.org/) -->

<svg
   xmlns:dc="http://purl.org/dc/elements/1.1/"
   xmlns:cc="http://creativecommons.org/ns#"
   xmlns:rdf="http://www.w3.org/1999/02/22-rdf-syntax-ns#"
   xmlns:svg="http://www.w3.org/2000/svg"
   xmlns="http://www.w3.org/2000/svg"
   xmlns:sodipodi="http://sodipodi.sourceforge.net/DTD/sodipodi-0.dtd"
   xmlns:inkscape="http://www.inkscape.org/namespaces/inkscape"
   width="384mm"
   height="384mm"
   viewBox="0 0 1360.6299 1360.6299"
   id="svg9447"
   version="1.1"
   inkscape:version="0.91 r13725"
   sodipodi:docname="p2-full-octogon-outline.svg">
  <defs
     id="defs9449" />
  <sodipodi:namedview
     id="base"
     pagecolor="#ffffff"
     bordercolor="#666666"
     borderopacity="1.0"
     inkscape:pageopacity="0.0"
     inkscape:pageshadow="2"
     inkscape:zoom="0.96123832"
     inkscape:cx="640.85455"
     inkscape:cy="664.99244"
     inkscape:document-units="mm"
     inkscape:current-layer="layer1"
     showgrid="false"
     inkscape:window-width="2495"
     inkscape:window-height="1576"
     inkscape:window-x="65"
     inkscape:window-y="24"
     inkscape:window-maximized="1" />
  <metadata
     id="metadata9452">
    <rdf:RDF>
      <cc:Work
         rdf:about="">
        <dc:format>image/svg+xml</dc:format>
        <dc:type
           rdf:resource="http://purl.org/dc/dcmitype/StillImage" />
        <dc:title></dc:title>
      </cc:Work>
    </rdf:RDF>
  </metadata>
  <g
     inkscape:label="Layer 1"
     inkscape:groupmode="layer"
     id="layer1"
     transform="translate(0,308.26772)">
    <path
       style="opacity:1;fill:none;fill-opacity:1;stroke:#0000ff;stroke-width:0.03543307;stroke-linecap:round;stroke-miterlimit:4;stroke-dasharray:none;stroke-dashoffset:0;stroke-opacity:1"
       d="m 1130.0735,-133.65648 a 7.0866297,7.0866141 0 0 0 -0.076,0.002 l -5.0079,0 -3.3789,0 -1.1406,0 -1.0254,0 -3.5547,0 0,0.002 -12.4473,0 0,0.002 -2.043,0 -1.8184,0 a 1.7716574,1.7716535 0 0 0 -1.7597,1.57813 l -0.01,-0.002 a 14.173259,14.173228 0 0 1 -14.0781,12.59766 14.173259,14.173228 0 0 1 -14.0684,-12.5918 l -0.018,0.002 a 1.7716574,1.7716535 0 0 0 -1.7598,-1.58399 l -3.8848,0 0,-0.002 -216.38324,0 -1.5078,0 -0.051,0 -2.82811,0 -7.79102,0 a 7.0866297,7.0866141 0 0 0 -4.96681,2.06836 7.0866297,7.0866141 0 0 0 -0.053,0.0566 l -3.54101,3.54101 -2.3887,2.38868 -0.8066,0.80664 -0.72461,0.72461 -2.5137,2.51562 0,0.002 -8.80672,8.80469 0,0.002 -1.4453,1.44336 -1.28521,1.28711 a 1.7716574,1.7716535 0 0 0 -0.1289,2.35938 l -0.01,0.006 a 14.173259,14.173228 0 0 1 -1.0469,18.863283 14.173259,14.173228 0 0 1 -18.85154,1.04297 l -0.012,0.0156 a 1.7716574,1.7716535 0 0 0 -2.36321,0.12305 l -2.7481,2.74805 -151.56675,151.56644 -0.002,0 -1.4375,1.4395 -1.06641,1.0664 -0.0117,0.01 -0.0234,0.025 -0.70117,0.7012 -0.75976,0.7578 -0.18946,0.1895 -0.34962,0.3515 -5.43751,5.4375 a 7.0866297,7.0866141 0 0 0 -0.0566,0.053 7.0866297,7.0866141 0 0 0 -0.90039,1.1132 7.0866297,7.0866141 0 0 0 -0.0723,0.1192 7.0866297,7.0866141 0 0 0 -1.09571,3.7344 l 0,9.123 0,1.5469 0,1.5097 0,2.0313 0,12.455097 0.002,0 0,2.0429 0,1.8184 a 1.7716574,1.7716535 0 0 0 1.57812,1.7598 l -0.002,0.01 a 14.173259,14.173228 0 0 1 12.59769,14.0782 14.173259,14.173228 0 0 1 -12.59183,14.0683 l 0.002,0.018 a 1.7716574,1.7716535 0 0 0 -1.58398,1.7598 l 0,3.8847 -0.002,0 0,216.3828 0,1.5078 0,0.051 0,2.8282 0,7.791 a 7.0866297,7.0866141 0 0 0 2.06836,4.9668 7.0866297,7.0866141 0 0 0 0.0566,0.053 l 3.54103,3.541 2.38868,2.3887 0.80664,0.8066 0.72461,0.7246 0,0 2.51563,2.5117 8.80861,8.8066 1.44532,1.4434 1.28516,1.2852 a 1.7716574,1.7716535 0 0 0 2.36134,0.1289 l 0.006,0.01 a 14.173259,14.173228 0 0 1 18.86136,1.0469 14.173259,14.173228 0 0 1 1.04493,18.8515 l 0.0137,0.012 a 1.7716574,1.7716535 0 0 0 0.125,2.3633 l 2.74415,2.7481 153.00614,153.0058 1.0664,1.0664 0.037,0.035 2.00001,2 5.50791,5.5098 a 7.0866297,7.0866141 0 0 0 4.97461,2.0488 7.0866297,7.0866141 0 0 0 0.078,0 l 5.00781,0 3.37701,0 1.1406,0 1.02541,0 3.5566,0 0,0 12.45313,0 0,0 2.04301,0 1.8184,0 a 1.7716574,1.7716535 0 0 0 1.7597,-1.5781 l 0.01,0 a 14.173259,14.173228 0 0 1 14.07813,-12.5977 14.173259,14.173228 0 0 1 14.06843,12.5918 l 0.018,0 a 1.7716574,1.7716535 0 0 0 1.75971,1.584 l 3.88481,0 0,0 216.38332,0 1.5078,0 0.051,0 2.8301,0 7.789,0 a 7.0866297,7.0866141 0 0 0 4.9668,-2.0684 7.0866297,7.0866141 0 0 0 0.055,-0.057 l 3.541,-3.541 2.3887,-2.3887 0.8067,-0.8067 0.7246,-0.7246 2.5136,-2.5156 0,0 8.8047,-8.8047 0,0 1.4433,-1.4433 1.2871,-1.2871 a 1.7716574,1.7716535 0 0 0 0.127,-2.3594 l 0.01,-0.01 a 14.173259,14.173228 0 0 1 1.0469,-18.8633 14.173259,14.173228 0 0 1 18.8516,-1.0429 l 0.012,-0.016 a 1.7716574,1.7716535 0 0 0 2.3652,-0.123 l 2.7461,-2.7461 0,0 151.5648,-151.5644 1.4414,-1.4395 1.0664,-1.0664 0.035,-0.035 1.457,-1.459 0.1894,-0.1895 0.3536,-0.3515 5.5098,-5.5098 a 7.0866297,7.0866141 0 0 0 2.0489,-4.9746 7.0866297,7.0866141 0 0 0 0,-0.078 l 0,-5.0059 0,-3.3789 0,-1.1406 0,-1.0254 0,-3.5566 0,0 0,-12.4532 0,-2.0429 0,-1.8184 a 1.7716574,1.7716535 0 0 0 -1.5781,-1.7598 l 0,-0.012 a 14.173259,14.173228 0 0 1 -12.5978,-14.0781 14.173259,14.173228 0 0 1 12.5919,-14.0684 l 0,-0.017 a 1.7716574,1.7716535 0 0 0 1.584,-1.7598 l 0,-3.8848 0,-216.382797 0,-1.5078 0,-0.051 0,-2.8281 0,-7.791 a 7.0866297,7.0866141 0 0 0 -2.0684,-4.9668 7.0866297,7.0866141 0 0 0 -0.057,-0.053 l -3.541,-3.541 -2.3888,-2.3886 -0.8066,-0.8067 -0.7246,-0.7246 0,0 -2.5157,-2.5137 0,0 -8.8047,-8.8027 0,0 -1.4453,-1.4434 -1.2852,-1.2852 a 1.7716574,1.7716535 0 0 0 -2.3593,-0.1289 l -0.012,-0.01 a 14.173259,14.173228 0 0 1 -18.8613,-1.0469 14.173259,14.173228 0 0 1 -1.0449,-18.851499 l -0.014,-0.012 a 1.7716574,1.7716535 0 0 0 -0.125,-2.3633 l -2.7461,-2.7481 -151.559,-151.558564 0,-0.002 -1.4472,-1.44531 -1.0664,-1.06641 0,-0.004 -0.033,-0.0312 -0.6934,-0.69336 -0.7578,-0.75977 -0.1894,-0.18945 -0.3594,-0.35742 -5.4297,-5.42969 a 7.0866297,7.0866141 0 0 0 -0.053,-0.0566 7.0866297,7.0866141 0 0 0 -0.027,-0.0234 7.0866297,7.0866141 0 0 0 -0.5273,-0.47266 7.0866297,7.0866141 0 0 0 -0.5645,-0.41211 7.0866297,7.0866141 0 0 0 -0.01,-0.006 7.0866297,7.0866141 0 0 0 -0.5801,-0.33984 7.0866297,7.0866141 0 0 0 -0.01,-0.002 7.0866297,7.0866141 0 0 0 -0.4336,-0.20313 7.0866297,7.0866141 0 0 0 -0.2168,-0.0976 7.0866297,7.0866141 0 0 0 -0.5586,-0.19532 7.0866297,7.0866141 0 0 0 -0.096,-0.0332 7.0866297,7.0866141 0 0 0 -1.9805,-0.28711 z m -72.8146,14.17774 a 3.5433149,3.5433071 0 0 1 3.5429,3.54492 3.5433149,3.5433071 0 0 1 -3.5429,3.54297 3.5433149,3.5433071 0 0 1 -3.543,-3.54297 3.5433149,3.5433071 0 0 1 3.543,-3.54492 z m 52.9512,0 a 3.5433149,3.5433071 0 0 1 3.5431,3.54492 3.5433149,3.5433071 0 0 1 -3.5431,3.54297 3.5433149,3.5433071 0 0 1 -3.5429,-3.54297 3.5433149,3.5433071 0 0 1 3.5429,-3.54492 z m -281.20168,10.93554 a 3.5433149,3.5433071 0 0 1 2.455,1.03711 3.5433149,3.5433071 0 0 1 0,5.01172 l 0,0 a 3.5433149,3.5433071 0 0 1 -5.00981,0 3.5433149,3.5433071 0 0 1 0,-5.01172 3.5433149,3.5433071 0 0 1 2.55671,-1.03711 z m 96.35171,5.88672 a 1.7716574,1.7716535 0 0 1 1.7715,1.77149 1.7716574,1.7716535 0 0 0 1.77151,1.771483 l 42.51959,0 8.85752,0 c 1.4713,0.001 2.65621,1.18661 2.65621,2.6582 l 0,7.08594 c 0,1.47159 -1.18491,2.6572 -2.65621,2.6582 l -8.85942,0 -35.43178,0 -7.08791,0 a 1.7716572,1.7716533 0 0 0 -1.77141,1.77149 1.7716572,1.7716533 0 0 1 -1.7696,1.77148 1.7716572,1.7716533 0 0 1 -1.7696,-1.77148 1.7716572,1.7716533 0 0 1 1.7715,-1.77149 1.7716572,1.7716533 0 0 0 1.7715,-1.77148 l 0,-1.77148 0,-5.31641 0,-1.77148 a 1.7716574,1.7716535 0 0 0 -1.7715,-1.77149 1.7716574,1.7716535 0 0 1 -1.7715,-1.771483 1.7716574,1.7716535 0 0 1 1.7715,-1.77149 z m 187.67237,0 a 1.7716576,1.7716537 0 0 1 1.7715,1.77149 1.7716576,1.7716537 0 0 1 -1.7715,1.771483 1.7716576,1.7716537 0 0 0 -1.7716,1.77149 l 0,1.77148 0,5.31641 0,1.77148 a 1.7716574,1.7716535 0 0 0 1.7716,1.77148 1.7716574,1.7716535 0 0 1 1.7715,1.77149 1.7716574,1.7716535 0 0 1 -1.7715,1.77148 1.7716574,1.7716535 0 0 1 -1.7716,-1.77148 1.7716574,1.7716535 0 0 0 -1.7715,-1.77149 l -7.0879,0 -35.4336,0 -8.8575,0 c -1.4723,0 -2.6582,-1.18595 -2.6582,-2.6582 l 0,-7.08594 c 0,-1.47225 1.1859,-2.6582 2.6582,-2.6582 l 8.8575,0 42.5215,0 a 1.7716576,1.7716537 0 0 0 1.7715,-1.771483 1.7716576,1.7716537 0 0 1 1.7716,-1.77149 z m -271.41275,4.531253 a 1.7716576,1.7716537 0 0 1 1.2266,0.51758 1.7716576,1.7716537 0 0 1 0,2.50586 1.7716576,1.7716537 0 0 0 0,2.50586 l 1.2519,1.25195 3.75981,3.75977 1.2519,1.25195 a 1.7716574,1.7716535 0 0 0 2.50591,0 1.7716574,1.7716535 0 0 1 2.5059,0 1.7716574,1.7716535 0 0 1 0,2.50586 1.7716574,1.7716535 0 0 1 -2.5059,0 1.7716574,1.7716535 0 0 0 -2.50591,0 l -5.01171,5.01172 -25.05475,25.05468 -6.26372,6.2637 c -1.041,1.041 -2.7187,1.041 -3.75971,0 l -5.00981,-5.0117 c -1.041,-1.0411 -1.041,-2.7168 0,-3.7579 l 6.26372,-6.2636 30.06646,-30.06643 a 1.7716576,1.7716537 0 0 0 0,-2.50586 1.7716576,1.7716537 0 0 1 0,-2.50586 1.7716576,1.7716537 0 0 1 1.27931,-0.51758 z m -50.05481,27.02344 a 3.5433149,3.5433071 0 0 1 2.4551,1.03906 3.5433149,3.5433071 0 0 1 0,5.00977 3.5433149,3.5433071 0 0 1 -5.01171,0 3.5433149,3.5433071 0 0 1 0,-5.01172 3.5433149,3.5433071 0 0 1 2.55661,-1.03711 z m 74.45136,0.58594 c 0.6759,-0.002 1.352,0.25218 1.873,0.76562 l 2.33791,2.33789 0,0.004 3.13871,3.13672 2.5254,2.52541 1.4101,1.4121 6.10942,6.1074 0.023,0.025 a 7.0866297,7.0866141 0 0 0 0.4083,0.3633 7.0866297,7.0866141 0 0 0 0.1,0.09 7.0866297,7.0866141 0 0 0 0.5644,0.416 7.0866297,7.0866141 0 0 0 3.90241,1.1797 7.0866297,7.0866141 0 0 0 0.078,0 l 8.22262,0 0.062,0 3.78521,0 0,0 154.09802,0 0,0 -5.3164,0 c 2.9445,0 5.3145,-2.3699 5.3145,-5.3144 l 0,-1.7715 0,-4.21681 c 0,-1.47225 1.186,-2.65631 2.6582,-2.65625 l 52.8438,0 c 1.4655,0 2.6457,1.17379 2.6564,2.63672 l 0,3.30664 0,4.4394 -0.01,0 0,3.5762 0,1.0293 0,1.0606 0,8.462899 a 7.0866297,7.0866141 0 0 0 0,0.076 7.0866297,7.0866141 0 0 0 1.6973,4.5899 7.0866297,7.0866141 0 0 0 0.3516,0.3847 l 0.027,0.025 5.8653,5.8672 0,0 2.7207,2.7207 105.2052,105.205001 c 2.082,2.0821 5.4337,2.0821 7.5157,0 l 1.2519,-1.25 0,0 2.9824,-2.9805 c 1.0411,-1.041 2.7168,-1.0387 3.7578,0 l 37.3654,37.365197 c 1.0363,1.0363 1.0423,2.7021 0.016,3.7442 l -2.3398,2.3378 0,0 -5.6622,5.6621 0,0 -0.7285,0.7285 -0.6797,0.6797 -0.07,0.07 -6.0645,6.0625 a 7.0866297,7.0866141 0 0 0 -0.3242,0.3613 7.0866297,7.0866141 0 0 0 -0.1289,0.1465 7.0866297,7.0866141 0 0 0 -0.2773,0.375 7.0866297,7.0866141 0 0 0 -0.1465,0.2031 7.0866297,7.0866141 0 0 0 -0.2617,0.4395 7.0866297,7.0866141 0 0 0 -0.094,0.1621 7.0866297,7.0866141 0 0 0 -0.8164,3.2871 7.0866297,7.0866141 0 0 0 0,0.078 l 0,8.2852 0,2.2675 0,1.5196 0.01,0 0,148.7793 c 0,2.9445 2.3699,5.3144 5.3144,5.3144 l 1.7715,0 0,0 4.2168,0 c 1.4722,0 2.6563,1.186 2.6562,2.6582 l 0,52.8438 c 0,1.4655 -1.1738,2.6455 -2.6367,2.6562 l -3.3066,0 0,0 -8.0078,0 -1.9961,0 -8.6739,0 a 7.0866297,7.0866141 0 0 0 -0.5937,0.033 7.0866297,7.0866141 0 0 0 -0.082,0 7.0866297,7.0866141 0 0 0 -0.584,0.09 7.0866297,7.0866141 0 0 0 -0.1191,0.02 7.0866297,7.0866141 0 0 0 -3.5859,1.9219 7.0866297,7.0866141 0 0 0 -0.053,0.057 l -5.8145,5.8145 -0.045,0.043 -1.6035,1.6036 -1.0742,1.0742 0,0 -105.2033,105.2051 c -2.0821,2.0821 -2.0821,5.4336 0,7.5156 l 1.2519,1.252 0,0 2.9825,2.9825 c 1.041,1.041 1.0397,2.7168 0,3.7578 l -37.3673,37.3672 c -1.0363,1.0363 -2.7001,1.0405 -3.7422,0.014 l -2.3379,-2.3379 0,0 -5.6621,-5.6621 -1.4121,-1.4121 -6.1328,-6.1328 a 7.0866297,7.0866141 0 0 0 -4.9746,-2.0488 7.0866297,7.0866141 0 0 0 -0.078,0 l -8.2286,0 -3.8476,0 -154.1,0 0,0 5.31651,0 c -2.94441,0 -5.31451,2.3699 -5.31451,5.3144 l 0,1.7715 0,4.2168 c 0,1.4723 -1.186,2.6563 -2.65821,2.6563 l -52.84391,0 c -1.46551,0 -2.64551,-1.1738 -2.65621,-2.6368 l 0,-3.3066 0,-4.4394 0,-3.5684 0,-0.01 0,-1.0293 0,-0.959 0,-0.1016 0,-8.4629 a 7.0866297,7.0866141 0 0 0 0,-0.076 l 0,-0.033 a 7.0866297,7.0866141 0 0 0 -0.037,-0.6739 7.0866297,7.0866141 0 0 0 -2.0313,-4.291 7.0866297,7.0866141 0 0 0 -0.059,-0.053 l -5.81442,-5.8164 -0.041,-0.043 -1.6035,-1.6035 -1.0743,-1.0743 0,0 -105.20733,-105.205 c -2.08201,-2.0821 -5.43352,-2.0821 -7.51562,0 l -1.2519,1.2519 0,0 -2.98051,2.9804 c -1.041,1.0411 -2.71881,1.0407 -3.75978,0 l -37.36532,-37.3672 c -1.0363,-1.0363 -1.04056,-2.7001 -0.0137,-3.7422 l 2.33789,-2.3378 0.004,0 3.13868,-3.1407 0.002,0 2.5215,-2.5254 0.006,0 0.72851,-0.7285 0.67578,-0.6778 0.0742,-0.072 5.98243,-5.9844 a 7.0866297,7.0866141 0 0 0 0.0566,-0.053 7.0866297,7.0866141 0 0 0 1.56446,-2.3789 7.0866297,7.0866141 0 0 0 0.2207,-0.6387 7.0866297,7.0866141 0 0 0 0.002,-0.01 7.0866297,7.0866141 0 0 0 0.10352,-0.4336 7.0866297,7.0866141 0 0 0 0.0606,-0.2597 7.0866297,7.0866141 0 0 0 0.0391,-0.2871 7.0866297,7.0866141 0 0 0 0.0566,-0.4336 7.0866297,7.0866141 0 0 0 0.0234,-0.5586 7.0866297,7.0866141 0 0 0 -0.002,-0.039 l 0,-8.2598 0.004,0 0,-3.8476 0,-154.0996 -0.002,0 0,5.3164 c 0,-2.9445 -2.36998,-5.3145 -5.31447,-5.3145 l -1.77149,0 0,0 -4.21681,0 c -1.47225,0 -2.65631,-1.1859 -2.65625,-2.6582 l 0,-52.8437 c 0,-1.4656 1.17379,-2.645597 2.63672,-2.656297 l 3.30665,0 0,0 8.00784,0 1.99609,0 8.60939,0 a 7.0866297,7.0866141 0 0 0 0.0391,0 7.0866297,7.0866141 0 0 0 1.43359,-0.1504 7.0866297,7.0866141 0 0 0 0.66017,-0.1699 7.0866297,7.0866141 0 0 0 0.0117,0 7.0866297,7.0866141 0 0 0 0.65429,-0.2403 7.0866297,7.0866141 0 0 0 0.01,0 7.0866297,7.0866141 0 0 0 0.22265,-0.1094 7.0866297,7.0866141 0 0 0 1.0293,-0.582 7.0866297,7.0866141 0 0 0 0.12891,-0.098 7.0866297,7.0866141 0 0 0 0.43164,-0.334 7.0866297,7.0866141 0 0 0 0.0312,-0.029 7.0866297,7.0866141 0 0 0 0.36133,-0.3301 l 5.89257,-5.8906 0,0 2.72071,-2.7207 105.20733,-105.207001 c 2.08201,-2.0821 2.08201,-5.4336 0,-7.5156 l -1.2539,-1.252 0,0 -2.98051,-2.9805 c -1.041,-1.041 -1.0397,-2.7168 0,-3.7578 l 37.36529,-37.367159 c 0.5182,-0.51815 1.1933,-0.77702 1.8692,-0.77929 z m 309.4772,23.88865 a 1.7716574,1.7716535 0 0 1 1.2266,0.5176 1.7716574,1.7716535 0 0 1 0,2.505899 1.7716574,1.7716535 0 0 0 0,2.5058 l 30.0665,30.0645 6.2617,6.263602 0,0 c 1.0397,1.0411 1.0392,2.7172 0,3.7578 l -5.0097,5.0098 c -1.0405,1.0405 -2.7168,1.04 -3.7578,0 l -6.2658,-6.2637 -25.0527,-25.054702 -5.0117,-5.0117 a 1.7716572,1.7716533 0 0 0 -2.5059,0 1.7716572,1.7716533 0 0 1 -2.5058,0 1.7716572,1.7716533 0 0 1 0,-2.5039 1.7716572,1.7716533 0 0 1 2.5058,0 1.7716572,1.7716533 0 0 0 2.5059,0 l 1.2519,-1.252 3.7598,-3.7597 1.2519,-1.252 a 1.7716574,1.7716535 0 0 0 0,-2.5058 1.7716574,1.7716535 0 0 1 0,-2.505899 1.7716574,1.7716535 0 0 1 1.2793,-0.5176 z M 750.85585,-2.011996 c 0.6793,2e-4 1.3586,0.2593 1.8789,0.7793 l 5.00981,5.0118 c 1.0406,1.0405 1.042,2.7167 0,3.7578 l -6.26371,6.2636 -25.05476,25.0547 -5.01171,5.011799 a 1.7716572,1.7716533 0 0 0 0,2.5039 1.7716572,1.7716533 0 0 1 0,2.5058 1.7716572,1.7716533 0 0 1 -2.5039,0 1.7716572,1.7716533 0 0 1 0,-2.5058 1.7716572,1.7716533 0 0 0 0,-2.5039 l -1.25392,-1.254 -3.75978,-3.757799 -1.25195,-1.2539 a 1.7716574,1.7716535 0 0 0 -2.50586,0 1.7716574,1.7716535 0 0 1 -2.50391,0 1.7716574,1.7716535 0 0 1 0,-2.5039 1.7716574,1.7716535 0 0 1 2.50391,0 1.7716574,1.7716535 0 0 0 2.50586,0 l 30.0665,-30.0664 6.26371,-6.2637 c 0.5205,-0.5198 1.1996,-0.7794 1.87891,-0.7793 z m 528.57145,36.2364 a 3.5433149,3.5433071 0 0 1 2.4551,1.0371 3.5433149,3.5433071 0 0 1 0,5.0117 3.5433149,3.5433071 0 0 1 -5.0117,0 l 0,0 a 3.5433149,3.5433071 0 0 1 0,-5.0098 3.5433149,3.5433071 0 0 1 2.5586,-1.039 z m -13.2226,15.259699 c 0.6795,0 1.3584,0.2588 1.8789,0.7793 l 6.2637,6.2637 30.0665,30.0684 a 1.7716576,1.7716537 0 0 0 2.5058,0 1.7716576,1.7716537 0 0 1 2.5039,0 1.7716576,1.7716537 0 0 1 0,2.5039 1.7716576,1.7716537 0 0 1 -2.5039,0 1.7716576,1.7716537 0 0 0 -2.5058,0 l -1.252,1.2539 -3.7598,3.7578 -1.2519,1.2539 a 1.7716574,1.7716535 0 0 0 0,2.5039 1.7716574,1.7716535 0 0 1 0,2.505897 1.7716574,1.7716535 0 0 1 -2.5059,0 1.7716574,1.7716535 0 0 1 0,-2.505897 1.7716574,1.7716535 0 0 0 0,-2.5039 l -5.0118,-5.0117 -25.0547,-25.0567 -6.2636,-6.2617 c -1.041,-1.041 -1.041,-2.7187 0,-3.7597 l 5.0097,-5.0118 c 0.5206,-0.5205 1.2013,-0.7793 1.8809,-0.7793 z m 50.6641,22.1836 a 3.5433149,3.5433071 0 0 1 2.4551,1.0371 3.5433149,3.5433071 0 0 1 0,5.0118 3.5433149,3.5433071 0 0 1 -5.0097,0 l 0,0 a 3.5433149,3.5433071 0 0 1 0,-5.0118 3.5433149,3.5433071 0 0 1 2.5566,-1.0371 z m -664.01512,25.3457 a 1.7716576,1.7716537 0 0 1 1.77149,1.7715 1.7716576,1.7716537 0 0 0 1.77149,1.771497 l 1.77148,0 5.31642,0 1.7715,0 a 1.7716574,1.7716535 0 0 0 1.77148,-1.771497 1.7716574,1.7716535 0 0 1 1.77149,-1.7715 1.7716574,1.7716535 0 0 1 1.77149,1.7715 1.7716574,1.7716535 0 0 1 -1.77149,1.771497 1.7716574,1.7716535 0 0 0 -1.77149,1.7715 l 0,7.0879 0,35.4336 0,8.8574 c 0,1.4722 -1.18595,2.6582 -2.6582,2.6582 l -7.08596,0 c -1.47225,0 -2.65821,-1.186 -2.65821,-2.6582 l 0,-8.8574 0,-42.5215 a 1.7716576,1.7716537 0 0 0 -1.77149,-1.7715 1.7716576,1.7716537 0 0 1 -1.77148,-1.771497 1.7716576,1.7716537 0 0 1 1.77148,-1.7715 z m -15.04886,1.0508 a 3.5433149,3.5433071 0 0 1 3.54297,3.542997 3.5433149,3.5433071 0 0 1 -3.54297,3.543 3.5433149,3.5433071 0 0 1 -3.54493,-3.543 3.5433149,3.5433071 0 0 1 3.54493,-3.542997 z m 0,52.951197 a 3.5433149,3.5433071 0 0 1 3.54297,3.543 3.5433149,3.5433071 0 0 1 -3.54297,3.5429 3.5433149,3.5433071 0 0 1 -3.54493,-3.5429 3.5433149,3.5433071 0 0 1 3.54493,-3.543 z m 658.95268,18.8281 a 1.7716572,1.7716533 0 0 1 1.7715,1.7715 1.7716572,1.7716533 0 0 0 1.7715,1.7715 l 1.7715,0 5.3164,0 1.7715,0 a 1.7716574,1.7716535 0 0 0 1.7714,-1.7715 1.7716574,1.7716535 0 0 1 1.7715,-1.7715 1.7716574,1.7716535 0 0 1 1.7715,1.7715 1.7716574,1.7716535 0 0 1 -1.7715,1.7715 1.7716574,1.7716535 0 0 0 -1.7715,1.7715 l 0,42.5195 0,8.8574 0,0 c -10e-4,1.4713 -1.1866,2.6562 -2.6582,2.6562 l -7.0859,0 c -1.4716,0 -2.6572,-1.1849 -2.6582,-2.6562 l 0,-8.8594 0,-35.4316 0,-7.0879 a 1.7716572,1.7716533 0 0 0 -1.7715,-1.7715 1.7716572,1.7716533 0 0 1 -1.7715,-1.7715 1.7716572,1.7716533 0 0 1 1.7715,-1.7715 z m -639.47412,59.0352 7.08596,0 c 1.47159,0 2.6572,1.1849 2.6582,2.6562 l 0,8.8594 0,35.4316 0,7.0879 a 1.7716572,1.7716533 0 0 0 1.77149,1.7715 1.7716572,1.7716533 0 0 1 1.77149,1.7715 1.7716572,1.7716533 0 0 1 -1.77149,1.7715 1.7716572,1.7716533 0 0 1 -1.77149,-1.7715 1.7716572,1.7716533 0 0 0 -1.77148,-1.7715 l -1.7715,0 -5.31642,0 -1.77148,0 a 1.7716574,1.7716535 0 0 0 -1.77149,1.7715 1.7716574,1.7716535 0 0 1 -1.77149,1.7715 1.7716574,1.7716535 0 0 1 -1.77148,-1.7715 1.7716574,1.7716535 0 0 1 1.77148,-1.7715 1.7716574,1.7716535 0 0 0 1.77149,-1.7715 l 0,-42.5195 0,-8.8574 0,0 c 10e-4,-1.4713 1.18662,-2.6562 2.65821,-2.6562 z m 670.46832,71.0918 a 3.5433149,3.5433071 0 0 1 3.5449,3.5429 3.5433149,3.5433071 0 0 1 -3.5449,3.543 3.5433149,3.5433071 0 0 1 -3.543,-3.543 3.5433149,3.5433071 0 0 1 3.543,-3.5429 z m -26.5645,1.7363 7.0859,0 c 1.4723,0 2.6582,1.186 2.6582,2.6582 l 0,8.8574 0,42.5215 a 1.7716576,1.7716537 0 0 0 1.7715,1.7715 1.7716576,1.7716537 0 0 1 1.7715,1.7715 1.7716576,1.7716537 0 0 1 -1.7715,1.7715 1.7716576,1.7716537 0 0 1 -1.7715,-1.7715 1.7716576,1.7716537 0 0 0 -1.7714,-1.7715 l -1.7715,0 -5.3164,0 -1.7715,0 a 1.7716574,1.7716535 0 0 0 -1.7715,1.7715 1.7716574,1.7716535 0 0 1 -1.7715,1.7715 1.7716574,1.7716535 0 0 1 -1.7715,-1.7715 1.7716574,1.7716535 0 0 1 1.7715,-1.7715 1.7716574,1.7716535 0 0 0 1.7715,-1.7715 l 0,-7.0879 0,-35.4336 0,-8.8574 c 0,-1.4722 1.186,-2.6582 2.6582,-2.6582 z m 26.5645,51.2148 a 3.5433149,3.5433071 0 0 1 3.5449,3.543 3.5433149,3.5433071 0 0 1 -3.5449,3.543 3.5433149,3.5433071 0 0 1 -3.543,-3.543 3.5433149,3.5433071 0 0 1 3.543,-3.543 z m -659.06595,4.2559 a 1.7716574,1.7716535 0 0 1 1.22657,0.5195 1.7716574,1.7716535 0 0 1 0,2.5039 1.7716574,1.7716535 0 0 0 0,2.5059 l 5.01172,5.0117 25.05669,25.0567 6.26174,6.2617 c 1.04103,1.041 1.04103,2.7187 0,3.7597 l -5.00977,5.0098 c -1.04105,1.041 -2.71875,1.041 -3.75978,0 l -6.26369,-6.2617 -30.06647,-30.0684 a 1.7716576,1.7716537 0 0 0 -2.50586,0 1.7716576,1.7716537 0 0 1 -2.50391,0 1.7716576,1.7716537 0 0 1 0,-2.5039 1.7716576,1.7716537 0 0 1 2.50391,0 1.7716576,1.7716537 0 0 0 2.50586,0 l 1.25196,-1.2539 3.75977,-3.7597 1.25196,-1.252 a 1.7716574,1.7716535 0 0 0 0,-2.5059 1.7716574,1.7716535 0 0 1 0,-2.5039 1.7716574,1.7716535 0 0 1 1.2793,-0.5195 z m -19.89458,22.1406 a 3.5433149,3.5433071 0 0 1 2.45314,1.0371 3.5433149,3.5433071 0 0 1 0,5.0118 3.5433149,3.5433071 0 0 1 -5.01173,0 3.5433149,3.5433071 0 0 1 0.002,-5.0118 3.5433149,3.5433071 0 0 1 2.55664,-1.0371 z m 596.62823,29.3574 a 1.7716572,1.7716533 0 0 1 1.2246,0.5196 1.7716572,1.7716533 0 0 1 0,2.5039 1.7716572,1.7716533 0 0 0 0,2.5058 l 1.2539,1.252 3.7599,3.7598 1.252,1.2539 a 1.7716574,1.7716535 0 0 0 2.5058,0 1.7716574,1.7716535 0 0 1 2.5039,0 1.7716574,1.7716535 0 0 1 0,2.5039 1.7716574,1.7716535 0 0 1 -2.5039,0 1.7716574,1.7716535 0 0 0 -2.5058,0 l -30.0665,30.0664 -6.2618,6.2637 c -1.041,1.0396 -2.7173,1.0401 -3.7578,0 l -5.0117,-5.0118 c -1.0405,-1.0405 -1.041,-2.7167 0,-3.7578 l 6.2656,-6.2636 25.0528,-25.0547 5.0117,-5.0118 a 1.7716572,1.7716533 0 0 0 0,-2.5058 1.7716572,1.7716533 0 0 1 0,-2.5039 1.7716572,1.7716533 0 0 1 1.2773,-0.5196 z m -559.18674,8.084 a 3.5433149,3.5433071 0 0 1 2.45313,1.0371 l 0.002,0 a 3.5433149,3.5433071 0 0 1 0,5.0098 3.5433149,3.5433071 0 0 1 -5.01369,0 3.5433149,3.5433071 0 0 1 0.002,-5.0137 3.5433149,3.5433071 0 0 1 2.55664,-1.0371 z m 73.1642,36.5313 c 0.67931,-2e-4 1.35841,0.2592 1.87891,0.7793 l 6.26571,6.2656 25.05276,25.0547 5.01171,5.0117 a 1.7716572,1.7716533 0 0 0 2.5059,0 1.7716572,1.7716533 0 0 1 2.50581,0 1.7716572,1.7716533 0 0 1 0,2.5039 1.7716572,1.7716533 0 0 1 -2.50581,0 1.7716572,1.7716533 0 0 0 -2.5059,0 l -1.2519,1.252 -3.75981,3.7597 -1.25201,1.252 a 1.7716574,1.7716535 0 0 0 0,2.5058 1.7716574,1.7716535 0 0 1 0,2.5059 1.7716574,1.7716535 0 0 1 -2.5058,0 1.7716574,1.7716535 0 0 1 0,-2.5059 1.7716574,1.7716535 0 0 0 0,-2.5058 l -30.06647,-30.0645 -6.26171,-6.2636 0,0 c -1.0397,-1.0411 -1.0383,-2.7172 0,-3.7578 l 5.00971,-5.0098 c 0.5203,-0.5203 1.1997,-0.781 1.8789,-0.7812 z m 395.25874,51.4961 c 0.6795,0 1.3603,0.2607 1.8808,0.7812 l 5.0099,5.0098 c 1.041,1.041 1.041,2.7187 0,3.7598 l -6.2638,6.2636 -30.0664,30.0664 a 1.7716576,1.7716537 0 0 0 0,2.5059 1.7716576,1.7716537 0 0 1 0,2.5059 1.7716576,1.7716537 0 0 1 -2.5059,0 1.7716576,1.7716537 0 0 1 0,-2.5059 1.7716576,1.7716537 0 0 0 0,-2.5059 l -1.2519,-1.2519 -3.7598,-3.7598 -1.2519,-1.2519 a 1.7716574,1.7716535 0 0 0 -2.5059,0 1.7716574,1.7716535 0 0 1 -2.506,0 1.7716574,1.7716535 0 0 1 0,-2.5059 1.7716574,1.7716535 0 0 1 2.506,0 1.7716574,1.7716535 0 0 0 2.5059,0 l 5.0117,-5.0117 25.0547,-25.0547 6.2636,-6.2637 c 0.5205,-0.5205 1.1994,-0.7812 1.879,-0.7812 z m 19.4395,17.3008 a 3.5433149,3.5433071 0 0 1 2.4531,1.0371 3.5433149,3.5433071 0 0 1 0,5.0117 3.5433149,3.5433071 0 0 1 -5.0117,0 3.5433149,3.5433071 0 0 1 0,-5.0097 3.5433149,3.5433071 0 0 1 2.5586,-1.0371 z M 852.52407,541.24 a 1.7716574,1.7716535 0 0 1 1.7715,1.7715 1.7716574,1.7716535 0 0 0 1.77151,1.7715 l 7.08791,0 35.43358,0 8.85752,0 c 1.4723,0 2.65821,1.1859 2.65821,2.6582 l 0,7.0859 c 0,1.4723 -1.18591,2.6582 -2.65821,2.6582 l -8.85752,0 -42.52149,0 a 1.7716576,1.7716537 0 0 0 -1.77151,1.7715 1.7716576,1.7716537 0 0 1 -1.7715,1.7715 1.7716576,1.7716537 0 0 1 -1.7715,-1.7715 1.7716576,1.7716537 0 0 1 1.7715,-1.7715 1.7716576,1.7716537 0 0 0 1.7715,-1.7715 l 0,-1.7715 0,-5.3164 0,-1.7714 a 1.7716574,1.7716535 0 0 0 -1.7715,-1.7715 1.7716574,1.7716535 0 0 1 -1.7715,-1.7715 1.7716574,1.7716535 0 0 1 1.7715,-1.7715 z m 187.67233,0 0,0 a 1.7716572,1.7716533 0 0 1 1.7696,1.7715 1.7716572,1.7716533 0 0 1 -1.7715,1.7715 1.7716572,1.7716533 0 0 0 -1.7715,1.7715 l 0,1.7714 0,5.3164 0,1.7715 a 1.7716574,1.7716535 0 0 0 1.7715,1.7715 1.7716574,1.7716535 0 0 1 1.7715,1.7715 1.7716574,1.7716535 0 0 1 -1.7715,1.7715 1.7716574,1.7716535 0 0 1 -1.7715,-1.7715 1.7716574,1.7716535 0 0 0 -1.7715,-1.7715 l -42.51962,0 -8.85752,0 c -1.4713,-10e-4 -2.6562,-1.1866 -2.6562,-2.6582 l 0,-7.0859 c 0,-1.4716 1.1849,-2.6572 2.6562,-2.6582 l 8.85942,0 35.43172,0 7.088,0 a 1.7716572,1.7716533 0 0 0 1.7714,-1.7715 1.7716572,1.7716533 0 0 1 1.7696,-1.7715 z m 96.4552,18.2891 a 3.5433149,3.5433071 0 0 1 2.4532,1.0371 3.5433149,3.5433071 0 0 1 0,5.0117 3.5433149,3.5433071 0 0 1 -5.0117,0 3.5433149,3.5433071 0 0 1 0,-5.0117 l 0,0 a 3.5433149,3.5433071 0 0 1 2.5566,-1.0371 z m -281.30522,10.9336 a 3.5433149,3.5433071 0 0 1 3.5429,3.5429 3.5433149,3.5433071 0 0 1 -3.5429,3.5449 3.5433149,3.5433071 0 0 1 -3.54301,-3.5449 3.5433149,3.5433071 0 0 1 3.54301,-3.5429 z m 52.95121,0 a 3.5433149,3.5433071 0 0 1 3.54301,3.5429 3.5433149,3.5433071 0 0 1 -3.54301,3.5449 3.5433149,3.5433071 0 0 1 -3.54291,-3.5449 3.5433149,3.5433071 0 0 1 3.54291,-3.5429 z"
       id="rect16534-09-36-4-1-1-9"
       inkscape:connector-curvature="0" />
    <path
       style="opacity:1;fill:none;fill-opacity:1;stroke:#0000ff;stroke-width:0.03543307;stroke-linecap:round;stroke-miterlimit:4;stroke-dasharray:none;stroke-dashoffset:0;stroke-opacity:1"
       d="m 911.76973,69.102201 c -0.021,-3.9076 -3.17314,-7.0468 -7.08596,-7.0468 l -8.85353,0 -0.002,0 c -0.97756,0 -1.76944,-0.7939 -1.76952,-1.7715 l -0.002,-30.1192 c 0,-1.963202 -1.57997,-3.542902 -3.54298,-3.542902 l -46.0626,0 -0.002,0 c -1.9621,0.001 -3.54142,1.5826 -3.54103,3.544902 l 0,17.7578 c 0.0229,0.9473 0.78706,1.7088 1.73439,1.7285 l 26.61334,0 c 0.97829,-1e-4 1.77138,-0.7932 1.77148,-1.7715 9e-5,-0.9775 0.79194,-1.7704 1.76953,-1.7715 0.97834,1e-4 1.77141,0.7932 1.7715,1.7715 -10e-5,0.9784 -0.79316,1.7714 -1.7715,1.7715 -0.97759,10e-4 -1.76944,0.7939 -1.76953,1.7715 l 0,8.8594 c 9e-5,0.9776 0.79194,1.7703 1.76953,1.7715 0.97831,10e-5 1.77136,0.7931 1.7715,1.7714 -9e-5,0.9783 -0.79315,1.7715 -1.7715,1.7715 -0.97759,0 -1.76944,-0.7939 -1.76953,-1.7715 -1.4e-4,-0.9783 -0.79322,-1.7713 -1.77148,-1.7714 l -26.57428,0 c -0.97833,10e-5 -1.77141,0.7932 -1.77149,1.7715 -0.0453,108.833789 0,312.693199 0,312.693199 8e-5,0.9783 0.79316,1.7714 1.77149,1.7715 l 26.57428,0 c 0.9783,-1e-4 1.77139,-0.7932 1.77148,-1.7715 9e-5,-0.9776 0.79194,-1.7703 1.76953,-1.7715 0.97835,10e-5 1.77141,0.7932 1.7715,1.7715 -9e-5,0.9784 -0.79315,1.7714 -1.7715,1.7715 -0.97759,10e-4 -1.76944,0.7939 -1.76953,1.7715 l 0,8.8593 c -9.6e-4,0.9783 0.79119,1.7724 1.76953,1.7735 0.97835,1e-4 1.77141,0.7932 1.7715,1.7715 -9e-5,0.9783 -0.79315,1.7714 -1.7715,1.7715 -0.97759,0 -1.76944,-0.7939 -1.76953,-1.7715 -9e-5,-0.9783 -0.79318,-1.7714 -1.77148,-1.7715 l -26.57819,0 c -0.96178,9e-4 -1.7472,0.769 -1.76954,1.7305 l 0,35.4726 c 0,1.963 1.57998,3.543 3.54298,3.543 l 46.0626,0 c 1.96301,0 3.54298,-1.58 3.54298,-3.543 l 0.002,-47.8359 c 1.4e-4,-0.9775 0.792,-1.7703 1.76952,-1.7715 l 8.85549,0 c 3.91282,-6e-4 7.06486,-3.1393 7.08596,-7.0469 m -35.4259,-223.2265 c 2.93498,2e-4 5.31414,2.3796 5.31446,5.3145 -2.6e-4,2.93499 -2.37944,5.31409 -5.31446,5.31439 -2.93575,0 -5.31616,-2.3786 -5.31642,-5.31439 3.2e-4,-2.9357 2.38071,-5.3153 5.31642,-5.3145 z m -0.01,205.3437 c 2.93498,3e-4 5.31421,2.3794 5.31447,5.3144 -3.2e-4,2.9349 -2.37953,5.3142 -5.31447,5.3145 -2.93571,8e-4 -5.31609,-2.3788 -5.31641,-5.3145 2.6e-4,-2.9358 2.38066,-5.3152 5.31641,-5.3144 z"
       id="rect10188-7-8-3-9-9-9-4-0-1"
       inkscape:connector-curvature="0"
       sodipodi:nodetypes="cscsccsccccccccccccccscccccccsccccccccscccsssccccccccccccccc" />
    <path
       style="opacity:1;fill:none;fill-opacity:1;stroke:#0000ff;stroke-width:0.03543307;stroke-linecap:round;stroke-miterlimit:4;stroke-dasharray:none;stroke-dashoffset:0;stroke-opacity:1"
       d="m 982.76404,30.166701 c 0,-1.963002 -1.58193,-3.544902 -3.54493,-3.544902 l -10e-6,0.01 -46.0665,0 -0.002,0 c -1.96301,0 -3.54298,1.5799 -3.54298,3.543002 l 0.002,30.1328 c -0.008,0.973 -0.79849,1.7577 -1.77149,1.7578 l -8.98244,0 c -3.91281,0 -7.06486,3.1393 -7.08596,7.0469 l 0,302.144399 c 0.021,3.9076 3.17315,7.0469 7.08596,7.0469 l 8.98049,0 0.002,0 c 0.973,10e-5 1.76388,0.7848 1.77149,1.7578 l -0.002,47.8496 c 0,1.963 1.57997,3.543 3.54298,3.543 l 46.06846,0 c 1.963,0 3.54493,-1.58 3.54493,-3.543 m 0,-35.4316 c -9e-5,-0.9783 -0.79316,-1.7714 -1.77149,-1.7715 l -26.70513,0 c -0.9783,1e-4 -1.77139,0.7932 -1.77148,1.7715 -8e-5,0.9776 -0.79194,1.7703 -1.76953,1.7714 -0.97835,-1e-4 -1.77141,-0.793 -1.7715,-1.7714 9e-5,-0.9783 0.79315,-1.7715 1.7715,-1.7715 0.97759,0 1.76945,-0.7939 1.76953,-1.7715 l 0,-8.8594 c -8e-5,-0.9776 -0.79194,-1.7704 -1.76953,-1.7715 -0.97831,-10e-5 -1.77136,-0.7931 -1.7715,-1.7715 9e-5,-0.9783 0.79315,-1.7713 1.7715,-1.7714 0.97759,0 1.76945,0.7938 1.76953,1.7714 1.4e-4,0.9784 0.79322,1.7714 1.77148,1.7715 l 26.70318,0 c 0.97833,-10e-5 1.77141,-0.7932 1.77149,-1.7715 m 0.002,-154.07211 c -4e-4,-3.9141 -3.17385,-7.0867 -7.08791,-7.086 l -7.08595,0 c -9.78095,0 -17.70803,-7.9338 -17.70901,-17.7148 -1.3e-4,-9.7817 7.92727,-17.7126 17.70901,-17.7168 l 7.08595,0 c 3.9141,7e-4 7.08756,-3.1718 7.08791,-7.0859 m -0.002,-109.017589 c -8e-5,-0.9783 -0.79316,-1.7714 -1.77149,-1.7715 l -26.70318,-0.01 c -0.97829,1e-4 -1.77139,0.7932 -1.77148,1.7715 -10e-5,0.9775 -0.79194,1.7704 -1.76953,1.7715 -0.97834,0 -1.7714,-0.7932 -1.7715,-1.7715 9e-5,-0.9784 0.79316,-1.7714 1.7715,-1.7715 0.97759,-10e-4 1.76943,-0.7938 1.76953,-1.7714 l 0,-8.8594 c -10e-5,-0.9776 -0.79194,-1.7703 -1.76953,-1.7715 -0.97834,-1e-4 -1.77141,-0.7931 -1.7715,-1.7715 10e-5,-0.9783 0.79316,-1.7714 1.7715,-1.7715 0.97759,10e-4 1.76943,0.794 1.76953,1.7715 9e-5,0.9783 0.79319,1.7714 1.77148,1.7715 l 26.77544,0 c 0.94926,-0.038 1.69976,-0.8176 1.70118,-1.7676 M 947.19951,148.0341 c 2.93499,2e-4 5.31419,2.3792 5.31446,5.3145 -3.1e-4,2.93499 -2.3795,5.31409 -5.31446,5.31439 -2.93494,-3e-4 -5.31415,-2.3795 -5.31446,-5.31439 2.7e-4,-2.9352 2.37948,-5.3142 5.31446,-5.3145 z m 0,205.3222 c 2.9357,-7e-4 5.31611,2.3787 5.31642,5.3144 7.9e-4,2.9365 -2.37994,5.3172 -5.31642,5.3164 -2.93572,-3e-4 -5.31525,-2.3807 -5.31446,-5.3164 3.1e-4,-2.9349 2.37952,-5.3141 5.31446,-5.3144 z"
       id="rect10188-7-8-3-9-9-9-0-4-3-7"
       inkscape:connector-curvature="0"
       sodipodi:nodetypes="ccccscccsccsccccsscccccccscccccccccccscccccccccccccccccccccccccccccc" />
    <path
       style="opacity:1;fill:none;fill-opacity:1;stroke:#0000ff;stroke-width:0.03543307;stroke-linecap:round;stroke-miterlimit:4;stroke-dasharray:none;stroke-dashoffset:0;stroke-opacity:1"
       d="m 1121.0943,26.621799 c 1.9621,0.001 3.5414,1.5826 3.5411,3.544902 l 0,17.7578 c -0.023,0.9473 -0.7871,1.7088 -1.7344,1.7285 l -26.6134,0 c -0.9783,-1e-4 -1.7714,-0.7932 -1.7715,-1.7715 -10e-5,-0.9775 -0.7919,-1.7704 -1.7695,-1.7715 -0.9783,1e-4 -1.7714,0.7932 -1.7715,1.7715 10e-5,0.9784 0.7932,1.7714 1.7715,1.7715 0.9776,10e-4 1.7694,0.7939 1.7695,1.7715 l 0,8.8594 c -10e-5,0.9776 -0.7919,1.7703 -1.7695,1.7715 -0.9783,10e-5 -1.7714,0.7931 -1.7715,1.7714 10e-5,0.9783 0.7931,1.7715 1.7715,1.7715 0.9776,0 1.7694,-0.7939 1.7695,-1.7715 2e-4,-0.9783 0.7932,-1.7713 1.7715,-1.7714 l 26.5743,0 c 0.9783,10e-5 1.7714,0.7932 1.7715,1.7715 0.045,108.833789 0,312.693199 0,312.693199 -10e-5,0.9783 -0.7932,1.7714 -1.7715,1.7715 l -26.5743,0 c -0.9783,-1e-4 -1.7714,-0.7932 -1.7715,-1.7715 -10e-5,-0.9776 -0.7919,-1.7703 -1.7695,-1.7715 -0.9784,10e-5 -1.7714,0.7932 -1.7715,1.7715 10e-5,0.9784 0.7931,1.7714 1.7715,1.7715 0.9776,10e-4 1.7694,0.7939 1.7695,1.7715 l 0,8.8593 c 10e-4,0.9783 -0.7912,1.7724 -1.7695,1.7735 -0.9784,1e-4 -1.7714,0.7932 -1.7715,1.7715 10e-5,0.9783 0.7931,1.7714 1.7715,1.7715 0.9776,0 1.7694,-0.7939 1.7695,-1.7715 10e-5,-0.9783 0.7932,-1.7714 1.7715,-1.7715 l 26.5782,0 c 0.9618,9e-4 1.7472,0.769 1.7696,1.7305 l 0,35.4726 c 0,1.963 -1.58,3.543 -3.543,3.543 l -46.0626,0 c -1.963,0 -3.543,-1.58 -3.543,-3.543 l 0,-47.8359 c -2e-4,-0.9775 -0.792,-1.7703 -1.7695,-1.7715 l -8.8556,0 c -3.9128,-6e-4 -7.0648,-3.1393 -7.0859,-7.0469 l 0,-302.142499 c 0.021,-3.9076 3.1731,-7.0468 7.0859,-7.0468 l 8.8536,0 0,0 c 0.9776,0 1.7694,-0.7939 1.7695,-1.7715 l 0,-30.1192 c 0,-1.963202 1.58,-3.542902 3.543,-3.542902 l 46.0626,0 z M 1089.1997,148.0182 c -2.935,2e-4 -5.3141,2.3796 -5.3145,5.3145 3e-4,2.93499 2.3795,5.31409 5.3145,5.31439 2.9358,0 5.3162,-2.3786 5.3164,-5.31439 -3e-4,-2.9357 -2.3807,-5.3153 -5.3164,-5.3145 z m 0.01,205.3437 c -2.935,3e-4 -5.3142,2.3794 -5.3145,5.3144 3e-4,2.9349 2.3796,5.3142 5.3145,5.3145 2.9357,8e-4 5.3161,-2.3788 5.3164,-5.3145 -3e-4,-2.9358 -2.3806,-5.3152 -5.3164,-5.3144 z"
       id="rect10188-7-8-3-9-9-9-4-0-2"
       inkscape:connector-curvature="0"
       sodipodi:nodetypes="cccccccccccccscccccccsccccccccscccsssccccccscsccscccccccccccc" />
    <path
       style="opacity:1;fill:none;fill-opacity:1;stroke:#0000ff;stroke-width:0.03543307;stroke-linecap:round;stroke-miterlimit:4;stroke-dasharray:none;stroke-dashoffset:0;stroke-opacity:1"
       d="m 1053.7738,371.2527 c -0.021,3.9076 -3.1732,7.0469 -7.086,7.0469 l -8.9805,0 0,0 c -0.973,10e-5 -1.7638,0.7848 -1.7715,1.7578 l 0,47.8496 c 0,1.963 -1.5799,3.543 -3.5429,3.543 l -46.06846,0 c -1.963,0 -3.54492,-1.58 -3.54492,-3.543 l 0,-35.4316 c 9e-5,-0.9783 0.79315,-1.7714 1.77148,-1.7715 l 26.7051,0 c 0.9783,1e-4 1.7714,0.7932 1.7715,1.7715 10e-5,0.9776 0.7919,1.7703 1.7695,1.7714 0.9784,-1e-4 1.7714,-0.793 1.7715,-1.7714 -10e-5,-0.9783 -0.7931,-1.7715 -1.7715,-1.7715 -0.9776,0 -1.7694,-0.7939 -1.7695,-1.7715 l 0,-8.8594 c 10e-5,-0.9776 0.7919,-1.7704 1.7695,-1.7715 0.9783,-10e-5 1.7714,-0.7931 1.7715,-1.7715 -10e-5,-0.9783 -0.7931,-1.7713 -1.7715,-1.7714 -0.9776,0 -1.7694,0.7938 -1.7695,1.7714 -2e-4,0.9784 -0.7932,1.7714 -1.7715,1.7715 l -26.70315,0 c -0.97833,-10e-5 -1.7714,-0.7932 -1.77148,-1.7715 l -0.002,-154.07211 c 4e-4,-3.9141 3.17384,-7.0867 7.0879,-7.086 l 7.08595,0 c 9.78088,0 17.70798,-7.9338 17.70898,-17.7148 1e-4,-9.7817 -7.9273,-17.7126 -17.70898,-17.7168 l -7.08595,0 c -3.9141,7e-4 -7.08755,-3.1718 -7.0879,-7.0859 -0.0184,-37.70569 0.002,-109.017589 0.002,-109.017589 8e-5,-0.9783 0.79315,-1.7714 1.77148,-1.7715 l 26.70315,-0.01 c 0.9783,1e-4 1.7714,0.7932 1.7715,1.7715 10e-5,0.9775 0.7919,1.7704 1.7695,1.7715 0.9783,0 1.7714,-0.7932 1.7715,-1.7715 -10e-5,-0.9784 -0.7932,-1.7714 -1.7715,-1.7715 -0.9776,-10e-4 -1.7694,-0.7938 -1.7695,-1.7714 l 0,-8.8594 c 10e-5,-0.9776 0.7919,-1.7703 1.7695,-1.7715 0.9783,-1e-4 1.7714,-0.7931 1.7715,-1.7715 -10e-5,-0.9783 -0.7932,-1.7714 -1.7715,-1.7715 -0.9776,0.001 -1.7694,0.794 -1.7695,1.7715 -10e-5,0.9783 -0.7932,1.7714 -1.7715,1.7715 l -26.77541,0 c -0.94926,-0.038 -1.69975,-0.8176 -1.70117,-1.7676 l 0,-17.7187 c 0,-1.963002 1.58192,-3.544902 3.54492,-3.544902 l 10e-6,0.01 46.06645,0 0,0 c 1.963,0 3.543,1.5799 3.543,3.543002 l 0,30.1328 c 0.01,0.973 0.7985,1.7577 1.7715,1.7578 l 8.9824,0 c 3.9128,0 7.0649,3.1393 7.086,7.0469 M 1018.344,148.0341 c -2.935,2e-4 -5.3142,2.3792 -5.3144,5.3145 3e-4,2.93499 2.3794,5.31409 5.3144,5.31439 2.935,-3e-4 5.3142,-2.3795 5.3145,-5.31439 -3e-4,-2.9352 -2.3795,-5.3142 -5.3145,-5.3145 z m 0,205.3222 c -2.9357,-7e-4 -5.3161,2.3787 -5.3164,5.3144 -8e-4,2.9365 2.3799,5.3172 5.3164,5.3164 2.9357,-3e-4 5.3153,-2.3807 5.3145,-5.3164 -3e-4,-2.9349 -2.3795,-5.3141 -5.3145,-5.3144 z"
       id="rect10188-7-8-3-9-9-9-0-4-3-72"
       inkscape:connector-curvature="0"
       sodipodi:nodetypes="csccccsssccccccscccccccccccsccccccccccccccccccccscccscccsccccccccccc" />
    <path
       style="opacity:1;fill:none;fill-opacity:1;stroke:#0000ff;stroke-width:0.03543307;stroke-linecap:round;stroke-miterlimit:4;stroke-dasharray:none;stroke-dashoffset:0;stroke-opacity:1"
       d="m 527.71284,309.25674 a 7.0866141,7.0866141 0 0 0 -0.076,0.002 l -5.0079,0 -3.3789,0 -1.1406,0 -1.0254,0 -3.5547,0 0,0.002 -12.4472,0 0,0.002 -2.043,0 -1.8184,0 a 1.7716535,1.7716535 0 0 0 -1.7597,1.57812 l -0.01,-0.002 a 14.173228,14.173228 0 0 1 -14.0781,12.59767 14.173228,14.173228 0 0 1 -14.0684,-12.5918 l -0.018,0.002 a 1.7716535,1.7716535 0 0 0 -1.7597,-1.58399 l -3.8848,0 0,-0.002 -216.38546,0 -1.5078,0 -0.051,0 -2.8281,0 -7.791,0 a 7.0866141,7.0866141 0 0 0 -4.9668,2.06836 7.0866141,7.0866141 0 0 0 -0.053,0.0566 l -3.541,3.54101 -2.3887,2.38868 -0.8066,0.80664 -0.7246,0.72461 -2.5137,2.51562 0,0.002 -8.8067,8.80469 0,0.002 -1.4453,1.44335 -1.2852,1.28711 a 1.7716535,1.7716535 0 0 0 -0.1289,2.35938 l -0.01,0.006 a 14.173228,14.173228 0 0 1 -1.0469,18.86328 14.173228,14.173228 0 0 1 -18.85152,1.04297 l -0.012,0.0156 a 1.7716535,1.7716535 0 0 0 -2.3632,0.12305 l -2.7481,2.74805 -151.566415,151.56644 -0.002,0 -1.4375,1.4395 -1.06641,1.0664 -0.0117,0.01 -0.0234,0.025 -0.70117,0.70119 -0.75976,0.7578 -0.18946,0.1895 -0.34961,0.3515 -5.4375,5.4375 a 7.0866141,7.0866141 0 0 0 -0.0566,0.053 7.0866141,7.0866141 0 0 0 -0.90039,1.1132 7.0866141,7.0866141 0 0 0 -0.0723,0.1192 7.0866141,7.0866141 0 0 0 -1.09571,3.7344 l 0,9.123 0,1.5469 0,1.5097 0,2.0313 0,12.4551 0.002,0 0,2.0429 0,1.8184 a 1.7716535,1.7716535 0 0 0 1.57812,1.7598 l -0.002,0.01 a 14.173228,14.173228 0 0 1 12.59766,14.0782 14.173228,14.173228 0 0 1 -12.5918,14.0683 l 0.002,0.018 a 1.7716535,1.7716535 0 0 0 -1.58398,1.7598 l 0,3.8847 -0.002,0 0,216.38281 0,1.5078 0,0.051 0,2.82821 0,7.791 a 7.0866141,7.0866141 0 0 0 2.06836,4.9668 7.0866141,7.0866141 0 0 0 0.0566,0.053 l 3.54102,3.541 2.38867,2.3887 0.80664,0.8066 0.72461,0.7246 0,0 2.51563,2.5117 8.80859,8.8066 1.44531,1.4434 1.28516,1.2852 a 1.7716535,1.7716535 0 0 0 2.36133,0.1289 l 0.006,0.01 a 14.173228,14.173228 0 0 1 18.86132,1.0469 14.173228,14.173228 0 0 1 1.04493,18.8515 l 0.0137,0.012 a 1.7716535,1.7716535 0 0 0 0.125,2.3633 l 2.74414,2.7481 153.005835,153.00601 1.0664,1.0664 0.037,0.035 2,2 5.5079,5.5098 a 7.0866141,7.0866141 0 0 0 4.9746,2.0488 7.0866141,7.0866141 0 0 0 0.078,0 l 5.0078,0 3.377,0 1.1406,0 1.0254,0 3.5566,0 0,0 12.4531,0 0,0 2.043,0 1.8184,0 a 1.7716535,1.7716535 0 0 0 1.7597,-1.5781 l 0.01,0 a 14.173228,14.173228 0 0 1 14.0781,-12.5977 14.173228,14.173228 0 0 1 14.0684,12.5918 l 0.018,0 a 1.7716535,1.7716535 0 0 0 1.7597,1.584 l 3.8848,0 0,0 216.38546,0 1.5078,0 0.051,0 2.8301,0 7.789,0 a 7.0866141,7.0866141 0 0 0 4.9668,-2.0684 7.0866141,7.0866141 0 0 0 0.055,-0.057 l 3.541,-3.541 2.3887,-2.3887 0.8067,-0.8067 0.7246,-0.7246 2.5136,-2.5156 0,0 8.8047,-8.8047 0,0 1.4433,-1.4433 1.2871,-1.2871 a 1.7716535,1.7716535 0 0 0 0.127,-2.3594 l 0.01,-0.01 a 14.173228,14.173228 0 0 1 1.0468,-18.86329 14.173228,14.173228 0 0 1 18.8516,-1.0429 l 0.012,-0.016 a 1.7716535,1.7716535 0 0 0 2.3652,-0.123 l 2.7461,-2.7461 0,0 151.5645,-151.56462 1.4414,-1.4395 1.0664,-1.0664 0.035,-0.035 1.457,-1.459 0.1894,-0.1895 0.3536,-0.3515 5.5097,-5.5098 a 7.0866141,7.0866141 0 0 0 2.0489,-4.9746 7.0866141,7.0866141 0 0 0 0,-0.078 l 0,-5.0059 0,-3.3789 0,-1.1406 0,-1.0254 0,-3.5566 0,0 0,-12.4532 0,-2.0429 0,-1.8184 a 1.7716535,1.7716535 0 0 0 -1.5781,-1.7598 l 0,-0.012 a 14.173228,14.173228 0 0 1 -12.5977,-14.0781 14.173228,14.173228 0 0 1 12.5918,-14.0684 l 0,-0.017 a 1.7716535,1.7716535 0 0 0 1.584,-1.7598 l 0,-3.8848 0,-216.38281 0,-1.5078 0,-0.051 0,-2.8281 0,-7.791 a 7.0866141,7.0866141 0 0 0 -2.0684,-4.9668 7.0866141,7.0866141 0 0 0 -0.057,-0.053 l -3.541,-3.541 -2.3887,-2.3886 -0.8066,-0.8067 -0.7246,-0.72459 0,0 -2.5157,-2.5137 0,0 -8.8047,-8.8027 0,0 -1.4453,-1.4434 -1.2852,-1.2852 a 1.7716535,1.7716535 0 0 0 -2.3593,-0.1289 l -0.012,-0.01 a 14.173228,14.173228 0 0 1 -18.8613,-1.0469 14.173228,14.173228 0 0 1 -1.0449,-18.8515 l -0.014,-0.012 a 1.7716535,1.7716535 0 0 0 -0.125,-2.3633 l -2.7461,-2.7481 -151.5586,-151.55856 0,-0.002 -1.4472,-1.44531 -1.0664,-1.06641 0,-0.004 -0.033,-0.0312 -0.6934,-0.69336 -0.7578,-0.75977 -0.1894,-0.18945 -0.3594,-0.35742 -5.4297,-5.42969 a 7.0866141,7.0866141 0 0 0 -0.053,-0.0566 7.0866141,7.0866141 0 0 0 -0.027,-0.0234 7.0866141,7.0866141 0 0 0 -0.5273,-0.47266 7.0866141,7.0866141 0 0 0 -0.5645,-0.41211 7.0866141,7.0866141 0 0 0 -0.01,-0.006 7.0866141,7.0866141 0 0 0 -0.5801,-0.33984 7.0866141,7.0866141 0 0 0 -0.01,-0.002 7.0866141,7.0866141 0 0 0 -0.4336,-0.20313 7.0866141,7.0866141 0 0 0 -0.2168,-0.0976 7.0866141,7.0866141 0 0 0 -0.5586,-0.19532 7.0866141,7.0866141 0 0 0 -0.096,-0.0332 7.0866141,7.0866141 0 0 0 -1.9805,-0.28711 z m -72.8144,14.17775 a 3.5433071,3.5433071 0 0 1 3.5429,3.54491 3.5433071,3.5433071 0 0 1 -3.5429,3.54298 3.5433071,3.5433071 0 0 1 -3.543,-3.54298 3.5433071,3.5433071 0 0 1 3.543,-3.54491 z m 52.9511,0 a 3.5433071,3.5433071 0 0 1 3.543,3.54491 3.5433071,3.5433071 0 0 1 -3.543,3.54298 3.5433071,3.5433071 0 0 1 -3.5429,-3.54298 3.5433071,3.5433071 0 0 1 3.5429,-3.54491 z m -281.20376,10.93554 a 3.5433071,3.5433071 0 0 1 2.455,1.0371 3.5433071,3.5433071 0 0 1 0,5.01173 l 0,0 a 3.5433071,3.5433071 0 0 1 -5.0098,0 3.5433071,3.5433071 0 0 1 0,-5.01173 3.5433071,3.5433071 0 0 1 2.5567,-1.0371 z m 96.3515,5.88672 a 1.7716535,1.7716535 0 0 1 1.7715,1.77149 1.7716535,1.7716535 0 0 0 1.7715,1.77148 l 42.5195,0 8.8575,0 c 1.4713,9.9e-4 2.6562,1.1866 2.6562,2.6582 l 0,7.08594 c 0,1.47159 -1.1849,2.6572 -2.6562,2.6582 l -8.8594,0 -35.4317,0 -7.0879,0 a 1.7716533,1.7716533 0 0 0 -1.7714,1.77149 1.7716533,1.7716533 0 0 1 -1.7696,1.77148 1.7716533,1.7716533 0 0 1 -1.7696,-1.77148 1.7716533,1.7716533 0 0 1 1.7715,-1.77149 1.7716533,1.7716533 0 0 0 1.7715,-1.77148 l 0,-1.77148 0,-5.31641 0,-1.77148 a 1.7716535,1.7716535 0 0 0 -1.7715,-1.77149 1.7716535,1.7716535 0 0 1 -1.7715,-1.77148 1.7716535,1.7716535 0 0 1 1.7715,-1.77149 z m 187.67456,0 a 1.7716537,1.7716537 0 0 1 1.7715,1.77149 1.7716537,1.7716537 0 0 1 -1.7715,1.77148 1.7716537,1.7716537 0 0 0 -1.7715,1.77148 l 0,1.77148 0,5.31641 0,1.77148 a 1.7716535,1.7716535 0 0 0 1.7715,1.77148 1.7716535,1.7716535 0 0 1 1.7715,1.77149 1.7716535,1.7716535 0 0 1 -1.7715,1.77148 1.7716535,1.7716535 0 0 1 -1.7715,-1.77148 1.7716535,1.7716535 0 0 0 -1.7715,-1.77149 l -7.0879,0 -35.4335,0 -8.8575,0 c -1.4723,0 -2.6582,-1.18595 -2.6582,-2.6582 l 0,-7.08594 c 0,-1.47225 1.1859,-2.6582 2.6582,-2.6582 l 8.8575,0 42.5214,0 a 1.7716537,1.7716537 0 0 0 1.7715,-1.77148 1.7716537,1.7716537 0 0 1 1.7715,-1.77149 z M 239.25708,344.788 a 1.7716537,1.7716537 0 0 1 1.2266,0.51758 1.7716537,1.7716537 0 0 1 0,2.50586 1.7716537,1.7716537 0 0 0 0,2.50586 l 1.2519,1.25195 3.7598,3.75977 1.2519,1.25195 a 1.7716535,1.7716535 0 0 0 2.5059,0 1.7716535,1.7716535 0 0 1 2.5059,0 1.7716535,1.7716535 0 0 1 0,2.50586 1.7716535,1.7716535 0 0 1 -2.5059,0 1.7716535,1.7716535 0 0 0 -2.5059,0 l -5.0117,5.01172 -25.0547,25.05468 -6.2637,6.2637 c -1.041,1.041 -2.7187,1.041 -3.7597,0 l -5.00982,-5.0117 c -1.041,-1.0411 -1.041,-2.7168 0,-3.7579 l 6.26372,-6.2636 30.0664,-30.06643 a 1.7716537,1.7716537 0 0 0 0,-2.50586 1.7716537,1.7716537 0 0 1 0,-2.50586 1.7716537,1.7716537 0 0 1 1.2793,-0.51758 z m -50.05472,27.02344 a 3.5433071,3.5433071 0 0 1 2.4551,1.03906 3.5433071,3.5433071 0 0 1 0,5.00977 3.5433071,3.5433071 0 0 1 -5.0117,0 3.5433071,3.5433071 0 0 1 0,-5.01172 3.5433071,3.5433071 0 0 1 2.5566,-1.03711 z m 74.45122,0.58594 c 0.6759,-0.002 1.352,0.25218 1.873,0.76562 l 2.3379,2.33789 0,0.004 3.1387,3.13672 2.5254,2.52541 1.4101,1.4121 6.1094,6.1074 0.023,0.025 a 7.0866141,7.0866141 0 0 0 0.4083,0.3633 7.0866141,7.0866141 0 0 0 0.1,0.09 7.0866141,7.0866141 0 0 0 0.5644,0.416 7.0866141,7.0866141 0 0 0 3.9024,1.1797 7.0866141,7.0866141 0 0 0 0.078,0 l 8.2226,0 0.062,0 3.7852,0 0,0 154.10036,0 0,0 -5.3164,0 c 2.9445,0 5.3145,-2.3699 5.3145,-5.3144 l 0,-1.7715 0,-4.21681 c 0,-1.47225 1.186,-2.65631 2.6582,-2.65625 l 52.8437,0 c 1.4655,0 2.6456,1.17379 2.6563,2.63672 l 0,3.30664 0,4.4394 -0.01,0 0,3.5762 0,1.0293 0,1.0606 0,8.4629 a 7.0866141,7.0866141 0 0 0 0,0.076 7.0866141,7.0866141 0 0 0 1.6973,4.5899 7.0866141,7.0866141 0 0 0 0.3516,0.3847 l 0.027,0.025 5.8653,5.8672 0,0 2.7207,2.7207 105.205,105.20499 c 2.082,2.0821 5.4337,2.0821 7.5157,0 l 1.2519,-1.25 0,0 2.9824,-2.9805 c 1.0411,-1.041 2.7168,-1.0387 3.7578,0 l 37.3653,37.3652 c 1.0363,1.0363 1.0423,2.7021 0.016,3.7442 l -2.3398,2.3378 0,0 -5.6622,5.6621 0,0 -0.7285,0.7285 -0.6797,0.6797 -0.07,0.07 -6.0645,6.0625 a 7.0866141,7.0866141 0 0 0 -0.3242,0.3613 7.0866141,7.0866141 0 0 0 -0.1289,0.1465 7.0866141,7.0866141 0 0 0 -0.2773,0.375 7.0866141,7.0866141 0 0 0 -0.1465,0.2031 7.0866141,7.0866141 0 0 0 -0.2617,0.4395 7.0866141,7.0866141 0 0 0 -0.094,0.1621 7.0866141,7.0866141 0 0 0 -0.8164,3.2871 7.0866141,7.0866141 0 0 0 0,0.078 l 0,8.2852 0,2.2675 0,1.5196 0.01,0 0,148.77931 c 0,2.9445 2.3699,5.3144 5.3144,5.3144 l 1.7715,0 0,0 4.2168,0 c 1.4722,0 2.6563,1.186 2.6562,2.6582 l 0,52.8438 c 0,1.4655 -1.1738,2.6455 -2.6367,2.6562 l -3.3066,0 0,0 -8.0078,0 -1.9961,0 -8.6739,0 a 7.0866141,7.0866141 0 0 0 -0.5937,0.033 7.0866141,7.0866141 0 0 0 -0.082,0 7.0866141,7.0866141 0 0 0 -0.584,0.09 7.0866141,7.0866141 0 0 0 -0.1191,0.02 7.0866141,7.0866141 0 0 0 -3.5859,1.9219 7.0866141,7.0866141 0 0 0 -0.053,0.057 l -5.8144,5.8145 -0.045,0.043 -1.6035,1.6036 -1.0742,1.0742 0,0 -105.2031,105.2051 c -2.0821,2.0821 -2.0821,5.4336 0,7.5156 l 1.2519,1.252 0,0 2.9825,2.9825 c 1.041,1.041 1.0397,2.7168 0,3.7578 l -37.3672,37.3672 c -1.0363,1.0363 -2.7001,1.04049 -3.7422,0.014 l -2.3379,-2.3379 0,0 -5.6621,-5.6621 -1.4121,-1.4121 -6.1328,-6.1328 a 7.0866141,7.0866141 0 0 0 -4.9746,-2.0488 7.0866141,7.0866141 0 0 0 -0.078,0 l -8.2285,0 -3.8476,0 -154.10236,0 0,0 5.3165,0 c -2.9444,0 -5.3145,2.3699 -5.3145,5.3144 l 0,1.77149 0,4.21681 c 0,1.4723 -1.186,2.65629 -2.6582,2.65629 l -52.8438,0 c -1.4655,0 -2.6455,-1.1738 -2.6562,-2.6368 l 0,-3.3066 0,-4.43939 0,-3.5684 0,-0.01 0,-1.02931 0,-0.95899 0,-0.1016 0,-8.4629 a 7.0866141,7.0866141 0 0 0 0,-0.076 l 0,-0.033 a 7.0866141,7.0866141 0 0 0 -0.037,-0.6739 7.0866141,7.0866141 0 0 0 -2.0313,-4.291 7.0866141,7.0866141 0 0 0 -0.059,-0.053 l -5.8144,-5.81641 -0.041,-0.043 -1.6035,-1.6035 -1.0743,-1.0743 0,0 -105.20712,-105.205 c -2.082,-2.0821 -5.4335,-2.0821 -7.5156,0 l -1.2519,1.2519 0,0 -2.9805,2.9804 c -1.041,1.0411 -2.7188,1.0407 -3.75977,0 l -37.365245,-37.3672 c -1.0363,-1.0363 -1.04056,-2.7001 -0.0137,-3.7422 l 2.33789,-2.3378 0.004,0 3.13867,-3.1407 0.002,0 2.52149,-2.5254 0.006,0 0.72851,-0.7285 0.67578,-0.6778 0.0742,-0.072 5.98242,-5.9844 a 7.0866141,7.0866141 0 0 0 0.0566,-0.053 7.0866141,7.0866141 0 0 0 1.56445,-2.3789 7.0866141,7.0866141 0 0 0 0.2207,-0.6387 7.0866141,7.0866141 0 0 0 0.002,-0.01 7.0866141,7.0866141 0 0 0 0.10352,-0.4336 7.0866141,7.0866141 0 0 0 0.0606,-0.2597 7.0866141,7.0866141 0 0 0 0.0391,-0.2871 7.0866141,7.0866141 0 0 0 0.0566,-0.4336 7.0866141,7.0866141 0 0 0 0.0234,-0.5586 7.0866141,7.0866141 0 0 0 -0.002,-0.039 l 0,-8.2598 0.004,0 0,-3.8476 0,-154.09961 -0.002,0 0,5.3164 c 0,-2.9445 -2.36997,-5.3145 -5.31446,-5.3145 l -1.77148,0 0,0 -4.2168,0 c -1.47225,0 -2.65631,-1.1859 -2.65625,-2.6582 l 0,-52.8437 c 0,-1.4656 1.17379,-2.6456 2.63672,-2.6563 l 3.30664,0 0,0 8.00782,0 1.996095,0 8.60937,0 a 7.0866141,7.0866141 0 0 0 0.0391,0 7.0866141,7.0866141 0 0 0 1.43359,-0.1504 7.0866141,7.0866141 0 0 0 0.66016,-0.1699 7.0866141,7.0866141 0 0 0 0.0117,0 7.0866141,7.0866141 0 0 0 0.65429,-0.2403 7.0866141,7.0866141 0 0 0 0.01,0 7.0866141,7.0866141 0 0 0 0.22265,-0.1094 7.0866141,7.0866141 0 0 0 1.0293,-0.582 7.0866141,7.0866141 0 0 0 0.12891,-0.098 7.0866141,7.0866141 0 0 0 0.43164,-0.334 7.0866141,7.0866141 0 0 0 0.0312,-0.029 7.0866141,7.0866141 0 0 0 0.36133,-0.3301 l 5.89256,-5.8906 0,0 2.7207,-2.7207 105.20712,-105.20699 c 2.082,-2.0821 2.082,-5.4336 0,-7.5156 l -1.2539,-1.252 0,0 -2.9805,-2.9805 c -1.041,-1.041 -1.0397,-2.7168 0,-3.7578 l 37.3652,-37.36716 c 0.5182,-0.51815 1.1933,-0.77702 1.8692,-0.77929 z m 309.47916,23.88865 a 1.7716535,1.7716535 0 0 1 1.2266,0.5176 1.7716535,1.7716535 0 0 1 0,2.5059 1.7716535,1.7716535 0 0 0 0,2.5058 l 30.0664,30.0645 6.2617,6.2636 0,0 c 1.0397,1.0411 1.0392,2.7172 0,3.7578 l -5.0097,5.0098 c -1.0405,1.0405 -2.7168,1.04 -3.7578,0 l -6.2657,-6.2637 -25.0527,-25.0547 -5.0117,-5.01171 a 1.7716533,1.7716533 0 0 0 -2.5059,0 1.7716533,1.7716533 0 0 1 -2.5058,0 1.7716533,1.7716533 0 0 1 0,-2.50389 1.7716533,1.7716533 0 0 1 2.5058,0 1.7716533,1.7716533 0 0 0 2.5059,0 l 1.2519,-1.25201 3.7598,-3.7597 1.2519,-1.252 a 1.7716535,1.7716535 0 0 0 0,-2.5058 1.7716535,1.7716535 0 0 1 0,-2.5059 1.7716535,1.7716535 0 0 1 1.2793,-0.5176 z m -424.63938,44.6152 c 0.6793,2e-4 1.3586,0.2593 1.8789,0.77929 l 5.0098,5.0118 c 1.0406,1.04051 1.042,2.7167 0,3.7578 l -6.2637,6.2636 -25.0547,25.0547 -5.0117,5.0118 a 1.7716533,1.7716533 0 0 0 0,2.5039 1.7716533,1.7716533 0 0 1 0,2.5058 1.7716533,1.7716533 0 0 1 -2.5039,0 1.7716533,1.7716533 0 0 1 0,-2.5058 1.7716533,1.7716533 0 0 0 0,-2.5039 l -1.25391,-1.254 -3.75977,-3.7578 -1.25195,-1.25389 a 1.7716535,1.7716535 0 0 0 -2.50586,0 1.7716535,1.7716535 0 0 1 -2.5039,0 1.7716535,1.7716535 0 0 1 0,-2.5039 1.7716535,1.7716535 0 0 1 2.5039,0 1.7716535,1.7716535 0 0 0 2.50586,0 l 30.06643,-30.0664 6.2637,-6.26371 c 0.5205,-0.51979 1.1996,-0.7794 1.8789,-0.77929 z m 528.57298,36.2364 a 3.5433071,3.5433071 0 0 1 2.4551,1.0371 3.5433071,3.5433071 0 0 1 0,5.0117 3.5433071,3.5433071 0 0 1 -5.0117,0 l 0,0 a 3.5433071,3.5433071 0 0 1 0,-5.0098 3.5433071,3.5433071 0 0 1 2.5586,-1.039 z m -13.2226,15.2597 c 0.6795,0 1.3584,0.2588 1.8789,0.7793 l 6.2637,6.2637 30.0664,30.06839 a 1.7716537,1.7716537 0 0 0 2.5058,0 1.7716537,1.7716537 0 0 1 2.5039,0 1.7716537,1.7716537 0 0 1 0,2.5039 1.7716537,1.7716537 0 0 1 -2.5039,0 1.7716537,1.7716537 0 0 0 -2.5058,0 l -1.252,1.2539 -3.7598,3.7578 -1.2519,1.2539 a 1.7716535,1.7716535 0 0 0 0,2.5039 1.7716535,1.7716535 0 0 1 0,2.5059 1.7716535,1.7716535 0 0 1 -2.5059,0 1.7716535,1.7716535 0 0 1 0,-2.5059 1.7716535,1.7716535 0 0 0 0,-2.5039 l -5.0117,-5.0117 -25.0547,-25.05669 -6.2636,-6.2617 c -1.041,-1.041 -1.041,-2.7187 0,-3.7597 l 5.0097,-5.0118 c 0.5206,-0.5205 1.2013,-0.7793 1.8809,-0.7793 z m 50.664,22.18358 a 3.5433071,3.5433071 0 0 1 2.4551,1.0371 3.5433071,3.5433071 0 0 1 0,5.0118 3.5433071,3.5433071 0 0 1 -5.0097,0 l 0,0 a 3.5433071,3.5433071 0 0 1 0,-5.0118 3.5433071,3.5433071 0 0 1 2.5566,-1.0371 z m -664.016335,25.3457 a 1.7716537,1.7716537 0 0 1 1.77149,1.7715 1.7716537,1.7716537 0 0 0 1.77148,1.7715 l 1.77148,0 5.31641,0 1.77149,0 a 1.7716535,1.7716535 0 0 0 1.77148,-1.7715 1.7716535,1.7716535 0 0 1 1.77148,-1.7715 1.7716535,1.7716535 0 0 1 1.77149,1.7715 1.7716535,1.7716535 0 0 1 -1.77149,1.7715 1.7716535,1.7716535 0 0 0 -1.77148,1.7715 l 0,7.0879 0,35.4336 0,8.8574 c 0,1.4722 -1.18595,2.6582 -2.6582,2.6582 l -7.08594,0 c -1.47225,0 -2.6582,-1.186 -2.6582,-2.6582 l 0,-8.8574 0,-42.5215 a 1.7716537,1.7716537 0 0 0 -1.77149,-1.7715 1.7716537,1.7716537 0 0 1 -1.77148,-1.7715 1.7716537,1.7716537 0 0 1 1.77148,-1.7715 z m -15.04883,1.0508 a 3.5433071,3.5433071 0 0 1 3.54297,3.543 3.5433071,3.5433071 0 0 1 -3.54297,3.543 3.5433071,3.5433071 0 0 1 -3.54492,-3.543 3.5433071,3.5433071 0 0 1 3.54492,-3.543 z m 0,52.9512 a 3.5433071,3.5433071 0 0 1 3.54297,3.543 3.5433071,3.5433071 0 0 1 -3.54297,3.5429 3.5433071,3.5433071 0 0 1 -3.54492,-3.5429 3.5433071,3.5433071 0 0 1 3.54492,-3.543 z m 658.953865,18.8281 a 1.7716533,1.7716533 0 0 1 1.7715,1.7715 1.7716533,1.7716533 0 0 0 1.7715,1.7715 l 1.7715,0 5.3164,0 1.7715,0 a 1.7716535,1.7716535 0 0 0 1.7714,-1.7715 1.7716535,1.7716535 0 0 1 1.7715,-1.7715 1.7716535,1.7716535 0 0 1 1.7715,1.7715 1.7716535,1.7716535 0 0 1 -1.7715,1.7715 1.7716535,1.7716535 0 0 0 -1.7715,1.7715 l 0,42.5195 0,8.8574 0,0 c 0,1.4713 -1.1866,2.6562 -2.6582,2.6562 l -7.0859,0 c -1.4716,0 -2.6572,-1.1849 -2.6582,-2.6562 l 0,-8.8594 0,-35.4316 0,-7.0879 a 1.7716533,1.7716533 0 0 0 -1.7715,-1.7715 1.7716533,1.7716533 0 0 1 -1.7715,-1.7715 1.7716533,1.7716533 0 0 1 1.7715,-1.7715 z m -639.475345,59.0352 7.08594,0 c 1.47159,0 2.6572,1.1849 2.6582,2.6562 l 0,8.8594 0,35.43161 0,7.0879 a 1.7716533,1.7716533 0 0 0 1.77148,1.7715 1.7716533,1.7716533 0 0 1 1.77149,1.7715 1.7716533,1.7716533 0 0 1 -1.77149,1.7715 1.7716533,1.7716533 0 0 1 -1.77148,-1.7715 1.7716533,1.7716533 0 0 0 -1.77148,-1.7715 l -1.77149,0 -5.31641,0 -1.77148,0 a 1.7716535,1.7716535 0 0 0 -1.77148,1.7715 1.7716535,1.7716535 0 0 1 -1.77149,1.7715 1.7716535,1.7716535 0 0 1 -1.77148,-1.7715 1.7716535,1.7716535 0 0 1 1.77148,-1.7715 1.7716535,1.7716535 0 0 0 1.77149,-1.7715 l 0,-42.51951 0,-8.8574 0,0 c 10e-4,-1.4713 1.18661,-2.6562 2.6582,-2.6562 z m 670.469545,71.09181 a 3.5433071,3.5433071 0 0 1 3.5449,3.5429 3.5433071,3.5433071 0 0 1 -3.5449,3.543 3.5433071,3.5433071 0 0 1 -3.543,-3.543 3.5433071,3.5433071 0 0 1 3.543,-3.5429 z m -26.5645,1.7363 7.0859,0 c 1.4723,0 2.6582,1.186 2.6582,2.6582 l 0,8.8574 0,42.5215 a 1.7716537,1.7716537 0 0 0 1.7715,1.7715 1.7716537,1.7716537 0 0 1 1.7715,1.7715 1.7716537,1.7716537 0 0 1 -1.7715,1.7715 1.7716537,1.7716537 0 0 1 -1.7715,-1.7715 1.7716537,1.7716537 0 0 0 -1.7714,-1.7715 l -1.7715,0 -5.3164,0 -1.7715,0 a 1.7716535,1.7716535 0 0 0 -1.7715,1.7715 1.7716535,1.7716535 0 0 1 -1.7715,1.7715 1.7716535,1.7716535 0 0 1 -1.7715,-1.7715 1.7716535,1.7716535 0 0 1 1.7715,-1.7715 1.7716535,1.7716535 0 0 0 1.7715,-1.7715 l 0,-7.0879 0,-35.4336 0,-8.8574 c 0,-1.4722 1.186,-2.6582 2.6582,-2.6582 z m 26.5645,51.2148 a 3.5433071,3.5433071 0 0 1 3.5449,3.543 3.5433071,3.5433071 0 0 1 -3.5449,3.543 3.5433071,3.5433071 0 0 1 -3.543,-3.543 3.5433071,3.5433071 0 0 1 3.543,-3.543 z m -659.067205,4.2559 a 1.7716535,1.7716535 0 0 1 1.22657,0.5195 1.7716535,1.7716535 0 0 1 0,2.5039 1.7716535,1.7716535 0 0 0 0,2.5059 l 5.01171,5.0117 25.05664,25.0567 6.261725,6.2617 c 1.04103,1.041 1.04103,2.7187 0,3.7597 l -5.009765,5.0098 c -1.04104,1.041 -2.71874,1.041 -3.75977,0 l -6.26367,-6.2617 -30.06641,-30.0684 a 1.7716537,1.7716537 0 0 0 -2.50585,0 1.7716537,1.7716537 0 0 1 -2.50391,0 1.7716537,1.7716537 0 0 1 0,-2.5039 1.7716537,1.7716537 0 0 1 2.50391,0 1.7716537,1.7716537 0 0 0 2.50585,0 l 1.25196,-1.2539 3.75976,-3.7597 1.25196,-1.252 a 1.7716535,1.7716535 0 0 0 0,-2.5059 1.7716535,1.7716535 0 0 1 0,-2.5039 1.7716535,1.7716535 0 0 1 1.27929,-0.5195 z m -19.89453,22.1406 a 3.5433071,3.5433071 0 0 1 2.45313,1.0371 3.5433071,3.5433071 0 0 1 0,5.0118 3.5433071,3.5433071 0 0 1 -5.01172,0 3.5433071,3.5433071 0 0 1 0.002,-5.0118 3.5433071,3.5433071 0 0 1 2.55664,-1.0371 z m 596.629635,29.3574 a 1.7716533,1.7716533 0 0 1 1.2246,0.5196 1.7716533,1.7716533 0 0 1 0,2.5039 1.7716533,1.7716533 0 0 0 0,2.5058 l 1.2539,1.252 3.7598,3.7598 1.252,1.2539 a 1.7716535,1.7716535 0 0 0 2.5058,0 1.7716535,1.7716535 0 0 1 2.5039,0 1.7716535,1.7716535 0 0 1 0,2.5039 1.7716535,1.7716535 0 0 1 -2.5039,0 1.7716535,1.7716535 0 0 0 -2.5058,0 l -30.0664,30.0664 -6.2618,6.2637 c -1.041,1.0396 -2.7173,1.0401 -3.7578,0 l -5.0117,-5.0118 c -1.0405,-1.0405 -1.041,-2.7167 0,-3.7578 l 6.2656,-6.2636 25.0528,-25.0547 5.0117,-5.0118 a 1.7716533,1.7716533 0 0 0 0,-2.5058 1.7716533,1.7716533 0 0 1 0,-2.5039 1.7716533,1.7716533 0 0 1 1.2773,-0.5196 z m -559.188225,8.084 a 3.5433071,3.5433071 0 0 1 2.45312,1.0371 l 0.002,0 a 3.5433071,3.5433071 0 0 1 0,5.0098 3.5433071,3.5433071 0 0 1 -5.01368,0 3.5433071,3.5433071 0 0 1 0.002,-5.0137 3.5433071,3.5433071 0 0 1 2.55664,-1.0371 z m 73.164045,36.5313 c 0.6793,-2e-4 1.3584,0.2592 1.8789,0.7793 l 6.2657,6.2656 25.0527,25.0547 5.0117,5.0117 a 1.7716533,1.7716533 0 0 0 2.5059,0 1.7716533,1.7716533 0 0 1 2.5058,0 1.7716533,1.7716533 0 0 1 0,2.5039 1.7716533,1.7716533 0 0 1 -2.5058,0 1.7716533,1.7716533 0 0 0 -2.5059,0 l -1.2519,1.252 -3.7598,3.7597 -1.252,1.252 a 1.7716535,1.7716535 0 0 0 0,2.5058 1.7716535,1.7716535 0 0 1 0,2.5059 1.7716535,1.7716535 0 0 1 -2.5058,0 1.7716535,1.7716535 0 0 1 0,-2.5059 1.7716535,1.7716535 0 0 0 0,-2.5058 l -30.0664,-30.0645 -6.2617,-6.2636 0,0 c -1.0397,-1.0411 -1.0383,-2.7172 0,-3.7578 l 5.0097,-5.0098 c 0.5203,-0.5203 1.1997,-0.781 1.8789,-0.7812 z m 395.26058,51.4961 c 0.6795,0 1.3603,0.2607 1.8808,0.7812 l 5.0098,5.0098 c 1.041,1.041 1.041,2.7187 0,3.7598 l -6.2637,6.2636 -30.0664,30.06659 a 1.7716537,1.7716537 0 0 0 0,2.5059 1.7716537,1.7716537 0 0 1 0,2.5059 1.7716537,1.7716537 0 0 1 -2.5059,0 1.7716537,1.7716537 0 0 1 0,-2.5059 1.7716537,1.7716537 0 0 0 0,-2.5059 l -1.2519,-1.2519 -3.7598,-3.7598 -1.2519,-1.2519 a 1.7716535,1.7716535 0 0 0 -2.5059,0 1.7716535,1.7716535 0 0 1 -2.5059,0 1.7716535,1.7716535 0 0 1 0,-2.5059 1.7716535,1.7716535 0 0 1 2.5059,0 1.7716535,1.7716535 0 0 0 2.5059,0 l 5.0117,-5.01189 25.0547,-25.0547 6.2636,-6.2637 c 0.5205,-0.5205 1.1994,-0.7812 1.879,-0.7812 z m 19.4394,17.3008 a 3.5433071,3.5433071 0 0 1 2.4531,1.0371 3.5433071,3.5433071 0 0 1 0,5.0117 3.5433071,3.5433071 0 0 1 -5.0117,0 3.5433071,3.5433071 0 0 1 0,-5.0097 3.5433071,3.5433071 0 0 1 2.5586,-1.0371 z m -321.57296,19.15249 a 1.7716535,1.7716535 0 0 1 1.7715,1.7715 1.7716535,1.7716535 0 0 0 1.7715,1.7715 l 7.0879,0 35.4335,0 8.8575,0 c 1.4723,0 2.6582,1.1859 2.6582,2.6582 l 0,7.0859 c 0,1.4723 -1.1859,2.65819 -2.6582,2.65819 l -8.8575,0 -42.5214,0 a 1.7716537,1.7716537 0 0 0 -1.7715,1.7715 1.7716537,1.7716537 0 0 1 -1.7715,1.7715 1.7716537,1.7716537 0 0 1 -1.7715,-1.7715 1.7716537,1.7716537 0 0 1 1.7715,-1.7715 1.7716537,1.7716537 0 0 0 1.7715,-1.77149 l 0,-1.7715 0,-5.3164 0,-1.7714 a 1.7716535,1.7716535 0 0 0 -1.7715,-1.7715 1.7716535,1.7716535 0 0 1 -1.7715,-1.7715 1.7716535,1.7716535 0 0 1 1.7715,-1.7715 z m 187.67456,0 0,0 a 1.7716533,1.7716533 0 0 1 1.7696,1.7715 1.7716533,1.7716533 0 0 1 -1.7715,1.7715 1.7716533,1.7716533 0 0 0 -1.7715,1.7715 l 0,1.7714 0,5.3164 0,1.7715 a 1.7716535,1.7716535 0 0 0 1.7715,1.77149 1.7716535,1.7716535 0 0 1 1.7715,1.7715 1.7716535,1.7716535 0 0 1 -1.7715,1.7715 1.7716535,1.7716535 0 0 1 -1.7715,-1.7715 1.7716535,1.7716535 0 0 0 -1.7715,-1.7715 l -42.51954,0 -8.8592,0 c -1.47222,0 -2.65712,-1.18659 -2.65712,-2.65819 l 0,-7.0859 c 0,-1.4716 1.1849,-2.6572 2.65712,-2.6582 l 8.8611,0 35.43174,0 7.0879,0 a 1.7716533,1.7716533 0 0 0 1.7714,-1.7715 1.7716533,1.7716533 0 0 1 1.7696,-1.7715 z m 96.455,18.28909 a 3.5433071,3.5433071 0 0 1 2.4532,1.0371 3.5433071,3.5433071 0 0 1 0,5.0117 3.5433071,3.5433071 0 0 1 -5.0117,0 3.5433071,3.5433071 0 0 1 0,-5.0117 l 0,0 a 3.5433071,3.5433071 0 0 1 2.5566,-1.0371 z m -281.30726,10.9336 a 3.5433071,3.5433071 0 0 1 3.5429,3.5429 3.5433071,3.5433071 0 0 1 -3.5429,3.5449 3.5433071,3.5433071 0 0 1 -3.543,-3.5449 3.5433071,3.5433071 0 0 1 3.543,-3.5429 z m 52.9511,0 a 3.5433071,3.5433071 0 0 1 3.543,3.5429 3.5433071,3.5433071 0 0 1 -3.543,3.5449 3.5433071,3.5433071 0 0 1 -3.5429,-3.5449 3.5433071,3.5433071 0 0 1 3.5429,-3.5429 z"
       id="rect16534-09-36-4-1-1-9-4"
       inkscape:connector-curvature="0" />
    <path
       style="opacity:1;fill:none;fill-opacity:1;stroke:#0000ff;stroke-width:0.03543307;stroke-linecap:round;stroke-miterlimit:4;stroke-dasharray:none;stroke-dashoffset:0;stroke-opacity:1"
       d="m 309.40822,512.01552 c -0.021,-3.9076 -3.17313,-7.0468 -7.08594,-7.0468 l -8.85351,0 -0.002,0 c -0.97756,0 -1.76944,-0.7939 -1.76952,-1.7715 l -0.002,-30.1192 c 0,-1.9632 -1.57997,-3.5429 -3.54297,-3.5429 l -46.0625,0 -0.002,0 c -1.9621,10e-4 -3.54141,1.5826 -3.54102,3.5449 l 0,17.7578 c 0.0229,0.9473 0.78705,1.7088 1.73438,1.7285 l 26.61328,0 c 0.97829,-1e-4 1.77138,-0.7932 1.77148,-1.7715 9e-5,-0.9775 0.79194,-1.7704 1.76953,-1.7715 0.97833,10e-5 1.7714,0.7932 1.77149,1.7715 -1e-4,0.9784 -0.79316,1.7714 -1.77149,1.7715 -0.97759,10e-4 -1.76944,0.7939 -1.76953,1.7715 l 0,8.8594 c 9e-5,0.9776 0.79194,1.7703 1.76953,1.7715 0.9783,10e-5 1.77135,0.7931 1.77149,1.7714 -9e-5,0.9783 -0.79315,1.7715 -1.77149,1.7715 -0.97759,0 -1.76944,-0.7939 -1.76953,-1.7715 -1.4e-4,-0.9783 -0.79322,-1.7713 -1.77148,-1.7714 l -26.57422,0 c -0.97833,10e-5 -1.7714,0.7932 -1.77148,1.7715 -0.0453,108.8338 0,312.6932 0,312.6932 8e-5,0.9783 0.79315,1.7714 1.77148,1.7715 l 26.57422,0 c 0.9783,-10e-5 1.77139,-0.7932 1.77148,-1.7715 9e-5,-0.9776 0.79194,-1.7703 1.76953,-1.7715 0.97834,10e-5 1.7714,0.7932 1.77149,1.7715 -9e-5,0.9784 -0.79315,1.7714 -1.77149,1.7715 -0.97759,10e-4 -1.76944,0.7939 -1.76953,1.7715 l 0,8.8593 c -9.6e-4,0.9783 0.79119,1.7724 1.76953,1.7735 0.97834,10e-5 1.7714,0.7932 1.77149,1.7715 -9e-5,0.9783 -0.79315,1.7714 -1.77149,1.7715 -0.97759,0 -1.76944,-0.7939 -1.76953,-1.7715 -9e-5,-0.9783 -0.79318,-1.7714 -1.77148,-1.7715 l -26.57813,0 c -0.96178,9e-4 -1.74719,0.769 -1.76953,1.7305 l 0,35.4726 c 0,1.963 1.57997,3.543 3.54297,3.543 l 46.0625,0 c 1.963,0 3.54297,-1.58 3.54297,-3.543 l 0.002,-47.8359 c 1.4e-4,-0.9775 0.792,-1.7703 1.76952,-1.7715 l 8.85547,0 c 3.91281,-6e-4 7.06484,-3.1393 7.08594,-7.0469 m -35.42582,-223.2265 c 2.93497,2e-4 5.31413,2.3796 5.31445,5.3145 -2.6e-4,2.935 -2.37944,5.3141 -5.31445,5.3144 -2.93575,0 -5.31615,-2.3786 -5.31641,-5.3144 3.2e-4,-2.9357 2.3807,-5.3153 5.31641,-5.3145 z m -0.01,205.3437 c 2.93497,3e-4 5.3142,2.3794 5.31446,5.3144 -3.2e-4,2.9349 -2.37953,5.3142 -5.31446,5.3145 -2.93571,8e-4 -5.31608,-2.3788 -5.3164,-5.3145 2.6e-4,-2.9358 2.38065,-5.3152 5.3164,-5.3144 z"
       id="rect10188-7-8-3-9-9-9-4-0-1-5"
       inkscape:connector-curvature="0"
       sodipodi:nodetypes="cscsccsccccccccccccccscccccccsccccccccscccsssccccccccccccccc" />
    <path
       style="opacity:1;fill:none;fill-opacity:1;stroke:#0000ff;stroke-width:0.03543307;stroke-linecap:round;stroke-miterlimit:4;stroke-dasharray:none;stroke-dashoffset:0;stroke-opacity:1"
       d="m 380.40237,473.08002 c 0,-1.963 -1.58192,-3.5449 -3.54492,-3.5449 l -10e-6,0.01 -46.0664,0 -0.002,0 c -1.963,0 -3.54297,1.5799 -3.54297,3.543 l 0.002,30.1328 c -0.008,0.973 -0.79849,1.7577 -1.77149,1.7578 l -8.98242,0 c -3.9128,0 -7.06484,3.1393 -7.08594,7.0469 l 0,302.1444 c 0.021,3.9076 3.17314,7.0469 7.08594,7.0469 l 8.98047,0 0.002,0 c 0.973,1e-4 1.76388,0.7848 1.77149,1.7578 l -0.002,47.8496 c 0,1.963 1.57997,3.543 3.54297,3.543 l 46.06836,0 c 1.963,0 3.54492,-1.58 3.54492,-3.543 m 0,-35.4316 c -9e-5,-0.9783 -0.79315,-1.7714 -1.77148,-1.7715 l -26.70507,0 c -0.9783,10e-5 -1.77139,0.7932 -1.77148,1.7715 -8e-5,0.9776 -0.79194,1.7703 -1.76953,1.7714 -0.97834,-10e-5 -1.7714,-0.793 -1.77149,-1.7714 9e-5,-0.9783 0.79315,-1.7715 1.77149,-1.7715 0.97759,0 1.76945,-0.7939 1.76953,-1.7715 l 0,-8.8594 c -8e-5,-0.9776 -0.79194,-1.7704 -1.76953,-1.7715 -0.9783,-1e-4 -1.77135,-0.7931 -1.77149,-1.7715 9e-5,-0.9783 0.79315,-1.7713 1.77149,-1.7714 0.97759,0 1.76945,0.7938 1.76953,1.7714 1.4e-4,0.9784 0.79322,1.7714 1.77148,1.7715 l 26.70312,0 c 0.97833,-1e-4 1.7714,-0.7932 1.77148,-1.7715 m 0.002,-154.0721 c -4e-4,-3.9141 -3.17384,-7.0867 -7.08789,-7.086 l -7.08593,0 c -9.78093,0 -17.708,-7.9338 -17.70898,-17.7148 -1.3e-4,-9.7817 7.92726,-17.7126 17.70898,-17.7168 l 7.08593,0 c 3.91409,7e-4 7.08754,-3.1718 7.08789,-7.0859 m -0.002,-109.0176 c -8e-5,-0.9783 -0.79315,-1.7714 -1.77148,-1.7715 l -26.70312,-0.01 c -0.97829,10e-5 -1.77139,0.7932 -1.77148,1.7715 -10e-5,0.9775 -0.79194,1.7704 -1.76953,1.7715 -0.97833,0 -1.77139,-0.7932 -1.77149,-1.7715 9e-5,-0.9784 0.79316,-1.7714 1.77149,-1.7715 0.97759,-0.001 1.76943,-0.7938 1.76953,-1.7714 l 0,-8.8594 c -10e-5,-0.9776 -0.79194,-1.7703 -1.76953,-1.7715 -0.97833,-10e-5 -1.7714,-0.7931 -1.77149,-1.7715 1e-4,-0.9783 0.79316,-1.7714 1.77149,-1.7715 0.97759,0.001 1.76943,0.794 1.76953,1.7715 9e-5,0.9783 0.79319,1.7714 1.77148,1.7715 l 26.77538,0 c 0.94926,-0.038 1.69975,-0.8176 1.70117,-1.7676 m -35.56445,100.1447 c 2.93499,2e-4 5.31418,2.3792 5.31445,5.3145 -3.1e-4,2.935 -2.37949,5.3141 -5.31445,5.3144 -2.93493,-3e-4 -5.31414,-2.3795 -5.31445,-5.3144 2.7e-4,-2.9352 2.37948,-5.3142 5.31445,-5.3145 z m 0,205.3222 c 2.9357,-7e-4 5.3161,2.3787 5.31641,5.3144 7.9e-4,2.9365 -2.37993,5.3172 -5.31641,5.3164 -2.93571,-3e-4 -5.31524,-2.3807 -5.31445,-5.3164 3.1e-4,-2.9349 2.37952,-5.3141 5.31445,-5.3144 z"
       id="rect10188-7-8-3-9-9-9-0-4-3-7-9"
       inkscape:connector-curvature="0"
       sodipodi:nodetypes="ccccscccsccsccccsscccccccscccccccccccscccccccccccccccccccccccccccccc" />
    <path
       style="opacity:1;fill:none;fill-opacity:1;stroke:#0000ff;stroke-width:0.03543307;stroke-linecap:round;stroke-miterlimit:4;stroke-dasharray:none;stroke-dashoffset:0;stroke-opacity:1"
       d="m 518.7323,469.53512 c 1.9621,10e-4 3.5414,1.5826 3.5411,3.5449 l 0,17.7578 c -0.023,0.9473 -0.7871,1.7088 -1.7344,1.7285 l -26.6133,0 c -0.9783,-1e-4 -1.7714,-0.7932 -1.7715,-1.7715 -10e-5,-0.9775 -0.7919,-1.7704 -1.7695,-1.7715 -0.9783,10e-5 -1.77141,0.7932 -1.7715,1.7715 10e-5,0.9784 0.7932,1.7714 1.7715,1.7715 0.9776,10e-4 1.7694,0.7939 1.7695,1.7715 l 0,8.8594 c -10e-5,0.9776 -0.7919,1.7703 -1.7695,1.7715 -0.9783,10e-5 -1.77136,0.7931 -1.7715,1.7714 9e-5,0.9783 0.7931,1.7715 1.7715,1.7715 0.9776,0 1.7694,-0.7939 1.7695,-1.7715 2e-4,-0.9783 0.7932,-1.7713 1.7715,-1.7714 l 26.5742,0 c 0.9783,10e-5 1.7714,0.7932 1.7715,1.7715 0.045,108.8338 0,312.6932 0,312.6932 -10e-5,0.9783 -0.7932,1.7714 -1.7715,1.7715 l -26.5742,0 c -0.9783,-10e-5 -1.7714,-0.7932 -1.7715,-1.7715 -10e-5,-0.9776 -0.7919,-1.7703 -1.7695,-1.7715 -0.9784,10e-5 -1.77141,0.7932 -1.7715,1.7715 9e-5,0.9784 0.7931,1.7714 1.7715,1.7715 0.9776,10e-4 1.7694,0.7939 1.7695,1.7715 l 0,8.8593 c 10e-4,0.9783 -0.7912,1.7724 -1.7695,1.7735 -0.9784,10e-5 -1.77141,0.7932 -1.7715,1.7715 9e-5,0.9783 0.7931,1.7714 1.7715,1.7715 0.9776,0 1.7694,-0.7939 1.7695,-1.7715 10e-5,-0.9783 0.7932,-1.7714 1.7715,-1.7715 l 26.5781,0 c 0.9618,9e-4 1.7472,0.769 1.7696,1.7305 l 0,35.4726 c 0,1.963 -1.58,3.543 -3.543,3.543 l -46.06251,0 c -1.963,0 -3.54297,-1.58 -3.54297,-3.543 l -0.002,-47.8359 c -1.4e-4,-0.9775 -0.792,-1.7703 -1.76953,-1.7715 l -8.85546,0 c -3.91281,-6e-4 -7.06484,-3.1393 -7.08594,-7.0469 l 0,-302.1425 c 0.021,-3.9076 3.17313,-7.0468 7.08594,-7.0468 l 8.8535,0 0.002,0 c 0.97757,0 1.76945,-0.7939 1.76953,-1.7715 l 0.002,-30.1192 c 0,-1.9632 1.57997,-3.5429 3.54297,-3.5429 l 46.06247,0 z m -31.89449,121.3964 c -2.93497,2e-4 -5.31413,2.3796 -5.31445,5.3145 2.6e-4,2.935 2.37944,5.3141 5.31445,5.3144 2.93579,0 5.31619,-2.3786 5.31639,-5.3144 -3e-4,-2.9357 -2.3807,-5.3153 -5.31639,-5.3145 z m 0.01,205.3437 c -2.93497,3e-4 -5.3142,2.3794 -5.31446,5.3144 3.2e-4,2.9349 2.37953,5.3142 5.31446,5.3145 2.93569,8e-4 5.31609,-2.3788 5.31639,-5.3145 -3e-4,-2.9358 -2.3806,-5.3152 -5.31639,-5.3144 z"
       id="rect10188-7-8-3-9-9-9-4-0-2-4"
       inkscape:connector-curvature="0"
       sodipodi:nodetypes="cccccccccccccscccccccsccccccccscccsssccccccscsccscccccccccccc" />
    <path
       style="opacity:1;fill:none;fill-opacity:1;stroke:#0000ff;stroke-width:0.03543307;stroke-linecap:round;stroke-miterlimit:4;stroke-dasharray:none;stroke-dashoffset:0;stroke-opacity:1"
       d="m 451.41199,814.16602 c -0.021,3.9076 -3.17314,7.0469 -7.08594,7.0469 l -8.98047,0 -0.002,0 c -0.973,10e-5 -1.76388,0.7848 -1.77149,1.7578 l 0.002,47.8496 c 0,1.963 -1.57997,3.543 -3.54297,3.543 l -46.06835,0 c -1.963,0 -3.54492,-1.58 -3.54492,-3.543 l 0,-35.4316 c 9e-5,-0.9783 0.79315,-1.7714 1.77148,-1.7715 l 26.70507,0 c 0.9783,10e-5 1.77139,0.7932 1.77148,1.7715 8e-5,0.9776 0.79194,1.7703 1.76953,1.7714 0.97834,-10e-5 1.7714,-0.793 1.77149,-1.7714 -9e-5,-0.9783 -0.79315,-1.7715 -1.77149,-1.7715 -0.97759,0 -1.76945,-0.7939 -1.76953,-1.7715 l 0,-8.8594 c 8e-5,-0.9776 0.79194,-1.7704 1.76953,-1.7715 0.9783,-10e-5 1.77135,-0.7931 1.77149,-1.7715 -9e-5,-0.9783 -0.79315,-1.7713 -1.77149,-1.7714 -0.97759,0 -1.76945,0.7938 -1.76953,1.7714 -1.4e-4,0.9784 -0.79322,1.7714 -1.77148,1.7715 l -26.70312,0 c -0.97833,-10e-5 -1.7714,-0.7932 -1.77148,-1.7715 l -0.002,-154.0721 c 4e-4,-3.9141 3.17384,-7.0867 7.08789,-7.086 l 7.08593,0 c 9.78093,0 17.708,-7.9338 17.70898,-17.7148 1.3e-4,-9.7817 -7.92726,-17.7126 -17.70898,-17.7168 l -7.08593,0 c -3.91409,7e-4 -7.08754,-3.1718 -7.08789,-7.0859 -0.0184,-37.7057 0.002,-109.0176 0.002,-109.0176 8e-5,-0.9783 0.79315,-1.7714 1.77148,-1.7715 l 26.70312,-0.01 c 0.97829,1e-4 1.77139,0.7932 1.77148,1.7715 10e-5,0.9775 0.79194,1.7704 1.76953,1.7715 0.97833,0 1.77139,-0.7932 1.77149,-1.7715 -9e-5,-0.9784 -0.79316,-1.7714 -1.77149,-1.7715 -0.97759,-10e-4 -1.76943,-0.7938 -1.76953,-1.7714 l 0,-8.8594 c 10e-5,-0.9776 0.79194,-1.7703 1.76953,-1.7715 0.97833,-1e-4 1.7714,-0.7931 1.77149,-1.7715 -1e-4,-0.9783 -0.79316,-1.7714 -1.77149,-1.7715 -0.97759,10e-4 -1.76943,0.794 -1.76953,1.7715 -9e-5,0.9783 -0.79319,1.7714 -1.77148,1.7715 l -26.77538,0 c -0.94926,-0.038 -1.69975,-0.8176 -1.70117,-1.7676 l 0,-17.7187 c 0,-1.963 1.58192,-3.5449 3.54492,-3.5449 l 1e-5,0.01 46.06639,0 0.002,0 c 1.963,0 3.54297,1.5799 3.54297,3.543 l -0.002,30.1328 c 0.008,0.973 0.79849,1.7577 1.77149,1.7578 l 8.98242,0 c 3.9128,0 7.06484,3.1393 7.08594,7.0469 m -35.42969,78.9218 c -2.93499,2e-4 -5.31418,2.3792 -5.31445,5.3145 3.1e-4,2.935 2.37949,5.3141 5.31445,5.3144 2.93493,-3e-4 5.31414,-2.3795 5.31445,-5.3144 -2.7e-4,-2.9352 -2.37948,-5.3142 -5.31445,-5.3145 z m 0,205.3222 c -2.9357,-7e-4 -5.3161,2.3787 -5.31641,5.3144 -7.9e-4,2.9365 2.37993,5.3172 5.31641,5.3164 2.93571,-3e-4 5.31524,-2.3807 5.31445,-5.3164 -3.1e-4,-2.9349 -2.37952,-5.3141 -5.31445,-5.3144 z"
       id="rect10188-7-8-3-9-9-9-0-4-3-72-9"
       inkscape:connector-curvature="0"
       sodipodi:nodetypes="csccccsssccccccscccccccccccsccccccccccccccccccccscccscccsccccccccccc" />
    <path
       style="opacity:1;fill:none;fill-opacity:1;stroke:#0000ff;stroke-width:0.03543307;stroke-linecap:round;stroke-miterlimit:4;stroke-dasharray:none;stroke-dashoffset:0;stroke-opacity:1"
       d="m 832.69066,672.29387 c -0.021,-3.9076 -3.17313,-7.0468 -7.08594,-7.0468 l -8.85351,0 -0.002,0 c -0.97756,0 -1.76944,-0.7939 -1.76952,-1.7715 l -0.002,-30.1192 c 0,-1.96321 -1.57997,-3.54291 -3.54297,-3.54291 l -46.0625,0 -0.002,0 c -1.9621,0.001 -3.54141,1.5826 -3.54102,3.54491 l 0,17.7578 c 0.0229,0.9473 0.78705,1.7088 1.73438,1.7285 l 26.61328,0 c 0.97829,-10e-5 1.77138,-0.7932 1.77148,-1.7715 9e-5,-0.9775 0.79194,-1.7704 1.76953,-1.7715 0.97833,1e-4 1.7714,0.7932 1.77149,1.7715 -1e-4,0.9784 -0.79316,1.7714 -1.77149,1.7715 -0.97759,0.001 -1.76944,0.7939 -1.76953,1.7715 l 0,8.8594 c 9e-5,0.9776 0.79194,1.7703 1.76953,1.7715 0.9783,10e-5 1.77135,0.7931 1.77149,1.7714 -9e-5,0.9783 -0.79315,1.7715 -1.77149,1.7715 -0.97759,0 -1.76944,-0.7939 -1.76953,-1.7715 -1.4e-4,-0.9783 -0.79322,-1.7713 -1.77148,-1.7714 l -26.57422,0 c -0.97833,10e-5 -1.7714,0.7932 -1.77148,1.7715 -0.0453,108.83379 0,312.69319 0,312.69319 8e-5,0.9783 0.79315,1.7714 1.77148,1.7715 l 26.57422,0 c 0.9783,-10e-5 1.77139,-0.7932 1.77148,-1.7715 9e-5,-0.9776 0.79194,-1.7703 1.76953,-1.7715 0.97834,1e-4 1.7714,0.7932 1.77149,1.7715 -9e-5,0.9784 -0.79315,1.7714 -1.77149,1.7715 -0.97759,10e-4 -1.76944,0.7939 -1.76953,1.7715 l 0,8.8593 c -9.6e-4,0.9783 0.79119,1.7724 1.76953,1.7735 0.97834,10e-5 1.7714,0.7932 1.77149,1.7715 -9e-5,0.9783 -0.79315,1.7714 -1.77149,1.7715 -0.97759,0 -1.76944,-0.7939 -1.76953,-1.7715 -9e-5,-0.9783 -0.79318,-1.7714 -1.77148,-1.7715 l -26.57813,0 c -0.96178,9e-4 -1.74719,0.769 -1.76953,1.7305 l 0,35.47264 c 0,1.963 1.57997,3.543 3.54297,3.543 l 46.0625,0 c 1.963,0 3.54297,-1.58 3.54297,-3.543 l 0.002,-47.83594 c 1.4e-4,-0.9775 0.792,-1.7703 1.76952,-1.7715 l 8.85547,0 c 3.91281,-6e-4 7.06484,-3.1393 7.08594,-7.0469 m -35.42582,-223.2265 c 2.93497,2e-4 5.31413,2.3796 5.31445,5.3145 -2.6e-4,2.935 -2.37944,5.3141 -5.31445,5.3144 -2.93575,0 -5.31615,-2.3786 -5.31641,-5.3144 3.2e-4,-2.9357 2.3807,-5.3153 5.31641,-5.3145 z m -0.01,205.3437 c 2.93497,3e-4 5.3142,2.3794 5.31446,5.3144 -3.2e-4,2.9349 -2.37953,5.3142 -5.31446,5.3145 -2.93571,8e-4 -5.31608,-2.3788 -5.3164,-5.3145 2.6e-4,-2.9358 2.38065,-5.3152 5.3164,-5.3144 z"
       id="rect10188-7-8-3-9-9-9-4-0-1-5-9"
       inkscape:connector-curvature="0"
       sodipodi:nodetypes="cscsccsccccccccccccccscccccccsccccccccscccsssccccccccccccccc" />
    <path
       style="opacity:1;fill:none;fill-opacity:1;stroke:#0000ff;stroke-width:0.03543307;stroke-linecap:round;stroke-miterlimit:4;stroke-dasharray:none;stroke-dashoffset:0;stroke-opacity:1"
       d="m 903.68481,633.35837 c 0,-1.96301 -1.58192,-3.54491 -3.54492,-3.54491 l -1e-5,0.01 -46.0664,0 -0.002,0 c -1.963,0 -3.54297,1.5799 -3.54297,3.54301 l 0.002,30.1328 c -0.008,0.973 -0.79849,1.7577 -1.77149,1.7578 l -8.98242,0 c -3.9128,0 -7.06484,3.1393 -7.08594,7.0469 l 0,302.14439 c 0.021,3.9076 3.17314,7.0469 7.08594,7.0469 l 8.98047,0 0.002,0 c 0.973,10e-5 1.76388,0.7848 1.77149,1.7578 l -0.002,47.84964 c 0,1.963 1.57997,3.543 3.54297,3.543 l 46.06836,0 c 1.963,0 3.54492,-1.58 3.54492,-3.543 m 0,-35.43164 c -9e-5,-0.9783 -0.79315,-1.7714 -1.77148,-1.7715 l -26.70507,0 c -0.9783,1e-4 -1.77139,0.7932 -1.77148,1.7715 -8e-5,0.9776 -0.79194,1.7703 -1.76953,1.7714 -0.97834,-10e-5 -1.7714,-0.793 -1.77149,-1.7714 9e-5,-0.9783 0.79315,-1.7715 1.77149,-1.7715 0.97759,0 1.76945,-0.7939 1.76953,-1.7715 l 0,-8.8594 c -8e-5,-0.9776 -0.79194,-1.7704 -1.76953,-1.7715 -0.9783,-10e-5 -1.77135,-0.7931 -1.77149,-1.7715 9e-5,-0.9783 0.79315,-1.7713 1.77149,-1.7714 0.97759,0 1.76945,0.7938 1.76953,1.7714 1.4e-4,0.9784 0.79322,1.7714 1.77148,1.7715 l 26.70312,0 c 0.97833,-10e-5 1.7714,-0.7932 1.77148,-1.7715 m 0.002,-154.0721 c -4e-4,-3.9141 -3.17384,-7.0867 -7.08789,-7.086 l -7.08593,0 c -9.78093,0 -17.708,-7.9338 -17.70898,-17.7148 -1.3e-4,-9.7817 7.92726,-17.7126 17.70898,-17.7168 l 7.08593,0 c 3.91409,7e-4 7.08754,-3.1718 7.08789,-7.0859 m -0.002,-109.01759 c -8e-5,-0.9783 -0.79315,-1.7714 -1.77148,-1.7715 l -26.70312,-0.01 c -0.97829,10e-5 -1.77139,0.7932 -1.77148,1.7715 -10e-5,0.9775 -0.79194,1.7704 -1.76953,1.7715 -0.97833,0 -1.77139,-0.7932 -1.77149,-1.7715 9e-5,-0.9784 0.79316,-1.7714 1.77149,-1.7715 0.97759,-0.001 1.76943,-0.7938 1.76953,-1.7714 l 0,-8.8594 c -10e-5,-0.9776 -0.79194,-1.7703 -1.76953,-1.7715 -0.97833,-10e-5 -1.7714,-0.7931 -1.77149,-1.7715 10e-5,-0.9783 0.79316,-1.7714 1.77149,-1.7715 0.97759,0.001 1.76943,0.794 1.76953,1.7715 9e-5,0.9783 0.79319,1.7714 1.77148,1.7715 l 26.77538,0 c 0.94926,-0.038 1.69975,-0.8176 1.70117,-1.7676 m -35.56445,100.14469 c 2.93499,2e-4 5.31418,2.3792 5.31445,5.3145 -3.1e-4,2.935 -2.37949,5.3141 -5.31445,5.3144 -2.93493,-3e-4 -5.31414,-2.3795 -5.31445,-5.3144 2.7e-4,-2.9352 2.37948,-5.3142 5.31445,-5.3145 z m 0,205.3222 c 2.9357,-7e-4 5.3161,2.3787 5.31641,5.3144 7.9e-4,2.9365 -2.37993,5.3172 -5.31641,5.3164 -2.93571,-3e-4 -5.31524,-2.3807 -5.31445,-5.3164 3.1e-4,-2.9349 2.37952,-5.3141 5.31445,-5.3144 z"
       id="rect10188-7-8-3-9-9-9-0-4-3-7-9-1"
       inkscape:connector-curvature="0"
       sodipodi:nodetypes="ccccscccsccsccccsscccccccscccccccccccscccccccccccccccccccccccccccccc" />
    <path
       style="opacity:1;fill:none;fill-opacity:1;stroke:#0000ff;stroke-width:0.03543307;stroke-linecap:round;stroke-miterlimit:4;stroke-dasharray:none;stroke-dashoffset:0;stroke-opacity:1"
       d="m 1042.0147,629.81346 c 1.9621,0.001 3.5414,1.5826 3.5411,3.54491 l 0,17.7578 c -0.023,0.9473 -0.7871,1.7088 -1.7344,1.7285 l -26.6133,0 c -0.9783,-10e-5 -1.7714,-0.7932 -1.7715,-1.7715 -10e-5,-0.9775 -0.7919,-1.7704 -1.7695,-1.7715 -0.9783,1e-4 -1.7714,0.7932 -1.7715,1.7715 1e-4,0.9784 0.7932,1.7714 1.7715,1.7715 0.9776,0.001 1.7694,0.7939 1.7695,1.7715 l 0,8.8594 c -10e-5,0.9776 -0.7919,1.7703 -1.7695,1.7715 -0.9783,10e-5 -1.7714,0.7931 -1.7715,1.7714 1e-4,0.9783 0.7931,1.7715 1.7715,1.7715 0.9776,0 1.7694,-0.7939 1.7695,-1.7715 2e-4,-0.9783 0.7932,-1.7713 1.7715,-1.7714 l 26.5742,0 c 0.9783,10e-5 1.7714,0.7932 1.7715,1.7715 0.045,108.83379 0,312.69319 0,312.69319 -10e-5,0.9783 -0.7932,1.7714 -1.7715,1.7715 l -26.5742,0 c -0.9783,-10e-5 -1.7714,-0.7932 -1.7715,-1.7715 -10e-5,-0.9776 -0.7919,-1.7703 -1.7695,-1.7715 -0.9784,1e-4 -1.7714,0.7932 -1.7715,1.7715 1e-4,0.9784 0.7931,1.7714 1.7715,1.7715 0.9776,10e-4 1.7694,0.7939 1.7695,1.7715 l 0,8.8593 c 0,0.9783 -0.7912,1.7724 -1.7695,1.7735 -0.9784,10e-5 -1.7714,0.7932 -1.7715,1.7715 1e-4,0.9783 0.7931,1.7714 1.7715,1.7715 0.9776,0 1.7694,-0.7939 1.7695,-1.7715 10e-5,-0.9783 0.7932,-1.7714 1.7715,-1.7715 l 26.5781,0 c 0.9618,9e-4 1.7472,0.769 1.7696,1.7305 l 0,35.47264 c 0,1.963 -1.58,3.543 -3.543,3.543 l -46.06245,0 c -1.96302,0 -3.54299,-1.58 -3.54299,-3.543 l -0.002,-47.83594 c -1.4e-4,-0.9775 -0.792,-1.7703 -1.76953,-1.7715 l -8.85546,0 c -3.91281,-6e-4 -7.06484,-3.1393 -7.08594,-7.0469 l 0,-302.14249 c 0.021,-3.9076 3.17313,-7.0468 7.08594,-7.0468 l 8.8535,0 0.002,0 c 0.97757,0 1.76945,-0.7939 1.76953,-1.7715 l 0.002,-30.1192 c 0,-1.96321 1.57997,-3.54291 3.54295,-3.54291 l 46.06245,0 z m -31.8945,121.3964 c -2.935,2e-4 -5.3141,2.3796 -5.3145,5.3145 3e-4,2.935 2.3795,5.3141 5.3145,5.3144 2.9358,0 5.3162,-2.3786 5.3164,-5.3144 -3e-4,-2.9357 -2.3807,-5.3153 -5.3164,-5.3145 z m 0.01,205.3437 c -2.935,3e-4 -5.3142,2.3794 -5.3145,5.3144 4e-4,2.9349 2.3796,5.3142 5.3145,5.3145 2.9357,8e-4 5.3161,-2.3788 5.3164,-5.3145 -3e-4,-2.9358 -2.3806,-5.3152 -5.3164,-5.3144 z"
       id="rect10188-7-8-3-9-9-9-4-0-2-4-7"
       inkscape:connector-curvature="0"
       sodipodi:nodetypes="cccccccccccccscccccccsccccccccscccsssccccccscsccscccccccccccc" />
    <path
       style="opacity:1;fill:none;fill-opacity:1;stroke:#0000ff;stroke-width:0.03543307;stroke-linecap:round;stroke-miterlimit:4;stroke-dasharray:none;stroke-dashoffset:0;stroke-opacity:1"
       d="m 974.69443,974.44436 c -0.021,3.9076 -3.17314,7.0469 -7.08594,7.0469 l -8.98047,0 -0.002,0 c -0.973,10e-5 -1.76388,0.7848 -1.77149,1.7578 l 0.002,47.84964 c 0,1.963 -1.57997,3.543 -3.54297,3.543 l -46.06835,0 c -1.963,0 -3.54492,-1.58 -3.54492,-3.543 l 0,-35.43164 c 9e-5,-0.9783 0.79315,-1.7714 1.77148,-1.7715 l 26.70507,0 c 0.9783,10e-5 1.77139,0.7932 1.77148,1.7715 8e-5,0.9776 0.79194,1.7703 1.76953,1.7714 0.97834,-10e-5 1.7714,-0.793 1.77149,-1.7714 -9e-5,-0.9783 -0.79315,-1.7715 -1.77149,-1.7715 -0.97759,0 -1.76945,-0.7939 -1.76953,-1.7715 l 0,-8.8594 c 8e-5,-0.9776 0.79194,-1.7704 1.76953,-1.7715 0.9783,-10e-5 1.77135,-0.7931 1.77149,-1.7715 -9e-5,-0.9783 -0.79315,-1.7713 -1.77149,-1.7714 -0.97759,0 -1.76945,0.7938 -1.76953,1.7714 -1.4e-4,0.9784 -0.79322,1.7714 -1.77148,1.7715 l -26.70312,0 c -0.97833,-10e-5 -1.7714,-0.7932 -1.77148,-1.7715 l -0.002,-154.0721 c 4e-4,-3.9141 3.17384,-7.0867 7.08789,-7.086 l 7.08593,0 c 9.78093,0 17.708,-7.9338 17.70898,-17.7148 1.3e-4,-9.7817 -7.92726,-17.7126 -17.70898,-17.7168 l -7.08593,0 c -3.91409,7e-4 -7.08754,-3.1718 -7.08789,-7.0859 -0.0184,-37.7057 0.002,-109.01759 0.002,-109.01759 8e-5,-0.9783 0.79315,-1.7714 1.77148,-1.7715 l 26.70312,-0.01 c 0.97829,10e-5 1.77139,0.7932 1.77148,1.7715 1e-4,0.9775 0.79194,1.7704 1.76953,1.7715 0.97833,0 1.77139,-0.7932 1.77149,-1.7715 -9e-5,-0.9784 -0.79316,-1.7714 -1.77149,-1.7715 -0.97759,-10e-4 -1.76943,-0.7938 -1.76953,-1.7714 l 0,-8.8594 c 1e-4,-0.9776 0.79194,-1.7703 1.76953,-1.7715 0.97833,-10e-5 1.7714,-0.7931 1.77149,-1.7715 -10e-5,-0.9783 -0.79316,-1.7714 -1.77149,-1.7715 -0.97759,0.001 -1.76943,0.794 -1.76953,1.7715 -9e-5,0.9783 -0.79319,1.7714 -1.77148,1.7715 l -26.77538,0 c -0.94926,-0.038 -1.69975,-0.8176 -1.70117,-1.7676 l 0,-17.7187 c 0,-1.96301 1.58192,-3.54491 3.54492,-3.54491 l 10e-6,0.01 46.06639,0 0.002,0 c 1.963,0 3.54297,1.5799 3.54297,3.54301 l -0.002,30.1328 c 0.008,0.973 0.79849,1.7577 1.77149,1.7578 l 8.98242,0 c 3.9128,0 7.06484,3.1393 7.08594,7.0469 m -35.42969,78.92179 c -2.93499,2e-4 -5.31418,2.3792 -5.31445,5.3145 3.1e-4,2.935 2.37949,5.3141 5.31445,5.3144 2.93493,-3e-4 5.31414,-2.3795 5.31445,-5.3144 -2.7e-4,-2.9352 -2.37948,-5.3142 -5.31445,-5.3145 z m 0,205.3222 c -2.9357,-7e-4 -5.3161,2.3787 -5.31641,5.3144 -7.9e-4,2.9365 2.37993,5.3172 5.31641,5.3164 2.93571,-3e-4 5.31524,-2.3807 5.31445,-5.3164 -3.1e-4,-2.9349 -2.37952,-5.3141 -5.31445,-5.3144 z"
       id="rect10188-7-8-3-9-9-9-0-4-3-72-9-7"
       inkscape:connector-curvature="0"
       sodipodi:nodetypes="csccccsssccccccscccccccccccsccccccccccccccccccccscccscccsccccccccccc" />
    <path
       style="opacity:1;fill:none;fill-opacity:1;stroke:#0000ff;stroke-width:0.03543307;stroke-linecap:round;stroke-miterlimit:4;stroke-dasharray:none;stroke-dashoffset:0;stroke-opacity:1"
       d="m 1133.8656,672.29387 c -0.021,-3.9076 -3.1731,-7.0468 -7.086,-7.0468 l -8.8535,0 0,0 c -0.9775,0 -1.7694,-0.7939 -1.7695,-1.7715 l 0,-30.1192 c 0,-1.96321 -1.58,-3.54291 -3.543,-3.54291 l -46.0625,0 0,0 c -1.9621,0.001 -3.5414,1.5826 -3.541,3.54491 l 0,17.7578 c 0.023,0.9473 0.7871,1.7088 1.7344,1.7285 l 26.6133,0 c 0.9783,-10e-5 1.7714,-0.7932 1.7715,-1.7715 10e-5,-0.9775 0.7919,-1.7704 1.7695,-1.7715 0.9783,1e-4 1.7714,0.7932 1.7715,1.7715 -10e-5,0.9784 -0.7932,1.7714 -1.7715,1.7715 -0.9776,0.001 -1.7694,0.7939 -1.7695,1.7715 l 0,8.8594 c 10e-5,0.9776 0.7919,1.7703 1.7695,1.7715 0.9783,10e-5 1.7713,0.7931 1.7715,1.7714 -10e-5,0.9783 -0.7932,1.7715 -1.7715,1.7715 -0.9776,0 -1.7694,-0.7939 -1.7695,-1.7715 -2e-4,-0.9783 -0.7933,-1.7713 -1.7715,-1.7714 l -26.5742,0 c -0.9784,10e-5 -1.7714,0.7932 -1.7715,1.7715 -0.045,108.83379 0,312.69319 0,312.69319 10e-5,0.9783 0.7931,1.7714 1.7715,1.7715 l 26.5742,0 c 0.9783,-10e-5 1.7714,-0.7932 1.7715,-1.7715 10e-5,-0.9776 0.7919,-1.7703 1.7695,-1.7715 0.9783,1e-4 1.7714,0.7932 1.7715,1.7715 -10e-5,0.9784 -0.7932,1.7714 -1.7715,1.7715 -0.9776,10e-4 -1.7694,0.7939 -1.7695,1.7715 l 0,8.8593 c -10e-4,0.9783 0.7912,1.7724 1.7695,1.7735 0.9783,10e-5 1.7714,0.7932 1.7715,1.7715 -10e-5,0.9783 -0.7932,1.7714 -1.7715,1.7715 -0.9776,0 -1.7694,-0.7939 -1.7695,-1.7715 -10e-5,-0.9783 -0.7932,-1.7714 -1.7715,-1.7715 l -26.5781,0 c -0.9618,9e-4 -1.7472,0.769 -1.7696,1.7305 l 0,35.47264 c 0,1.963 1.58,3.543 3.543,3.543 l 46.0625,0 c 1.963,0 3.543,-1.58 3.543,-3.543 l 0,-47.83594 c 10e-5,-0.9775 0.792,-1.7703 1.7695,-1.7715 l 8.8555,0 c 3.9128,-6e-4 7.0648,-3.1393 7.0859,-7.0469 m -35.4258,-223.2265 c 2.9349,2e-4 5.3141,2.3796 5.3144,5.3145 -2e-4,2.935 -2.3794,5.3141 -5.3144,5.3144 -2.9358,0 -5.3162,-2.3786 -5.3164,-5.3144 3e-4,-2.9357 2.3807,-5.3153 5.3164,-5.3145 z m -0.01,205.3437 c 2.9349,3e-4 5.3142,2.3794 5.3144,5.3144 -3e-4,2.9349 -2.3795,5.3142 -5.3144,5.3145 -2.9357,8e-4 -5.3161,-2.3788 -5.3164,-5.3145 2e-4,-2.9358 2.3806,-5.3152 5.3164,-5.3144 z"
       id="rect10188-7-8-3-9-9-9-4-0-1-5-9-6"
       inkscape:connector-curvature="0"
       sodipodi:nodetypes="cscsccsccccccccccccccscccccccsccccccccscccsssccccccccccccccc" />
    <path
       style="opacity:1;fill:none;fill-opacity:1;stroke:#0000ff;stroke-width:0.03543307;stroke-linecap:round;stroke-miterlimit:4;stroke-dasharray:none;stroke-dashoffset:0;stroke-opacity:1"
       d="m 1204.8597,633.35837 c 0,-1.96301 -1.5819,-3.54491 -3.5449,-3.54491 l 0,0.01 -46.0664,0 0,0 c -1.963,0 -3.543,1.5799 -3.543,3.54301 l 0,30.1328 c -0.01,0.973 -0.7985,1.7577 -1.7715,1.7578 l -8.9824,0 c -3.9128,0 -7.0648,3.1393 -7.0859,7.0469 l 0,302.14439 c 0.021,3.9076 3.1731,7.0469 7.0859,7.0469 l 8.9805,0 0,0 c 0.973,10e-5 1.7639,0.7848 1.7715,1.7578 l 0,47.84964 c 0,1.963 1.58,3.543 3.543,3.543 l 46.0683,0 c 1.963,0 3.5449,-1.58 3.5449,-3.543 m 0,-35.43164 c -10e-5,-0.9783 -0.7931,-1.7714 -1.7714,-1.7715 l -26.7051,0 c -0.9783,1e-4 -1.7714,0.7932 -1.7715,1.7715 -10e-5,0.9776 -0.7919,1.7703 -1.7695,1.7714 -0.9784,-10e-5 -1.7714,-0.793 -1.7715,-1.7714 10e-5,-0.9783 0.7931,-1.7715 1.7715,-1.7715 0.9776,0 1.7694,-0.7939 1.7695,-1.7715 l 0,-8.8594 c -10e-5,-0.9776 -0.7919,-1.7704 -1.7695,-1.7715 -0.9783,-10e-5 -1.7714,-0.7931 -1.7715,-1.7715 10e-5,-0.9783 0.7931,-1.7713 1.7715,-1.7714 0.9776,0 1.7694,0.7938 1.7695,1.7714 10e-5,0.9784 0.7932,1.7714 1.7715,1.7715 l 26.7031,0 c 0.9783,-10e-5 1.7714,-0.7932 1.7715,-1.7715 m 0,-154.0721 c -4e-4,-3.9141 -3.1739,-7.0867 -7.0879,-7.086 l -7.0859,0 c -9.781,0 -17.708,-7.9338 -17.709,-17.7148 -10e-5,-9.7817 7.9272,-17.7126 17.709,-17.7168 l 7.0859,0 c 3.9141,7e-4 7.0875,-3.1718 7.0879,-7.0859 m 0,-109.01759 c -10e-5,-0.9783 -0.7932,-1.7714 -1.7715,-1.7715 l -26.7031,-0.01 c -0.9783,10e-5 -1.7714,0.7932 -1.7715,1.7715 -10e-5,0.9775 -0.7919,1.7704 -1.7695,1.7715 -0.9784,0 -1.7714,-0.7932 -1.7715,-1.7715 10e-5,-0.9784 0.7931,-1.7714 1.7715,-1.7715 0.9776,-0.001 1.7694,-0.7938 1.7695,-1.7714 l 0,-8.8594 c -10e-5,-0.9776 -0.7919,-1.7703 -1.7695,-1.7715 -0.9784,-10e-5 -1.7714,-0.7931 -1.7715,-1.7715 10e-5,-0.9783 0.7931,-1.7714 1.7715,-1.7715 0.9776,0.001 1.7694,0.794 1.7695,1.7715 10e-5,0.9783 0.7932,1.7714 1.7715,1.7715 l 26.7754,0 c 0.9492,-0.038 1.6997,-0.8176 1.7011,-1.7676 m -35.5644,100.14469 c 2.935,2e-4 5.3142,2.3792 5.3144,5.3145 -3e-4,2.935 -2.3795,5.3141 -5.3144,5.3144 -2.9349,-3e-4 -5.3142,-2.3795 -5.3145,-5.3144 3e-4,-2.9352 2.3795,-5.3142 5.3145,-5.3145 z m 0,205.3222 c 2.9357,-7e-4 5.3161,2.3787 5.3164,5.3144 8e-4,2.9365 -2.3799,5.3172 -5.3164,5.3164 -2.9357,-3e-4 -5.3153,-2.3807 -5.3145,-5.3164 3e-4,-2.9349 2.3796,-5.3141 5.3145,-5.3144 z"
       id="rect10188-7-8-3-9-9-9-0-4-3-7-9-1-7"
       inkscape:connector-curvature="0"
       sodipodi:nodetypes="ccccscccsccsccccsscccccccscccccccccccscccccccccccccccccccccccccccccc" />
    <path
       style="opacity:1;fill:none;fill-opacity:1;stroke:#0000ff;stroke-width:0.03543307;stroke-linecap:round;stroke-miterlimit:4;stroke-dasharray:none;stroke-dashoffset:0;stroke-opacity:1"
       d="m 1343.1897,629.81346 c 1.9621,0.001 3.5414,1.5826 3.5411,3.54491 l 0,17.7578 c -0.023,0.9473 -0.7871,1.7088 -1.7344,1.7285 l -26.6133,0 c -0.9783,-10e-5 -1.7714,-0.7932 -1.7715,-1.7715 -10e-5,-0.9775 -0.7919,-1.7704 -1.7695,-1.7715 -0.9783,1e-4 -1.7714,0.7932 -1.7715,1.7715 10e-5,0.9784 0.7932,1.7714 1.7715,1.7715 0.9776,0.001 1.7694,0.7939 1.7695,1.7715 l 0,8.8594 c -10e-5,0.9776 -0.7919,1.7703 -1.7695,1.7715 -0.9783,10e-5 -1.7714,0.7931 -1.7715,1.7714 10e-5,0.9783 0.7931,1.7715 1.7715,1.7715 0.9776,0 1.7694,-0.7939 1.7695,-1.7715 2e-4,-0.9783 0.7932,-1.7713 1.7715,-1.7714 l 26.5742,0 c 0.9783,10e-5 1.7714,0.7932 1.7715,1.7715 0.045,108.83379 0,312.69319 0,312.69319 -1e-4,0.9783 -0.7932,1.7714 -1.7715,1.7715 l -26.5742,0 c -0.9783,-10e-5 -1.7714,-0.7932 -1.7715,-1.7715 -10e-5,-0.9776 -0.7919,-1.7703 -1.7695,-1.7715 -0.9784,1e-4 -1.7714,0.7932 -1.7715,1.7715 10e-5,0.9784 0.7931,1.7714 1.7715,1.7715 0.9776,10e-4 1.7694,0.7939 1.7695,1.7715 l 0,8.8593 c 10e-4,0.9783 -0.7912,1.7724 -1.7695,1.7735 -0.9784,10e-5 -1.7714,0.7932 -1.7715,1.7715 10e-5,0.9783 0.7931,1.7714 1.7715,1.7715 0.9776,0 1.7694,-0.7939 1.7695,-1.7715 10e-5,-0.9783 0.7932,-1.7714 1.7715,-1.7715 l 26.5781,0 c 0.9618,9e-4 1.7472,0.769 1.7696,1.7305 l 0,35.47264 c 0,1.963 -1.58,3.543 -3.543,3.543 l -46.0625,0 c -1.963,0 -3.543,-1.58 -3.543,-3.543 l 0,-47.83594 c -2e-4,-0.9775 -0.792,-1.7703 -1.7695,-1.7715 l -8.8555,0 c -3.9128,-6e-4 -7.0648,-3.1393 -7.0859,-7.0469 l 0,-302.14249 c 0.021,-3.9076 3.1731,-7.0468 7.0859,-7.0468 l 8.8535,0 0,0 c 0.9776,0 1.7694,-0.7939 1.7695,-1.7715 l 0,-30.1192 c 0,-1.96321 1.58,-3.54291 3.543,-3.54291 l 46.0625,0 z m -31.8945,121.3964 c -2.935,2e-4 -5.3142,2.3796 -5.3145,5.3145 3e-4,2.935 2.3795,5.3141 5.3145,5.3144 2.9358,0 5.3162,-2.3786 5.3164,-5.3144 -3e-4,-2.9357 -2.3807,-5.3153 -5.3164,-5.3145 z m 0.01,205.3437 c -2.935,3e-4 -5.3142,2.3794 -5.3145,5.3144 3e-4,2.9349 2.3795,5.3142 5.3145,5.3145 2.9357,8e-4 5.3161,-2.3788 5.3164,-5.3145 -3e-4,-2.9358 -2.3806,-5.3152 -5.3164,-5.3144 z"
       id="rect10188-7-8-3-9-9-9-4-0-2-4-7-5"
       inkscape:connector-curvature="0"
       sodipodi:nodetypes="cccccccccccccscccccccsccccccccscccsssccccccscsccscccccccccccc" />
    <path
       style="opacity:1;fill:none;fill-opacity:1;stroke:#0000ff;stroke-width:0.03543307;stroke-linecap:round;stroke-miterlimit:4;stroke-dasharray:none;stroke-dashoffset:0;stroke-opacity:1"
       d="m 1275.8694,974.44436 c -0.021,3.9076 -3.1732,7.0469 -7.086,7.0469 l -8.9805,0 0,0 c -0.973,10e-5 -1.7638,0.7848 -1.7714,1.7578 l 0,47.84964 c 0,1.963 -1.58,3.543 -3.543,3.543 l -46.0684,0 c -1.963,0 -3.5449,-1.58 -3.5449,-3.543 l 0,-35.43164 c 10e-5,-0.9783 0.7932,-1.7714 1.7715,-1.7715 l 26.7051,0 c 0.9783,10e-5 1.7714,0.7932 1.7714,1.7715 10e-5,0.9776 0.792,1.7703 1.7696,1.7714 0.9783,-10e-5 1.7714,-0.793 1.7715,-1.7714 -10e-5,-0.9783 -0.7932,-1.7715 -1.7715,-1.7715 -0.9776,0 -1.7695,-0.7939 -1.7696,-1.7715 l 0,-8.8594 c 10e-5,-0.9776 0.792,-1.7704 1.7696,-1.7715 0.9783,-10e-5 1.7713,-0.7931 1.7715,-1.7715 -10e-5,-0.9783 -0.7932,-1.7713 -1.7715,-1.7714 -0.9776,0 -1.7695,0.7938 -1.7696,1.7714 -10e-5,0.9784 -0.7932,1.7714 -1.7714,1.7715 l -26.7032,0 c -0.9783,-10e-5 -1.7714,-0.7932 -1.7714,-1.7715 l 0,-154.0721 c 4e-4,-3.9141 3.1738,-7.0867 7.0879,-7.086 l 7.0859,0 c 9.7809,0 17.708,-7.9338 17.709,-17.7148 10e-5,-9.7817 -7.9273,-17.7126 -17.709,-17.7168 l -7.0859,0 c -3.9141,7e-4 -7.0876,-3.1718 -7.0879,-7.0859 -0.018,-37.7057 0,-109.01759 0,-109.01759 0,-0.9783 0.7931,-1.7714 1.7714,-1.7715 l 26.7032,-0.01 c 0.9783,10e-5 1.7714,0.7932 1.7714,1.7715 10e-5,0.9775 0.792,1.7704 1.7696,1.7715 0.9783,0 1.7714,-0.7932 1.7715,-1.7715 -10e-5,-0.9784 -0.7932,-1.7714 -1.7715,-1.7715 -0.9776,-10e-4 -1.7695,-0.7938 -1.7696,-1.7714 l 0,-8.8594 c 10e-5,-0.9776 0.792,-1.7703 1.7696,-1.7715 0.9783,-10e-5 1.7714,-0.7931 1.7715,-1.7715 -10e-5,-0.9783 -0.7932,-1.7714 -1.7715,-1.7715 -0.9776,0.001 -1.7695,0.794 -1.7696,1.7715 0,0.9783 -0.7931,1.7714 -1.7714,1.7715 l -26.7754,0 c -0.9493,-0.038 -1.6998,-0.8176 -1.7012,-1.7676 l 0,-17.7187 c 0,-1.96301 1.5819,-3.54491 3.5449,-3.54491 l 0,0.01 46.0664,0 0,0 c 1.963,0 3.543,1.5799 3.543,3.54301 l 0,30.1328 c 0.01,0.973 0.7985,1.7577 1.7715,1.7578 l 8.9824,0 c 3.9128,0 7.0649,3.1393 7.086,7.0469 m -35.4297,78.92179 c -2.935,2e-4 -5.3142,2.3792 -5.3145,5.3145 3e-4,2.935 2.3795,5.3141 5.3145,5.3144 2.9349,-3e-4 5.3141,-2.3795 5.3144,-5.3144 -3e-4,-2.9352 -2.3795,-5.3142 -5.3144,-5.3145 z m 0,205.3222 c -2.9357,-7e-4 -5.3161,2.3787 -5.3164,5.3144 -8e-4,2.9365 2.3799,5.3172 5.3164,5.3164 2.9357,-3e-4 5.3152,-2.3807 5.3144,-5.3164 -3e-4,-2.9349 -2.3795,-5.3141 -5.3144,-5.3144 z"
       id="rect10188-7-8-3-9-9-9-0-4-3-72-9-7-3"
       inkscape:connector-curvature="0"
       sodipodi:nodetypes="csccccsssccccccscccccccccccsccccccccccccccccccccscccscccsccccccccccc" />
    <path
       style="opacity:1;fill:none;fill-opacity:1;stroke:#0000ff;stroke-width:0.03543307;stroke-linecap:round;stroke-miterlimit:4;stroke-dasharray:none;stroke-dashoffset:0;stroke-opacity:1"
       d="m 141.73228,279.92218 c 0,5.889 4.7399,10.6289 10.6289,10.6289 l 209.0566,0 c 5.889,0 10.6289,-4.7399 10.6289,-10.6289 l 0,-177.166 c 0,-5.889002 -4.7399,-10.628902 -10.6289,-10.628902 l -209.0566,0 c -5.889,0 -10.6289,4.7399 -10.6289,10.628902 z m 7.1152,-175.2598 c -8e-4,-2.9358 2.3787,-5.316102 5.3145,-5.316402 2.9357,3e-4 5.3152,2.380702 5.3144,5.316402 -3e-4,2.935 -2.3794,5.3142 -5.3144,5.3145 -2.935,-3e-4 -5.3142,-2.3795 -5.3145,-5.3145 z m -8e-4,173.4922 c 3e-4,-2.935 2.3803,-5.3141 5.3153,-5.3144 2.9349,3e-4 5.3141,2.3795 5.3144,5.3144 -3e-4,2.935 -2.3794,5.3142 -5.3144,5.3145 -2.935,-3e-4 -5.315,-2.3795 -5.3153,-5.3145 z m 205.3211,-173.4922 c 3e-4,-2.935 2.3795,-5.314102 5.3145,-5.314402 2.9357,-8e-4 5.3161,2.378702 5.3164,5.314402 8e-4,2.9365 -2.3799,5.3172 -5.3164,5.3164 -2.9358,-3e-4 -5.3153,-2.3806 -5.3145,-5.3164 z m 0.022,173.5 c 3e-4,-2.935 2.3795,-5.3141 5.3145,-5.3144 2.9349,3e-4 5.3137,2.3795 5.314,5.3144 -2e-4,2.935 -2.379,5.3142 -5.314,5.3145 -2.935,-3e-4 -5.3142,-2.3795 -5.3145,-5.3145 z"
       id="rect100410-4-9-3-3"
       inkscape:connector-curvature="0"
       sodipodi:nodetypes="ssssssssscccccccccccccccccccc" />
    <path
       style="opacity:1;fill:none;fill-opacity:1;stroke:#0000ff;stroke-width:0.03543307;stroke-linecap:round;stroke-miterlimit:4;stroke-dasharray:none;stroke-dashoffset:0;stroke-opacity:1"
       d="m 361.41768,92.127278 c 5.8889,0 10.6288,-4.7399 10.6288,-10.628903 l 0,-177.166 c 0,-5.889005 -4.7399,-10.628905 -10.6288,-10.628905 l -209.0565,0 c -5.889,0 -10.6289,4.7399 -10.6289,10.628905 l 0,177.166 c 0,5.889003 4.7399,10.628903 10.6289,10.628903 m -3.5137,-185.888703 c -8e-4,-2.9358 2.3787,-5.3161 5.3145,-5.3164 2.9357,3e-4 5.3152,2.3807 5.3144,5.3164 -3e-4,2.935 -2.3794,5.3142 -5.3144,5.3145 -2.935,-3e-4 -5.3142,-2.3795 -5.3145,-5.3145 z m -8e-4,173.4922 c 3e-4,-2.935 2.3803,-5.3141 5.3153,-5.3144 2.9349,3e-4 5.3141,2.3795 5.3144,5.3144 -3e-4,2.935003 -2.3794,5.314203 -5.3144,5.314503 -2.935,-3e-4 -5.315,-2.3795 -5.3153,-5.314503 z m 205.321,-173.4922 c 2e-4,-2.935 2.3795,-5.3141 5.3144,-5.3144 2.9357,-8e-4 5.3161,2.3787 5.3164,5.3144 8e-4,2.9365 -2.3798,5.3172 -5.3164,5.3164 -2.9357,-3e-4 -5.3152,-2.3806 -5.3144,-5.3164 z m 0.022,173.5 c 3e-4,-2.935 2.3795,-5.3141 5.3145,-5.3144 2.9349,3e-4 5.3137,2.3795 5.314,5.3144 -10e-5,2.935003 -2.3789,5.314203 -5.314,5.314503 -2.935,-3e-4 -5.3142,-2.3795 -5.3145,-5.314503 z"
       id="rect100410-4-9-3-6-56"
       inkscape:connector-curvature="0"
       sodipodi:nodetypes="cssssssccccccccccccccccccccc" />
    <path
       style="opacity:1;fill:none;fill-opacity:1;stroke:#0000ff;stroke-width:0.03543307;stroke-linecap:round;stroke-miterlimit:4;stroke-dasharray:none;stroke-dashoffset:0;stroke-opacity:1"
       d="m 372.04668,279.92228 c 0,5.889 4.7399,10.6289 10.6289,10.6289 l 209.0565,0 c 5.889,0 10.6289,-4.7399 10.6289,-10.6289 l 0,-177.1659 c 0,-5.889002 -4.7399,-10.628902 -10.6289,-10.628902 l -209.0565,0 c -5.889,0 -10.6289,4.7399 -10.6289,10.628902 m 7.1152,1.9062 c -8e-4,-2.9358 2.3787,-5.316102 5.3145,-5.316402 2.9357,3e-4 5.3152,2.380702 5.3144,5.316402 -3e-4,2.935 -2.3794,5.3142 -5.3144,5.3145 -2.935,-3e-4 -5.3142,-2.3795 -5.3145,-5.3145 z m -8e-4,173.4921 c 3e-4,-2.935 2.3803,-5.3141 5.3153,-5.3144 2.9349,3e-4 5.3141,2.3795 5.3144,5.3144 -3e-4,2.935 -2.3794,5.3142 -5.3144,5.3145 -2.935,-3e-4 -5.315,-2.3795 -5.3153,-5.3145 z m 205.321,-173.4921 c 3e-4,-2.935 2.3795,-5.314102 5.3145,-5.314402 2.9357,-8e-4 5.3161,2.378702 5.3164,5.314402 8e-4,2.9365 -2.3799,5.3172 -5.3164,5.3164 -2.9358,-3e-4 -5.3153,-2.3806 -5.3145,-5.3164 z m 0.022,173.4999 c 3e-4,-2.935 2.3795,-5.3141 5.3145,-5.3144 2.9349,3e-4 5.3137,2.3795 5.314,5.3144 -2e-4,2.935 -2.379,5.3142 -5.314,5.3145 -2.935,-3e-4 -5.3142,-2.3795 -5.3145,-5.3145 z"
       id="rect100410-4-9-3-7-2"
       inkscape:connector-curvature="0"
       sodipodi:nodetypes="cssssssccccccccccccccccccccc" />
    <path
       style="opacity:1;fill:none;fill-opacity:1;stroke:#0000ff;stroke-width:0.03543307;stroke-linecap:round;stroke-miterlimit:4;stroke-dasharray:none;stroke-dashoffset:0;stroke-opacity:1"
       d="m 591.73198,92.127478 c 5.889,0 10.6289,-4.7399 10.6289,-10.628903 l 0,-177.166 c 0,-5.889005 -4.7399,-10.628905 -10.6289,-10.628905 l -209.0564,0 c -5.889,0 -10.6289,4.7399 -10.6289,10.628905 m 0,177.166 c 0,5.889003 4.7399,10.628903 10.6289,10.628903 m -3.5137,-185.888703 c -8e-4,-2.9358 2.3787,-5.3161 5.3145,-5.3164 2.9357,3e-4 5.3152,2.3807 5.3144,5.3164 -3e-4,2.935 -2.3794,5.3142 -5.3144,5.3145 -2.935,-3e-4 -5.3142,-2.3795 -5.3145,-5.3145 z m -8e-4,173.4922 c 3e-4,-2.935 2.3803,-5.3141 5.3153,-5.3144 2.9349,3e-4 5.3141,2.3795 5.3144,5.3144 -3e-4,2.935003 -2.3794,5.314203 -5.3144,5.314503 -2.935,-3e-4 -5.315,-2.3795 -5.3153,-5.314503 z m 205.3209,-173.4922 c 3e-4,-2.935 2.3795,-5.3141 5.3145,-5.3144 2.9357,-8e-4 5.3161,2.3787 5.3164,5.3144 8e-4,2.9365 -2.3799,5.3172 -5.3164,5.3164 -2.9358,-3e-4 -5.3153,-2.3806 -5.3145,-5.3164 z m 0.022,173.5 c 3e-4,-2.935 2.3795,-5.3141 5.3145,-5.3144 2.9349,3e-4 5.3137,2.3795 5.314,5.3144 -2e-4,2.935003 -2.379,5.314203 -5.314,5.314503 -2.935,-3e-4 -5.3142,-2.3795 -5.3145,-5.314503 z"
       id="rect100410-4-9-3-6-5-9"
       inkscape:connector-curvature="0"
       sodipodi:nodetypes="cssssccccccccccccccccccccccc" />
  </g>
</svg>
